<svg xmlns="http://www.w3.org/2000/svg" style="display: none;">
        <symbol viewBox="0 0 24 24" id="bookmark-stroked-24">
            <path d="M4 9.5278C4 6.92197 4 5.61906 4.87868 4.80953C5.75736 4 7.17157 4 10 4H14C16.8284 4 18.2426 4 19.1213 4.80953C20 5.61906 20 6.92197 20 9.5278V15.8181C20 18.2902 20 19.5263 19.1557 19.9043C18.3114 20.2824 17.2565 19.5187 15.1465 17.9914L14.4713 17.5026C13.2849 16.6438 12.6917 16.2144 12 16.2144C11.3083 16.2144 10.7151 16.6438 9.52871 17.5026L8.85346 17.9914C6.74355 19.5187 5.68859 20.2824 4.84429 19.9043C4 19.5263 4 18.2902 4 15.8181V9.5278Z" stroke="currentColor" stroke-width="2" fill="none"/>
        </symbol>
        <symbol viewBox="0 0 24 24" id="share-stroked-24">
            <path d="M19 13C19.5523 13 20 13.4477 20 14V18C20 19.6569 18.6569 21 17 21H7C5.34315 21 4 19.6569 4 18V14C4 13.4477 4.44772 13 5 13C5.55228 13 6 13.4477 6 14V18C6 18.5523 6.44772 19 7 19H17C17.5523 19 18 18.5523 18 18V14C18 13.4477 18.4477 13 19 13ZM12 2L12.0194 2.00019C12.0427 2.00063 12.066 2.00189 12.0893 2.00397L12 2C12.0506 2 12.1004 2.00376 12.149 2.01102C12.1659 2.01363 12.1834 2.0167 12.2007 2.02024C12.2227 2.02464 12.2444 2.02983 12.2658 2.03572C12.2815 2.0401 12.2969 2.04473 12.3121 2.04974C12.3318 2.05612 12.3516 2.06332 12.3711 2.0711C12.3888 2.0782 12.4061 2.08568 12.4232 2.09367C12.4439 2.10338 12.4643 2.11379 12.4843 2.12488C12.4964 2.1315 12.5086 2.13861 12.5207 2.146C12.5463 2.16172 12.5711 2.17849 12.5952 2.19631C12.6026 2.20175 12.6098 2.20728 12.617 2.21293C12.6197 2.21507 12.6226 2.21737 12.6254 2.21969L12.7071 2.29289L17.2071 6.79289C17.5976 7.18342 17.5976 7.81658 17.2071 8.20711C16.8166 8.59763 16.1834 8.59763 15.7929 8.20711L13 5.414V14.5C13 15.0523 12.5523 15.5 12 15.5C11.4477 15.5 11 15.0523 11 14.5V5.414L8.20711 8.20711C7.81658 8.59763 7.18342 8.59763 6.79289 8.20711C6.40237 7.81658 6.40237 7.18342 6.79289 6.79289L11.2929 2.29289L11.3746 2.21969C11.3774 2.21737 11.3803 2.21507 11.3833 2.21279L11.2929 2.29289C11.3283 2.2575 11.3657 2.22531 11.4047 2.19633C11.4289 2.17849 11.4537 2.16172 11.4793 2.14607C11.4914 2.13861 11.5036 2.1315 11.5159 2.12467C11.5357 2.11379 11.5561 2.10338 11.5769 2.09365C11.5939 2.08568 11.6112 2.0782 11.6287 2.07123C11.6484 2.06332 11.6682 2.05612 11.6883 2.04955C11.7031 2.04473 11.7185 2.0401 11.734 2.03585C11.7556 2.02983 11.7773 2.02464 11.7992 2.02017C11.8166 2.0167 11.8341 2.01363 11.8515 2.01102C11.8705 2.00811 11.8902 2.00577 11.91 2.004C11.9343 2.00187 11.958 2.0006 11.9816 2.00017C11.9872 2.00006 11.9936 2 12 2Z" fill="currentColor"/>
        </symbol>
        <symbol viewBox="0 0 24 24" id="chevron-stroked-right-24">
            <path d="M13.1161 7.11612C13.6043 6.62796 14.3957 6.62796 14.8839 7.11612L24.8839 17.1161C25.372 17.6043 25.372 18.3957 24.8839 18.8839L14.8839 28.8839C14.3957 29.372 13.6043 29.372 13.1161 28.8839C12.628 28.3957 12.628 27.6043 13.1161 27.1161L22.2322 18L13.1161 8.88388C12.628 8.39573 12.628 7.60427 13.1161 7.11612Z" fill="currentColor"/>
        </symbol>
        <symbol viewBox="0 0 20 20" id="chevron-stroked-left-20">
            <path fill-rule="evenodd" clip-rule="evenodd" d="M12.1083 6.22456C12.3524 6.46864 12.3524 6.86437 12.1083 7.10845L9.21689 9.99984L12.1083 12.8912C12.3524 13.1353 12.3524 13.531 12.1083 13.7751C11.8642 14.0192 11.4685 14.0192 11.2244 13.7751L7.89107 10.4418C7.64699 10.1977 7.64699 9.80197 7.89107 9.5579L11.2244 6.22456C11.4685 5.98048 11.8642 5.98048 12.1083 6.22456Z" fill="currentColor"/>
        </symbol>
        <symbol viewBox="0 0 20 20" id="chevron-stroked-right-20">
            <path fill-rule="evenodd" clip-rule="evenodd" d="M7.89107 6.22456C8.13514 5.98048 8.53087 5.98048 8.77495 6.22456L12.1083 9.5579C12.3524 9.80197 12.3524 10.1977 12.1083 10.4418L8.77495 13.7751C8.53087 14.0192 8.13514 14.0192 7.89107 13.7751C7.64699 13.531 7.64699 13.1353 7.89107 12.8912L10.7825 9.99984L7.89107 7.10845C7.64699 6.86437 7.64699 6.46864 7.89107 6.22456Z" fill="currentColor"/>
        </symbol>
        <symbol viewBox="0 0 16 16" id="chevron-stroked-down-24">
            <path d="M8.00002 8.77843L11.7732 5.67107C12.093 5.40775 12.5656 5.4535 12.829 5.77324C13.0923 6.09298 13.0465 6.56565 12.7268 6.82897L8.4768 10.329C8.19986 10.557 7.80018 10.557 7.52324 10.329L3.27324 6.82897C2.9535 6.56565 2.90775 6.09298 3.17107 5.77324C3.43439 5.4535 3.90706 5.40775 4.2268 5.67107L8.00002 8.77843Z" fill="currentColor"/>
        </symbol>
        <symbol viewBox="0 0 28 28" id="arrow-stroked-right-24">
            <path d="M22.7071 13.2929L15.7071 6.29289C15.3166 5.90237 14.6834 5.90237 14.2929 6.29289C13.9324 6.65338 13.9047 7.22061 14.2097 7.6129L14.2929 7.70711L19.586 13H6C5.48716 13 5.06449 13.386 5.00673 13.8834L5 14C5 14.5128 5.38604 14.9355 5.88338 14.9933L6 15H19.586L14.2929 20.2929C13.9324 20.6534 13.9047 21.2206 14.2097 21.6129L14.2929 21.7071C14.6534 22.0676 15.2206 22.0953 15.6129 21.7903L15.7071 21.7071L22.7071 14.7071L22.8037 14.5953L22.8753 14.4841L22.9288 14.3713L22.9642 14.266L22.989 14.1485L22.996 14.0893L22.9998 13.9808L22.996 13.9107L22.9798 13.7993L22.9503 13.6879L22.9063 13.5768L22.854 13.4793L22.7872 13.3833C22.7623 13.3515 22.7356 13.3214 22.7071 13.2929L15.7071 6.29289L22.7071 13.2929Z" fill="currentColor"/>
        </symbol>
        <symbol viewBox="0 0 32 32" id="arrow-filled-right-32">
            <circle cx="16" cy="16" r="16" fill="currentColor"/>
<path d="M24.7071 15.2929L17.7071 8.29289C17.3166 7.90237 16.6834 7.90237 16.2929 8.29289C15.9324 8.65338 15.9047 9.22061 16.2097 9.6129L16.2929 9.70711L21.586 15H8C7.48716 15 7.06449 15.386 7.00673 15.8834L7 16C7 16.5128 7.38604 16.9355 7.88338 16.9933L8 17H21.586L16.2929 22.2929C15.9324 22.6534 15.9047 23.2206 16.2097 23.6129L16.2929 23.7071C16.6534 24.0676 17.2206 24.0953 17.6129 23.7903L17.7071 23.7071L24.7071 16.7071L24.8037 16.5953L24.8753 16.4841L24.9288 16.3713L24.9642 16.266L24.989 16.1485L24.996 16.0893L24.9998 15.9808L24.996 15.9107L24.9798 15.7993L24.9503 15.6879L24.9063 15.5768L24.854 15.4793L24.7872 15.3833C24.7623 15.3515 24.7356 15.3214 24.7071 15.2929L17.7071 8.29289L24.7071 15.2929Z" fill="white"/>
        </symbol>
        <symbol viewBox="0 0 24 24" id="dashboard-stroked-24">
            <rect x="4" y="4" width="6" height="6" rx="1" stroke="currentColor" stroke-width="2" stroke-linejoin="round" fill="none"/>
            <rect x="4" y="14" width="6" height="6" rx="1" stroke="currentColor" stroke-width="2" stroke-linejoin="round" fill="none"/>
            <rect x="14" y="14" width="6" height="6" rx="1" stroke="currentColor" stroke-width="2" stroke-linejoin="round" fill="none"/>
            <rect x="14" y="4" width="6" height="6" rx="1" stroke="currentColor" stroke-width="2" stroke-linejoin="round" fill="none"/>
        </symbol>
        <symbol viewBox="0 0 24 24" id="menu-stroked-24">
            <rect x="4" y="5" width="16" height="5" rx="1" stroke="currentColor" stroke-width="2" stroke-linejoin="round" fill="none"/>
            <rect x="4" y="14" width="16" height="5" rx="1" stroke="currentColor" stroke-width="2" stroke-linejoin="round" fill="none"/>
        </symbol>
        <symbol viewBox="0 0 16 16" id="done-stroked-16">
            <path d="M13.7428 3.7561C14.0857 4.09757 14.0857 4.65121 13.7428 4.99268L6.42575 12.2439C6.08285 12.5854 5.5269 12.5854 5.184 12.2439L2.25717 9.36462C1.91428 9.02315 1.91428 8.46952 2.25717 8.12805C2.60007 7.78658 3.15602 7.78658 3.49892 8.12805L5.80488 10.389L12.5011 3.7561C12.844 3.41463 13.3999 3.41463 13.7428 3.7561Z" fill="currentColor"/>
        </symbol>
        <symbol viewBox="0 0 24 24" id="play-24">
            <path d="M17.671 10.923C18.4919 11.4064 18.4919 12.5937 17.671 13.0772L8.88431 18.2516C8.05102 18.7424 7 18.1416 7 17.1745L7 6.82563C7 5.85858 8.05102 5.2578 8.8843 5.74852L17.671 10.923Z" fill="currentColor"/>
        </symbol>
        <symbol viewBox="0 0 24 24" id="filter-stroked-24">
            <path d="M11 8L20 8" stroke="currentColor" stroke-width="2" stroke-linecap="round" />
<path d="M4 16L14 16" stroke="currentColor" stroke-width="2" stroke-linecap="round" />
<ellipse cx="7" cy="8" rx="3" ry="3" transform="rotate(90 7 8)" stroke="currentColor" stroke-width="2" stroke-linecap="round" fill="none"/>
<ellipse cx="17" cy="16" rx="3" ry="3" transform="rotate(90 17 16)" stroke="currentColor" stroke-width="2" stroke-linecap="round" fill="none"/>
        </symbol>
        <symbol viewBox="0 0 24 24" id="fire-filled-24">
          <circle cx="12" cy="12.5059" r="12" fill="currentColor"/>
<path fill-rule="evenodd" clip-rule="evenodd" d="M14.6047 12.5059C16.6828 6.50586 11.4876 4.50586 11.4876 4.50586C11.4876 7.50586 9.57207 8.18068 7.85091 9.50586C5.25329 11.5059 5 13.0059 5 14.5059C5 18.5059 9.92901 20.0059 9.92901 20.0059C7.85091 16.0059 10.9681 14.0059 10.9681 14.0059C10.9681 19.0059 15.1242 20.5059 15.1242 20.5059C22.3976 17.0059 17.2023 9.00586 17.2023 9.00586C17.2023 11.5059 14.6047 12.5059 14.6047 12.5059Z" fill="white"/>
        </symbol>
        <symbol viewBox="0 0 16 16" id="fire-16">
          <path fill-rule="evenodd" clip-rule="evenodd" d="M10.6047 8C12.6828 2 7.48758 0 7.48758 0C7.48758 3 5.57207 3.67482 3.85091 5C1.25329 7 1 8.5 1 10C1 14 5.92901 15.5 5.92901 15.5C3.85091 11.5 6.96806 9.5 6.96806 9.5C6.96806 14.5 11.1242 16 11.1242 16C18.3976 12.5 13.2023 4.5 13.2023 4.5C13.2023 7 10.6047 8 10.6047 8Z" fill="currentColor"/>
        </symbol>
        <symbol viewBox="0 0 32 32" id="close-filled-32">
            <path d="M30.3996 16.0001C30.3996 23.953 23.9525 30.4001 15.9996 30.4001C8.04671 30.4001 1.59961 23.953 1.59961 16.0001C1.59961 8.0472 8.04671 1.6001 15.9996 1.6001C23.9525 1.6001 30.3996 8.0472 30.3996 16.0001Z" fill="currentColor"/>
            <path fill-rule="evenodd" clip-rule="evenodd" d="M11.7503 10.5362C11.4156 10.2015 10.8729 10.2015 10.5382 10.5362C10.2034 10.8709 10.2034 11.4137 10.5382 11.7484L14.7892 15.9994L10.5382 20.2505C10.2034 20.5852 10.2034 21.1279 10.5382 21.4627C10.8729 21.7974 11.4156 21.7974 11.7503 21.4627L16.0014 17.2116L20.2524 21.4627C20.5872 21.7974 21.1299 21.7974 21.4646 21.4627C21.7994 21.1279 21.7994 20.5852 21.4646 20.2505L17.2136 15.9994L21.4646 11.7484C21.7994 11.4137 21.7994 10.8709 21.4646 10.5362C21.1299 10.2015 20.5872 10.2015 20.2524 10.5362L16.0014 14.7873L11.7503 10.5362Z" fill="black"/>
        </symbol>
        <symbol viewBox="0 0 36 10" id="tooltip">
<path d="M36 10L0 10L2.302 9.64623C4.42877 9.31939 6.3934 8.31527 7.90408 6.78301L8.11268 6.57143L13.491 1.61749C15.7301 -0.444956 19.1589 -0.503695 21.4674 1.48085L27.8873 7L28.2708 7.32415C29.6779 8.51347 31.3862 9.29095 33.2072 9.5708L36 10Z" fill="currentColor"/>
        </symbol>
        <symbol viewBox="0 0 48 48" id="done-filled-48">
            <circle cx="24" cy="24" r="24" fill="currentColor"/>
            <path d="M33.8737 16.4135C34.4001 15.8622 35.2535 15.8622 35.7798 16.4135C36.3062 16.9648 36.3062 17.8587 35.7798 18.41L23.2001 31.5865C22.6738 32.1378 21.8204 32.1378 21.294 31.5865L15.0041 24.9983C14.4778 24.4469 14.4778 23.5531 15.0041 23.0017C15.5305 22.4504 16.3839 22.4504 16.9103 23.0017L22.2471 28.5917L33.8737 16.4135Z" fill="white"/>
        </symbol>
        <symbol viewBox="0 0 20 20" id="close-stroked-20">
            <path fill-rule="evenodd" clip-rule="evenodd" d="M4.71967 4.71967C5.01256 4.42678 5.48744 4.42678 5.78033 4.71967L10 8.93934L14.2197 4.71967C14.5126 4.42678 14.9874 4.42678 15.2803 4.71967C15.5732 5.01256 15.5732 5.48744 15.2803 5.78033L11.0607 10L15.2803 14.2197C15.5732 14.5126 15.5732 14.9874 15.2803 15.2803C14.9874 15.5732 14.5126 15.5732 14.2197 15.2803L10 11.0607L5.78033 15.2803C5.48744 15.5732 5.01256 15.5732 4.71967 15.2803C4.42678 14.9874 4.42678 14.5126 4.71967 14.2197L8.93934 10L4.71967 5.78033C4.42678 5.48744 4.42678 5.01256 4.71967 4.71967Z" fill="currentColor"/>
        </symbol>
        <symbol viewBox="0 0 24 24" id="info-circle-filled-24">
            <path d="M12 2C6.48 2 2 6.48 2 12C2 17.52 6.48 22 12 22C17.52 22 22 17.52 22 12C22 6.48 17.52 2 12 2ZM11 16V12C11 11.4477 11.4477 11 12 11C12.5523 11 13 11.4477 13 12V16C13 16.5523 12.5523 17 12 17C11.4477 17 11 16.5523 11 16ZM10.7502 8.24998V7.7502C10.7502 7.19791 11.1979 6.7502 11.7502 6.7502H12.25C12.8023 6.7502 13.25 7.19791 13.25 7.7502V8.24998C13.25 8.80226 12.8023 9.24998 12.25 9.24998H11.7502C11.1979 9.24998 10.7502 8.80226 10.7502 8.24998Z" fill="currentColor"/>
        </symbol>
        <symbol viewBox="0 0 16 16" id="info-circle-stroked-16">
            <path d="M7.15299 8.40589C7.15299 7.93807 7.53223 7.55883 8.00005 7.55883C8.46786 7.55883 8.8471 7.93807 8.8471 8.40589V11.8882C8.8471 12.3561 8.46786 12.7353 8.00005 12.7353C7.53223 12.7353 7.15299 12.3561 7.15299 11.8882V8.40589Z" fill="currentColor"/>
<path d="M8.00005 4.26471C7.48025 4.26471 7.05887 4.68609 7.05887 5.20589C7.05887 5.72568 7.48025 6.14706 8.00005 6.14706C8.51984 6.14706 8.94122 5.72568 8.94122 5.20589C8.94122 4.68609 8.51984 4.26471 8.00005 4.26471Z" fill="currentColor"/>
<path fill-rule="evenodd" clip-rule="evenodd" d="M8.02051 15C11.6104 15 14.5205 12.0899 14.5205 8.5C14.5205 4.91015 11.6104 2 8.02051 2C4.43066 2 1.52051 4.91015 1.52051 8.5C1.52051 12.0899 4.43066 15 8.02051 15ZM8.02051 16.5C12.4388 16.5 16.0205 12.9183 16.0205 8.5C16.0205 4.08172 12.4388 0.5 8.02051 0.5C3.60223 0.5 0.0205078 4.08172 0.0205078 8.5C0.0205078 12.9183 3.60223 16.5 8.02051 16.5Z" fill="currentColor"/>
        </symbol>
        <symbol viewBox="0 0 40 40" id="loading-stroked-40">
            <path d="M19 2.5C19 1.11929 20.1236 -0.0160989 21.4936 0.156047C24.3045 0.509262 27.0182 1.45703 29.45 2.9472C32.5949 4.87441 35.1456 7.63376 36.8201 10.9202C38.4947 14.2066 39.2277 17.8921 38.9383 21.5692C38.649 25.2463 37.3484 28.7717 35.1803 31.7557C33.0123 34.7397 30.0614 37.0661 26.6537 38.4776C23.246 39.8891 19.5143 40.3308 15.8713 39.7538C12.2283 39.1768 8.81576 37.6036 6.01104 35.2081C3.84235 33.3559 2.10238 31.0678 0.897826 28.5036C0.310773 27.2539 1.04338 25.8345 2.35651 25.4078C3.66965 24.9811 5.06221 25.7136 5.70082 26.9377C6.58597 28.6345 7.79136 30.1532 9.25828 31.4061C11.3618 33.2027 13.9212 34.3826 16.6535 34.8153C19.3858 35.2481 22.1845 34.9168 24.7403 33.8582C27.296 32.7996 29.5092 31.0548 31.1353 28.8168C32.7613 26.5788 33.7367 23.9347 33.9538 21.1769C34.1708 18.4191 33.621 15.655 32.3651 13.1901C31.1092 10.7253 29.1962 8.65581 26.8375 7.2104C25.1926 6.20243 23.3757 5.52536 21.4885 5.20785C20.1269 4.97879 19 3.88071 19 2.5Z" fill="currentColor"/>
        </symbol>
        <symbol viewBox="0 0 16 16" id="time-circle-stroked-16">
            <path d="M8 4.75C8 4.33579 7.66421 4 7.25 4C6.83579 4 6.5 4.33579 6.5 4.75V8.75C6.5 9.04411 6.6719 9.31107 6.93965 9.43278L9.68965 10.6828C10.0667 10.8542 10.5114 10.6874 10.6828 10.3104C10.8542 9.93327 10.6874 9.48863 10.3104 9.31722L8 8.26707V4.75Z" fill="currentColor"/>
            <path fill-rule="evenodd" clip-rule="evenodd" d="M16 8C16 12.4183 12.4183 16 8 16C3.58172 16 0 12.4183 0 8C0 3.58172 3.58172 0 8 0C12.4183 0 16 3.58172 16 8ZM14.5 8C14.5 11.5899 11.5899 14.5 8 14.5C4.41015 14.5 1.5 11.5899 1.5 8C1.5 4.41015 4.41015 1.5 8 1.5C11.5899 1.5 14.5 4.41015 14.5 8Z" fill="currentColor"/>
        </symbol>
        <symbol viewBox="0 0 16 16" id="lock-stroked-16">
            <path fill-rule="evenodd" clip-rule="evenodd" d="M8 1.25C6.067 1.25 4.5 2.817 4.5 4.75V6.02399C4.00973 6.05392 3.66191 6.12121 3.36502 6.27248C2.89462 6.51217 2.51217 6.89462 2.27248 7.36502C2 7.8998 2 8.59987 2 10V11C2 12.4001 2 13.1002 2.27248 13.635C2.51217 14.1054 2.89462 14.4878 3.36502 14.7275C3.8998 15 4.59987 15 6 15H10C11.4001 15 12.1002 15 12.635 14.7275C13.1054 14.4878 13.4878 14.1054 13.7275 13.635C14 13.1002 14 12.4001 14 11V10C14 8.59987 14 7.8998 13.7275 7.36502C13.4878 6.89462 13.1054 6.51217 12.635 6.27248C12.3381 6.12121 11.9903 6.05392 11.5 6.02399V4.75C11.5 2.817 9.933 1.25 8 1.25ZM10 6V4.75C10 3.64543 9.10457 2.75 8 2.75C6.89543 2.75 6 3.64543 6 4.75V6H10ZM4.48015 7.52908C4.82178 7.50117 5.27518 7.5 6 7.5H10C10.7248 7.5 11.1782 7.50117 11.5198 7.52908C11.844 7.55556 11.9333 7.59845 11.954 7.60899C12.1422 7.70487 12.2951 7.85785 12.391 8.04601C12.4015 8.0667 12.4444 8.15603 12.4709 8.48015C12.4988 8.82178 12.5 9.27518 12.5 10V11C12.5 11.7248 12.4988 12.1782 12.4709 12.5198C12.4444 12.844 12.4015 12.9333 12.391 12.954C12.2951 13.1422 12.1422 13.2951 11.954 13.391C11.9333 13.4015 11.844 13.4444 11.5198 13.4709C11.1782 13.4988 10.7248 13.5 10 13.5H6C5.27518 13.5 4.82178 13.4988 4.48015 13.4709C4.15603 13.4444 4.0667 13.4015 4.04601 13.391C3.85785 13.2951 3.70487 13.1422 3.60899 12.954C3.59845 12.9333 3.55556 12.844 3.52908 12.5198C3.50117 12.1782 3.5 11.7248 3.5 11V10C3.5 9.27518 3.50117 8.82178 3.52908 8.48015C3.55556 8.15603 3.59845 8.0667 3.60899 8.04601C3.70487 7.85785 3.85785 7.70487 4.04601 7.60899C4.0667 7.59845 4.15603 7.55556 4.48015 7.52908Z" fill="currentColor"/>
        </symbol>
        <symbol viewBox="0 0 36 36" id="lock-filled-36">
            <path d="M24 12V10.5C24 9.57099 24 9.10649 23.9384 8.71783C23.5996 6.57837 21.9216 4.90042 19.7822 4.56156C19.3935 4.5 18.929 4.5 18 4.5V4.5C17.071 4.5 16.6065 4.5 16.2178 4.56156C14.0784 4.90042 12.4004 6.57837 12.0616 8.71783C12 9.10649 12 9.57099 12 10.5V12" stroke="currentColor" stroke-width="3" stroke-linecap="round"/>
            <path fill-rule="evenodd" clip-rule="evenodd" d="M5.81802 11.818C4.5 13.136 4.5 15.2574 4.5 19.5V21C4.5 26.6569 4.5 29.4853 6.25736 31.2426C8.01472 33 10.8431 33 16.5 33H19.5C25.1569 33 27.9853 33 29.7426 31.2426C31.5 29.4853 31.5 26.6569 31.5 21V19.5C31.5 15.2574 31.5 13.136 30.182 11.818C28.864 10.5 26.7426 10.5 22.5 10.5H13.5C9.25736 10.5 7.13604 10.5 5.81802 11.818ZM18 22.5C18.8284 22.5 19.5 21.8284 19.5 21C19.5 20.1716 18.8284 19.5 18 19.5C17.1716 19.5 16.5 20.1716 16.5 21C16.5 21.8284 17.1716 22.5 18 22.5ZM22.5 21C22.5 22.9593 21.2478 24.6262 19.5 25.2439V28.5H16.5V25.2439C14.7522 24.6262 13.5 22.9593 13.5 21C13.5 18.5147 15.5147 16.5 18 16.5C20.4853 16.5 22.5 18.5147 22.5 21Z" fill="currentColor"/>
        </symbol>
        <symbol viewBox="0 0 16 16" id="search-stroked-16">
            <path d="M6.50006 1C9.53765 1 12.0001 3.46256 12.0001 6.50029C12.0001 7.74868 11.5842 8.89993 10.8835 9.82304L14.7791 13.7233C15.0718 14.0164 15.0715 14.4913 14.7785 14.784C14.4854 15.0767 14.0105 15.0764 13.7178 14.7834L9.82266 10.8839C8.89959 11.5847 7.74839 12.0006 6.50006 12.0006C3.46246 12.0006 1 9.53802 1 6.50029C1 3.46256 3.46246 1 6.50006 1ZM6.50006 2.5C4.2909 2.5 2.5 4.29098 2.5 6.50029C2.5 8.70961 4.2909 10.5006 6.50006 10.5006C8.70921 10.5006 10.5001 8.70961 10.5001 6.50029C10.5001 4.29098 8.70921 2.5 6.50006 2.5Z" fill="currentColor"/>
        </symbol>
        <symbol viewBox="0 0 24 24" id="change-stroked-24">
            <path d="M10 15L9.29289 14.2929L8.58579 15L9.29289 15.7071L10 15ZM13.2929 10.2929L9.29289 14.2929L10.7071 15.7071L14.7071 11.7071L13.2929 10.2929ZM9.29289 15.7071L13.2929 19.7071L14.7071 18.2929L10.7071 14.2929L9.29289 15.7071Z" fill="currentColor"/>
<path d="M4.20577 12.75C3.21517 11.8921 2.8184 10.8948 3.077 9.91263C3.3356 8.9305 4.23511 8.01848 5.63604 7.31802C7.03696 6.61756 8.86101 6.1678 10.8253 6.0385C12.7895 5.9092 14.7842 6.10758 16.5 6.60289C18.2158 7.09819 19.5567 7.86273 20.3149 8.77792C21.0731 9.69312 21.2061 10.7078 20.6933 11.6647C20.1806 12.6215 19.0507 13.467 17.4789 14.0701C15.9071 14.6731 13.9812 15 12 15" stroke="currentColor" stroke-width="2" stroke-linecap="round" fill="none"/>
        </symbol>
        <symbol viewBox="0 0 18 18" id="star-filled-18">
           <path d="M11.507 6.36348L14.8292 6.68222C15.9851 6.79312 16.3396 7.9223 15.447 8.66417L12.8461 10.8258L13.8117 14.3472C14.1288 15.5037 13.145 16.2038 12.1597 15.5078L8.9994 13.2755L5.83913 15.5078C4.85778 16.201 3.87 15.5038 4.18713 14.3472L5.15267 10.8258L2.55177 8.66417C1.6554 7.91919 2.00852 6.79362 3.16945 6.68222L6.49102 6.36349L7.95442 2.9895C8.4127 1.9329 9.58636 1.93343 10.0443 2.98961L11.507 6.36348Z" fill="currentColor"/>
        </symbol>
        <symbol viewBox="0 0 18 18" id="star-stroked-18">
           <path fill-rule="evenodd" clip-rule="evenodd" d="M9.39675 3.80333C9.25043 3.44972 8.74957 3.44972 8.60325 3.80333L7.44825 6.59458C7.35436 6.82147 7.13963 6.97524 6.89459 6.99105L3.94248 7.18151C3.5603 7.20616 3.39916 7.68094 3.68738 7.93313L6.0249 9.97846C6.20529 10.1363 6.28311 10.3813 6.22686 10.6143L5.5615 13.3708C5.47297 13.7376 5.86663 14.032 6.19346 13.8435L8.67815 12.41C8.87733 12.2951 9.12267 12.2951 9.32185 12.41L11.8065 13.8435C12.1334 14.032 12.527 13.7376 12.4385 13.3708L11.7731 10.6143C11.7169 10.3813 11.7947 10.1363 11.9751 9.97846L14.3126 7.93313C14.6008 7.68094 14.4397 7.20616 14.0575 7.18151L11.1054 6.99105C10.8604 6.97524 10.6456 6.82147 10.5518 6.59458L9.39675 3.80333ZM7.413 3.31081C7.99828 1.8964 10.0017 1.8964 10.587 3.31081L11.5886 5.73142L14.1405 5.89605C15.6692 5.99468 16.3137 7.89378 15.1609 8.90254L13.1168 10.6911L13.6907 13.0685C14.0448 14.5357 12.4702 15.7134 11.1628 14.9592L9 13.7114L6.83716 14.9592C5.52984 15.7134 3.9552 14.5357 4.30934 13.0685L4.8832 10.6911L2.83914 8.90254C1.68627 7.89378 2.33082 5.99468 3.85955 5.89605L6.41137 5.73142L7.413 3.31081Z" fill="currentColor"/>
        </symbol>
        <symbol viewBox="0 0 24 24" id="checked-stroked-24">
          <path fill-rule="evenodd" clip-rule="evenodd" d="M20.2071 6.29289C20.5976 6.68342 20.5976 7.31658 20.2071 7.70711L9.70711 18.2071C9.31658 18.5976 8.68342 18.5976 8.29289 18.2071L4.29289 14.2071C3.90237 13.8166 3.90237 13.1834 4.29289 12.7929C4.68342 12.4024 5.31658 12.4024 5.70711 12.7929L9 16.0858L18.7929 6.29289C19.1834 5.90237 19.8166 5.90237 20.2071 6.29289Z" fill="currentColor"/>
        </symbol>
    </svg>