<svg width="328" height="574" fill="none" xmlns="http://www.w3.org/2000/svg"><path d="M174.151 286.601c-5.68-1.707-11.614-4.52-16.654-7.107-10.6-5.613-19.773-11.973-27.6-21.186-5.306-5.68-7.053-9.134-10.613-16.88-.773-1.707-1.613-3.374-2.48-5.04 8.813-.054 17.6-1.094 26.106-3.467 7.4-2.267 15.481-4.267 21.694-9.04a50.887 50.887 0 005.013-3.373c4.534 22.04 8.493 44.213 12.16 66.426-.08.094-.12.187-.093.294.04.133.107.226.187.306.013.067.026.12.026.174-2.6-.227-5.186-.534-7.746-1.107zm-38.574-55.933c11.307-1.614 22.054-5.854 31.507-12.267.6-.387 1.227-.76 1.84-1.133.107.48.2.96.307 1.44-5.454 3.56-11.254 6.586-17.187 9.333-1.28.307-2.547.6-3.813.92-6.774 1.493-13.667 2.467-20.587 2.973-2.307.134-5 .134-7.84.054 5.267-.267 10.546-.6 15.773-1.32zm73.28 341.16c2.52-16.387 4.147-32.92 5.174-49.467 1.506-21.96 3.066-43.947 1.546-65.947-.573-10.866-1.946-21.666-2.853-32.506-1.32-16.84-3.4-33.56-6.147-50.227-4.32-28.12-8.506-56.267-13.28-84.32 4.88.867 9.8 1.427 14.774 1.28-5.04-.147-10.014-.907-14.907-2.08-.013-.04-.013-.067-.013-.107l1.44-1.12c10.946-2.493 23.92-8.973 30.493-13.706 8.293-6.147 17.467-11.08 25.267-17.894 7.066-5.84 12.386-13.32 18.026-20.466 4.987-5.894 10.56-11.28 15.187-17.48 3.267-4.507 5.733-9.547 8.16-14.534 2.92-6.213 6.16-14.493 9.107-21.92.586.107 1.173.187 1.786.24 6.947.614 15.174-.32 20.2-5.64 4.734-7.213 4.933-16.653 3.227-24.88-.974-3.173-2.04-6.76-4.707-8.933-5.693-4.253-13.453-3.853-20-2.093-.213 0-.413-.014-.613 0-2.533-.027-4.92.653-7.053 1.826-3.68 1.387-6.347 3.68-7.174 7.294-.48.866-.906 1.773-1.24 2.706-2.04 6.067.414 12.067 2.56 17.76-8.56 20.667-12.586 38.88-28.733 55.36-9.8 10.894-16.92 24.134-28.427 33.48-.626.507-1.947 1.587-2.547 2.067-5.106 4-11.853 10.187-15 12.787-5.186 3.946-10.919 7.12-16.759 10-.947.426-1.921.866-2.907 1.266 1.826-2.546 3.6-5.146 5.32-7.76 12.947-19.786 25.453-40.12 33.907-62.28 4.733-11.986 7.973-24.453 10.466-37.066 4.787-22.707 7.627-45.96 6.36-69.174-.106-2.626-.28-5.24-.466-7.853 3.453 1.253 7.173 1.773 10.8 1.4 5.146-.653 11.106-3.32 11.92-9.026.253-4.667.28-9.494-1.68-13.814a20.486 20.486 0 00-1.334-3.813 8.291 8.291 0 00-.627-1.36c-.093-.147-.199-.267-.293-.4-.946-1.6-2.106-3.067-3.453-4.294a21.574 21.574 0 00-4.254-2.813c-4.786-3.04-11.026-4.987-15.573-2.667a27.78 27.78 0 00-2.827.467c-4.746 1.413-8.506 5.72-9.546 10.56-.933 1.947-1.027 4.387-.24 8.04.8 3.12 2.453 5.733 4.627 7.867 2.413 3.88 6.026 6.933 10.173 8.893-.72 5.373-1.56 10.733-2.307 16.093-3.2 18.8-7.52 37.374-12.413 55.787-3.68 14.547-7.12 29.147-11.653 43.453-5.694 17.947-13.32 35.2-20.88 52.414-2.427 5.32-4.68 10.72-7.2 15.986a1602.54 1602.54 0 00-5.6-30.546c-2.507-12.707-5.027-25.44-7.72-38.134 5.013-10.626 9.933-21.306 14.866-31.973 6.24-12.867 12.387-25.773 17.92-38.96 4.307-10.493 8.214-21.16 12.427-31.68 2.893-10.04 4.493-20.413 5.907-30.747 2.093-14 1.52-28.373-1.214-42.266 1.694-1.44 3.014-3.32 3.774-5.707 1.84-3.853 1.52-8.186.453-12.213-.84-3.4-1.84-6.84-4.107-9.587-5.507-5.04-12.28-9.493-19.893-10.2-5.027-.426-10.987-.547-14.76 3.347-4.08 4.333-4.24 10.6-4.68 16.213-.547 3.96-.213 8.347 2.973 11.147 2.6 2.28 5.707 3.893 9.04 4.92 2.107 2.56 4.907 4.48 8.32 5.213 1.24.307 2.547.52 3.88.64.854 4.894 1.347 9.747 1.774 14.653 1.16 16.854-.974 33.76-4.267 50.267-3.253 11.013-7.614 21.707-10.787 32.76-3.573 10.587-7.293 21.12-10.986 31.667 2.04-14.32 3.293-28.774 5-43.134 1.053-8.413 1.826-16.866 1.253-25.346.6-.534.76-1.227.227-2.014 2.706-.093 5.386-.64 7.813-1.64 4.453-2.2 7.64-7.266 7.467-12.253-.387-5.053-3.374-9.347-6.414-13.213-2.573-3.36-5.227-6.88-9.093-8.84-7.04-3.88-17.613-6.054-23.493.84-7.427 9.826-.734 23.28 6.826 30.987 1.48 1.466 2.894 3.173 4.507 4.546v.08c.573 7.453.52 14.92-.027 22.36-.666 17.187-.88 34.387-.96 51.573-.466 10.747-2.267 21.414-5.187 31.76-4.933-22.546-10.653-44.906-18.426-66.666-8.547-25.707-20.96-49.88-31.04-74.987a434.375 434.375 0 01-4-10.067c-.84-5.773-2.053-11.613-3.547-17.386 6.947-1.467 12.64-7.56 14.947-14.147.453-3.88-.827-8.413-2.68-11.827-4.653-8.346-14.987-13.826-24.44-11.213-1.987.707-3.613 2.027-5.16 3.48-.027 0-.053.014-.08.014-2.72.573-4.173 2.493-4.747 4.88-.96 1.466-1.493 3.226-1.84 4.92-1.787 12.946 7.147 23.986 20.36 24.24.507 2.08 1.08 4.133 1.707 6.16 3.533 17.626 9.2 34.76 14.987 51.746 9.066 24.787 17.813 49.707 24.853 75.147a4410.846 4410.846 0 00-24.787-37.92c-6.493-8.414-9.64-16.094-17.373-24.507-9.28-10.107-21.493-16.96-33.453-23.373-7.12-3.44-14.52-6.947-22.227-8.907-.214-1.213-.493-2.413-.88-3.547-3.36-6.6-11.16-9.56-18.4-9.08-3.027-.986-6.267-1.373-9.427-1-4.36.547-7.4 3.374-9.2 7.04-1.426 1.667-2.453 3.747-3.04 6.347-.906 4.28-2.533 9.24-.306 13.347 4.466 6.4 13 8.2 20.653 7.013.76.147 1.453.28 2.28.547 1.08.226 2.747.493 3.76-.147 1.653-.013 3.28-.267 4.8-1.067.773-.386 1.267-1 1.467-1.84.04-.133.093-.253.133-.386 2.36-.68 4.506-1.934 6.106-3.84 1.36-2.174 2.067-4.654 2.307-7.214 7.787 2.467 17.294 7.24 25.534 12.107 9.92 5.76 17.893 11.64 25.133 20.6 4.093 5.12 7.84 11.453 14.387 18.973 11.413 15 22.96 29.88 34.653 44.667.08.36.187.707.28 1.053 1.44 5.947 2.813 11.92 4.147 17.894-5.56-8.587-11.04-17.307-17.347-25.547-5.76-6.693-13-11.853-19.48-17.8-4.093-3.493-8.973-8.133-14.307-12.427 0-1.76-.32-3.653-1.08-5.76-3.84-6.333-9.426-12.493-16.733-14.613-3.68-.973-7.48-1.027-11.24-.747-2.88.24-5.84 1.014-7.96 3.04-4.24 3.814-6.373 9.307-6.453 14.934-.734 4.946.506 10.16 3.32 14.28 5.8 10.413 20.026 13.013 30.373 8.36 4.24-2.44 7.253-6.947 8.466-11.734 3.494 2.8 7.054 5.76 11.321 9.107 4.533 3.467 9.106 6.72 13.186 10.213 5.72 4.654 10.067 10.654 14.734 16.307 4.76 5.84 9.466 11.72 14.333 17.467.787 3.586 1.533 7.186 2.28 10.773-1.24.48-2.494.96-3.72 1.467-4.067 1.706-7.36 3.306-10.373 4.306-10.267 4.027-21.667 6.094-30.987 6.334-3.213.093-7.32.413-11.16.733a92.64 92.64 0 01-2.133-4.533 212.462 212.462 0 01-2.614-6.16c2.173-.774 4.28-1.774 6.24-3.054 2.28-1.453 4.614-3.173 5.48-5.853 1.094-4.133 2.4-8.76.84-12.933-.666-1.374-1.48-2.72-2.36-4-.48-1.84-1.16-3.627-2.146-5.267-3.24-5.627-10.267-6.827-16.147-7.893-7.4-1.214-16.014-.827-21.187 5.346-1.186 1.84-2.52 3.707-3.72 5.627-.72.973-1.32 2.04-1.786 3.173v.014c-.027.066-.067.12-.094.186-1.12 2.347-1.853 4.827-1.773 7.52-.08 1.8-.027 3.64.507 5.374.373.866.906 1.64 1.48 2.373.146.227.28.467.453.68.147.133.307.24.453.36a20.457 20.457 0 002.427 2.133c4.813 3.814 10.493 6.614 16.573 7.627.107.013.214.013.32.04 1.307 3.093 2.814 6.107 4.414 9.067-5.4-1.414-11.974-3.84-17.467-5.814-4.4-1.533-8.68-3.333-12.893-5.266-3.947-2.694-7.854-5.44-11.827-8.12-2.773-1.827-5.8-3.227-8.76-4.72-.08-.04-.147-.08-.24-.134-2.174-1.186-4.08-2.8-5.813-4.826.32-.214.653-.427.973-.667.747-.907 10.467-7.333 9.347-13.76-.787-11.867-6.894-17.96-18.48-20-2.24-.267-4.747-.373-7.174-.08a13.78 13.78 0 00-1.826-1.6c-1.694-.813-4.16-1.213-5.72.053-.534 1.04.44 2.707.866 3.88a9.537 9.537 0 00-2.066 1.947c-2.334-.027-4.587.2-6.654.787-2.853.933-4.92 3.226-6.186 5.96a20.808 20.808 0 00-2.267 2.866c-1.227 1.96-1.293 4.227-.693 6.414 1.04 3.493 2.786 6.786 4.706 9.88 4.48 7.573 14.44 9.506 22.64 7.826h.027c1.826 1.814 3.853 3.414 6.147 4.72 7.4 3.934 7.533 3.547 14.693 8.707 12.467 8.88 26.28 16.173 41.347 19.373 4.066.854 8.186 1.187 12.333 1.36.733 1.254 1.48 2.52 2.213 3.787 4.067 7.733 8.853 15.12 15.6 20.787 10.76 10.386 24.187 17.453 38.08 22.68 4.96 1.8 9.987 3.493 15.16 4.52 2.854.413 5.72.506 8.6.493l.8 4.92c-3.226 1.653-6.466 3.267-9.693 4.92-4.493 1.907-9.547 4.8-13.893 5.8-12.907 1.773-23.574 3.813-36.107 2.587-14.667-1.56-29.293-4.04-40.973-12.76-4.507-3-8.214-6.227-12.16-9.787a11.96 11.96 0 00.413-2.76c-.333-4.813-2.64-9.52-6.253-12.72-1.987-2.293-4.84-3.667-8-4.347-4.147-1.453-8.6-2.12-12.934-1.653-2.28-.387-4.6-.453-6.84-.227-5.2.734-9.987 4.627-11.467 9.707-.2 1.533-.146 3.093.107 4.64-.093.307-.186.6-.253.92-.147 3.667 1.787 6.973 2.627 10.467 1.04 3.24 3.76 5.066 6.84 6.053 2.346 1.8 5.2 3.027 8.306 3.653 6.387 1.4 13.44 1.8 19.494-1.013 1.466-.64 2.6-1.52 3.48-2.547 4.026 3.067 8.28 5.92 12.626 8.134 15.707 7.826 33.694 10.266 51.094 10.373 11.68.067 23.106-2.72 34.36-5.573 5.026-1.694 9.253-5.147 13.826-7.747l5.76-3.88c2.613 16.253 5.094 32.52 7.507 48.773 3.147 22.734 7.147 44.92 8.88 65.894 1.213 14.786 2.973 29.533 3.867 44.333 1.16 19.253 1.626 38.52 2.346 57.787.92 19.346 2.28 38.666 2.733 58.013.027 1.093.067 2.173.094 3.253.08-.573.173-1.16.253-1.746z" fill="#100F0D"/></svg>