<svg width="184" height="77" fill="none" xmlns="http://www.w3.org/2000/svg"><path d="M179.031 8.853a38.484 38.484 0 00-4.87 6.455c-1.092 1.762-2.121 3.848-3.179 5.09-1.072 1.351-2.368 2.448-3.741 3.358-1.587.935-3.273 1.637-4.912 2.44-2.199 1.105-4.064 2.113-6.495 2.598-1.72.418-3.497.312-5.233.585-.99.132-1.97.326-2.944.555 2.563-1.178 5.052-2.561 7.491-4.044 4.477-2.702 8.786-5.818 12.648-9.584l.844-.811c-.331.258-.664.515-.994.773-3.93 3.113-8.071 5.86-12.263 8.48-2.998 1.843-6.057 3.587-9.253 4.94a67.603 67.603 0 01-3.557 1.384c.144-.186.326-.344.477-.497.817-.79 1.799-1.276 2.747-1.82 1.331-.777 2.706-1.466 3.992-2.344 1.84-1.35 3.644-2.798 5.275-4.473 1.062-1.22 2.056-2.52 3.122-3.736.98-1.038 1.986-2.046 2.966-3.088 1.071-1.024 2.411-2.08 3.712-3.367 1.343-1.357 3.02-2.499 4.721-3.297.742-.334 1.451-.797 2.241-.972 1.445-.324 2.928-.346 4.393-.505 1.711-.17 3.423-.326 5.142-.338a13.96 13.96 0 00-2.33 2.218zm-42.434 27.63c3.523.503 7.05 1.068 10.491 2.135 2.329.731 4.629 1.599 6.902 2.54 1.327.562 3.16 1.364 4.078 1.969.227.154.445.326.667.493.013.01.027.018.039.028a3.547 3.547 0 01-.053.15c-.088.006-.194.008-.268.012-.91.016-1.808.217-2.71.32-1.879.29-4.362.909-5.908 1.15-1.595.282-3.21-.047-4.811-.157-1.561-.249-3.173-.357-4.309-.78-.734-.28-1.399-.743-2.092-1.13-.066-.034-.806-.523-1.177-.874-.587-.571-1.128-1.216-1.795-1.663-1.101-.766-2.295-1.323-3.507-1.788-1.125-.41-2.241-.9-3.417-1.048-1.988-.192-3.728.004-5.345-.144.601-.136 1.202-.275 1.817-.299 2.74-.102 5.474.423 8.211.6 1.768.093 3.471.68 5.193 1.124 1.158.302 2.35.318 3.527.304.625.002 1.244-.068 1.866-.118-.443-.008-.888.002-1.331-.024-1.245-.09-2.507-.188-3.706-.637-.962-.337-1.919-.712-2.893-1-.8-.213-1.614-.319-2.425-.423-2.109-.215-4.221-.525-6.335-.6a25.27 25.27 0 001.441-.212c2.611-.234 5.234-.268 7.85.072zm-5.748-1.172c.523-.118 1.044-.239 1.567-.363-.882.267-1.723.487-2.551.66l-.403.034c.461-.109.924-.219 1.387-.331zm-30.816 1.369c.843-.315 1.665-.73 2.474-1.127 1.738-.907 3.508-1.733 5.265-2.595.95-.489 1.95-.848 2.882-1.38 1.289-.756 2.497-1.676 3.714-2.572a335.377 335.377 0 008.114-6.377l.896-.673c-.489.31-.984.61-1.461.948-3.818 2.583-7.521 5.387-11.327 7.996-.846.56-1.782.898-2.676 1.339a388.45 388.45 0 00-6.737 3.322c-.84.377-1.707.744-2.614.834a.877.877 0 01-.482-.088.744.744 0 01.11-.032c1.304-.403 2.621-.854 3.817-1.577.874-.563 1.718-1.185 2.6-1.732.407-.218.847-.407 1.244-.72 1.179-.903 2.147-2.112 3.203-3.188 1.773-1.757 3.298-3.805 4.904-5.76 1.356-1.667 2.811-3.256 4.505-4.462a19.64 19.64 0 013.144-1.65c1.674-.681 3.333-1.423 5.058-1.926 1.944-.69 4.393-1.555 6.049-2.024.942-.122 1.771-.647 2.631-1.058 1.517-.744 3.016-1.545 4.427-2.531.585-.399 1.116-.888 1.637-1.389-.114.503-.517 1.032-.915 1.627-.548.846-.936 1.317-1.622 2.24-1.27 1.692-2.525 3.416-3.992 4.88-2.244 2.211-3.952 3.869-6.186 5.837-3.534 3.106-7.678 5.054-11.594 7.415-2.174 1.206-3.748 2.068-5.838 3.004-1.609.721-3.272 1.272-4.932 1.823-1.509.491-2.509.826-3.97 1.223-.565.168-1.132.333-1.699.493a32.433 32.433 0 00-.629-.12zm-9.29 2.693c2.02.79 4.03 1.652 5.923 2.804 1.617 1.004 3.773 2.657 5.477 4.152 1.405 1.249 2.783 2.551 4.026 4.016 1.677 2.04 3.242 4.199 4.802 6.36.585.813 1.17 1.627 1.763 2.432-.288-.06-.577-.112-.864-.158-1.461-.18-2.937-.239-4.382-.56-1.395-.398-3.878-1.444-5.237-2.685-1.615-1.392-3.184-2.864-4.604-4.52-1.106-1.282-2.144-2.638-3.204-3.97-.517-.648-1.116-1.197-1.677-1.79a95.315 95.315 0 01-2.823-3.221 32.308 32.308 0 00-1.69-1.828c3.657 2.153 7.206 5.042 10.855 7.638 1.606 1.26 3.255 2.443 4.838 3.743.04.03.269.229.075.04-.988-1.05-2.039-2.016-3.085-2.986-4.355-3.97-8.972-7.633-14.037-10.26a63.219 63.219 0 00-2.3-1.137 8.642 8.642 0 00-1-.617c2.404.752 4.78 1.64 7.144 2.547zm-17.656-8.335c2.016-.846 4.033-1.954 5.944-3.076 1.793-1.283 3.621-2.515 5.364-3.89a67.017 67.017 0 013.255-2.84c.879-.767 1.842-1.635 2.75-2.244.61-.423 1.297-.628 2.02-.908.872-.323.82-.323 1.663-.557.382-.084.765-.165 1.148-.247 2.252-.274 4.488-.673 6.727-1.05.513-.076 1.413-.242 2.197-.362-.227.444-.505.85-.792 1.244-1.465 1.902-4.1 4.866-6.306 6.692-1.257 1.038-2.611 1.905-3.97 2.751-1.19.744-2.391 1.47-3.645 2.058-1.862.818-3.802 1.373-5.705 2.048-1.912.632-4.45 1.285-6.69 1.6-2.268.282-4.55.417-6.833.499 1.45-.253 2.869-.686 4.279-1.135a96.958 96.958 0 005.45-1.84c2.668-1.05 5.246-2.388 7.849-3.63.42-.201 1.3-.612 1.864-.884-.427.162-.854.324-1.28.489-1.894.727-3.764 1.533-5.648 2.29-3.254 1.387-6.95 2.523-10.088 3.491-1.13.355-2.28.563-3.44.692 1.32-.277 2.611-.722 3.887-1.19zm-30.247 1.9c-.411.018-.822.048-1.23.102 2.35-1.326 4.681-2.707 6.931-4.242 2.235-1.758 4.3-3.896 5.808-6.507.651-1.19 1.037-2.542 1.517-3.832.357-.996.65-2.026 1.108-2.966-.841 1.348-1.45 2.87-2.152 4.318-.91 2.19-2.199 3.966-3.737 5.582-1.245 1.334-2.42 2.46-3.83 3.505.376-.413.73-.852 1.03-1.347.426-.67.79-1.389 1.178-2.088.385-.701.837-1.363 1.146-2.116.42-1.16.705-2.383 1.063-3.572.292-1.04.639-2.056.926-3.096.569-2.643 1.518-4.673 3.159-6.369 1.256-1.439 2.59-2.785 3.9-4.158.556-.638 1.129-1.285 1.609-2.008a16.038 16.038 0 01-.128 1.685c-.12 1.08-.244 2.16-.36 3.24-.074.724-.078 1.466-.258 2.167-.078.405-.466 1.026-.747 1.724-.608 1.394-1.188 2.807-1.877 4.15-.836 1.675-1.888 3.18-2.905 4.71-.464.805-.923 1.615-1.432 2.384-.912 1.42-1.865 2.487-3.197 3.802-1.03 1.088-2.184 2.163-3.319 2.894-1.172.792-2.388 1.206-3.655 1.788l-.548.25zm-14.829 6.505c.51-.306 1.06-.611 1.688-.94.074-.032.15-.066.225-.096a47.62 47.62 0 00-1.913 1.036zM14.441 53.24c-.44.475-.873.958-1.307 1.441.161-.228.325-.455.489-.681.568-.57 1.143-1.133 1.715-1.696-.3.315-.597.63-.897.936zm2.712-2.76c.33-.312.662-.625.99-.943.057-.054.116-.108.173-.165a7.978 7.978 0 011.13-.827c1.004-.553 2.19-1.277 3.106-1.746.934-.407 1.96-.681 3.054-1.002 2.992-.83 5.82-1.395 8.852-1.575 2.156-.1 4.317-.28 6.476-.204 1.387.126 2.753.47 4.127.721.048.008.095.018.143.028l-.135-.048c-.356-.122-.712-.245-1.068-.365-.76-.248-1.517-.523-2.292-.705-1.086-.249-2.194-.24-3.294-.283-1.74-.054-3.486-.082-5.22.076-1.99.197-3.957.604-5.903 1.093-1.66.418-3.32.887-4.922 1.537-.233.108-.461.226-.688.348a38.594 38.594 0 012.343-1.721c2.563-1.721 5.337-2.996 8.19-3.942 2.26-.826 4.614-1.35 6.998-1.399 1.36.024 2.73-.07 4.088.074.43.086 1.633.525 2.448.79 2.093.697 4.184 1.41 6.241 2.244.842.363 1.61.92 2.46 1.257 2.483 1.1 5.08 1.784 7.67 2.409 1.463.172 2.933.006 4.396-.048.425-.056.862-.044 1.298-.044-.207.146-.415.29-.622.438-1.703.938-4.937 3.257-7.513 3.478-1.645.07-3.295.114-4.943.07-2.083-.267-4.163-.59-6.248-.85-2.512-.417-4.98-1.186-7.492-1.605-1.532-.257-3.038-.712-4.582-.842-1.082-.166-2.17-.186-3.257-.244-1.205-.125-2.412-.281-3.62-.197-3.225.169-6.369 1.098-9.398 2.303-1.128.387-2.103 1.09-3.01 1.916a.31.31 0 01.024-.026zM183.22 5.942c-.14-.27-.467-.142-.689-.148-.565.026-1.133.01-1.696.028-1.439.004-2.865.203-4.296.31-1.507.16-3.031.207-4.516.54-1.032.208-1.958.777-2.917 1.228a18.9 18.9 0 00-5.339 3.792c-1.253 1.246-2.229 1.958-3.592 3.267-.986 1.052-1.996 2.072-2.984 3.122-1.044 1.2-2.02 2.477-3.052 3.69-1.583 1.635-3.317 3.076-5.062 4.47-1.245.89-2.561 1.644-3.824 2.5-.821.517-1.645 1.05-2.323 1.805-.132.158-.318.349-.448.56-4.179 1.49-8.46 2.595-12.758 3.553-1.708.45-3.451.667-5.187.945-.922.153-1.635.261-2.341.357.523-.248.96-.467 1.131-.557 2.9-1.319 5.769-2.777 8.405-4.703a52.902 52.902 0 002.575-2.447c.14.364.345.691.627.948.507.312 1.217.35 1.946.186.088.052.179.1.271.142.863.315 1.968.018 2.507-.837.208-.421.226-.914.304-1.381.079-.543.119-1.113.014-1.658l-.038-.4c.305.003.734-.117.766-.335.084-.042.164-.09.24-.142.536-.393.64-1.271.453-1.936-.116-.351-.475-.391-.755-.373-.537.04-1.016.38-1.327.876a.386.386 0 00-.026.034c-.345-.327-.78-.495-1.234-.547-.016-.006-.032-.014-.051-.018a2.728 2.728 0 00-.577-.347c-.683-.235-1.419.02-2.008.425-.517.328-.809.94-.934 1.611-.032.068-.066.136-.096.206-.13.223-.22.455-.254.692a2.035 2.035 0 00-.073.24c-.076.495-.14 1.113-.012 1.622-.2.24-.444.505-.697.77-.878.885-1.739 1.807-2.687 2.592-.894.62-2.453 1.626-3.73 2.31a67.341 67.341 0 01-3.938 1.955c-1.17.583-1.792.912-2.834 1.325-.168.02-.342.04-.527.06-2.974.415-5.962.603-8.956.763-1.766.113-3.539.016-5.307.032-1.212-.01-2.425-.002-3.637-.044l-.449-.096c.914-.208 1.824-.43 2.736-.641 2.743-.78 5.509-1.523 8.118-2.778 3.038-1.364 5.938-3.088 8.848-4.77 2.2-1.216 4.397-2.448 6.449-3.976 2.172-1.579 4.146-3.489 6.124-5.368 1.878-1.746 3.7-3.574 5.267-5.702.762-1.016 1.529-2.026 2.283-3.048.583-.91 1.314-1.724 1.609-2.834.098-.242.232-.48.208-.755.008-.157-.118-.259-.196-.37-.146-.121-.341-.097-.507-.063-.427.084-.715.467-1.046.753-.511.453-.982.962-1.493 1.413-1.888 1.511-4.05 2.471-6.149 3.521-.28.094-.577.122-.861.195-.477.128-.944.296-1.417.44l.084-.026c-1.653.508-3.289 1.093-4.926 1.662-1.215.353-2.393.818-3.569 1.306-1.119.455-2.247.894-3.325 1.465-3.433 1.63-5.942 4.884-8.411 7.955-1.341 1.801-2.912 3.336-4.413 4.952-.567.599-1.124 1.224-1.782 1.69-.358.246-.733.352-1.108.612-1.016.64-1.992 1.445-3.034 1.994-.712.327-1.495.614-2.246.884-.401.11-.805.22-1.176.431a1.495 1.495 0 00-.48.39c-2.454-.282-4.913-.5-7.372-.71-1.905-.185-3.805-.456-5.71-.64-1.838-.136-2.79-.03-4.755-.22a91.26 91.26 0 01-1.956-.205 377.482 377.482 0 01-4.952-.673c-.954-.104-1.909-.213-2.863-.32.484 0 .968-.005 1.452-.013 1.772-.044 3.542-.214 5.307-.369 2.625-.324 5.217-.934 7.753-1.751 1.928-.676 3.89-1.237 5.78-2.04 1.406-.623 2.75-1.413 4.074-2.233 1.933-1.188 3.857-2.427 5.55-4.038 2.129-2.016 4.189-4.168 5.923-6.647.24-.355.433-.75.629-1.139a.23.23 0 00.04-.172c-.046-.367-.555-.216-.773-.2-.548.068-1.093.164-1.638.258-2.16.379-4.323.744-6.49 1.078-.771.024-3.303.501-4.628 1.088-.92.34-1.856.658-2.68 1.247-1.222.802-2.297 1.852-3.442 2.784-1.11.863-2.102 1.907-3.2 2.787a270.044 270.044 0 01-4.72 3.407c-1.781 1.012-3.57 2.048-5.42 2.81-1.532.557-2.213.802-3.673 1.112a45.699 45.699 0 01-4.344.36c-.89.04-2.949-.155-4.316.029-.589.148-1.287.2-1.757.661a75.103 75.103 0 00-3.799-.11 21.203 21.203 0 00-2.389-.218c.45-.048.898-.12 1.337-.255 1.516-.41 2.861-1.343 4.218-2.182.745-.437 1.491-.872 2.203-1.377a2.05 2.05 0 00.225-.152c.476.258 1.015.346 1.523.186.568-.165 1.141-.483 1.466-1.064.443-.936.615-2.257.09-3.205-.014-.06-.03-.12-.05-.18.125.016.257.01.384-.02.174.018.417-.086.498-.183.075-.068.084-.18.062-.28l-.002-.012c.006-.018.016-.032.02-.052a1.464 1.464 0 00-.23-.748c-.398-.623-1.16-.124-1.384.471-.376-.19-.79-.21-1.2-.12a1.929 1.929 0 00-1.465.761c-.385.323-.72.74-.87 1.273-.207.707-.355 1.786.265 2.25a3.1 3.1 0 00.085.207c.029.06.063.114.1.166l-.104.117c-.717.527-.954.667-1.927 1.272-1.14.73-2.353 1.621-3.26 2.046-1.21.59-2.47.6-3.89.866-.418.088-.832.207-1.24.349-.825.096-1.645.232-2.463.395-.692.042-1.382.122-2.075.17-.299.012-.599.018-.898.024 1.215-.45 2.439-.878 3.57-1.565 1.397-.814 2.648-1.898 3.815-3.092.906-.89 1.824-1.772 2.613-2.804.908-1.189 1.712-2.47 2.486-3.776 1.406-1.978 2.74-4.032 3.752-6.32l1.23-2.81c.397-.81.814-1.632.87-2.59.15-2.182.56-4.332.604-6.525.016-1.056-.24-2.078-.514-3.08-.261-.479-1.157-.078-1.432.228a.535.535 0 00-.151.445c.002.089.008.179.02.267l.01.078c.007.349-.042.693-.095 1.034-.128.85-.212 1.088-.673 1.786a15.719 15.719 0 01-1.458 1.811c-1.284 1.351-2.606 2.656-3.85 4.059-1.143 1.174-2.135 2.56-2.75 4.198-.446 1.076-.65 2.25-.978 3.379-.545 1.776-1.232 4.47-1.644 5.808-.378.922-.927 1.735-1.339 2.635-.48.988-.95 2.004-1.647 2.812-.463.527-.915 1.07-1.418 1.547-.29.26-.611.465-.926.681-.991.668-1.98 1.33-2.985 1.994l-.082.044c-1.31.233-2.562.748-3.827 1.177-1.645.533-3.295 1.052-4.84 1.9l.255-.12c-1.206.597-2.465 1.03-3.68 1.599a29.425 29.425 0 00-4.302 2.773c-2.566 2.15-5.054 4.435-7.38 6.922-.8.904-1.533 1.88-2.297 2.824 1.042-1.864 2.138-3.69 3.014-5.667.786-1.53 1.804-2.882 2.677-4.345 1.036-1.816 2.263-3.179 3.745-4.962 1.383-1.513 3.853-3.63 5.04-4.76 2.177-2.004 4.38-4.004 6.3-6.343.826-1.082 1.534-2.278 2.271-3.443.696-1.28 1.448-2.577 1.777-4.062.213-1.267-.013-2.53-.04-3.661.032-2 .009-4.033-.383-5.999.116 2.099-.124 4.193-.396 6.257-.104 1.2-.047 2.431-.354 3.597-.43 1.39-1.519 3.163-2.46 4.612-.71 1.07-1.287 2.048-1.843 2.711-2.239 2.646-4.792 4.9-7.285 7.21-.957.883-2.796 2.456-4.058 3.9-1.097 1.301-2.186 2.614-3.166 4.033-.476.772-.939 1.555-1.426 2.317-.555.898-1.148 1.765-1.668 2.693-.393.868-.8 1.728-1.24 2.567-.877 1.644-1.82 3.245-2.67 4.91.287-.795.575-1.607.857-2.453 1.062-2.573 2.373-6.158 3.69-8.992l.168-.359-.498.826a75.117 75.117 0 00-2.826 5.481c-1.082 2.169-2.01 4.427-2.86 6.732.575-2.07 1.12-4.153 1.797-6.175.633-1.65 1.912-4.166 2.795-6.098.473-.98.903-1.99 1.394-2.958.676-1.21 1.47-2.329 2.223-3.477 2.128-3.082 4.926-5.92 7.745-8.768 1.21-1.232 2.462-2.409 3.648-3.671.685-.814 1.294-1.708 1.993-2.505 2.878-3.337 5.018-7.12 5.942-11.78l.101-.395c-.157.377-.3.76-.446 1.14a33.011 33.011 0 01-2.051 4.373c-1.155 2.06-2.568 3.91-4.051 5.658-.48.553-.967 1.1-1.428 1.675-.548.687-1.04 1.439-1.649 2.058-3.871 3.972-7.982 7.726-11.213 12.437-.643 1.008-1.323 1.986-1.916 3.036-.688 1.323-1.24 2.738-1.888 4.089-.84 1.862-1.783 3.677-2.395 5.665-.769 2.882-1.208 5.868-1.807 8.802-.053.14-.104.279-.155.419-.241.35-.48.707-.714 1.064l-.415.567c-.351.485-.653 1.016-.983 1.521-.534.848-1.002 1.752-1.506 2.624-.912 1.605-1.784 3.25-2.52 4.976-.742 1.932-1.392 3.92-1.88 5.962-.37 1.01-.73 2.026-1.096 3.04.27-.565.537-1.13.802-1.697a33.36 33.36 0 00-.305 1.733 49.166 49.166 0 011.442-4.176 98.687 98.687 0 011.9-3.88 277.062 277.062 0 015.525-9.147l.452-.695c.27-.25.46-.623.65-.986.544-.822 1.097-1.636 1.66-2.441 1.233-1.129 2.467-2.255 3.746-3.313.816-.7 1.634-1.415 2.554-1.928 1.725-.743 2.504-.843 3.523-1.19 3.296-1.048 6.371-1.483 9.387-1.026 2.313.066 4.616.328 6.89.871 1.13.231 2.273.37 3.395.666 1.584.357 3.168.705 4.755 1.042 1.349.178 2.697.347 4.047.513 1.47.204 2.91.457 4.394.365 1.447-.064 2.907.01 4.344-.215 1.896-.39 3.663-1.338 5.374-2.314 1.258-.758 2.537-1.473 3.735-2.353.166-.12.333-.24.499-.363.07-.03.138-.064.206-.104.47-.259.841-.683 1.225-1.078.086-.102.206-.179.245-.319.105-.286-.22-.363-.41-.34-.33.005-.584.188-.822.404h-.002c.057-.052.035-.032 0 0h-.003a.57.57 0 00-.027.028c-.028.024-.054.05-.055.05-.087.076-.171.163-.256.247-.056.05-.112.1-.17.146-.115.094-.232.184-.349.275-.629-.008-1.36 0-2.026.05-1.303.052-2.61.2-3.917.098-.844-.11-1.572-.393-2.657-.651a32.154 32.154 0 01-5.415-1.884c-.665-.295-1.277-.732-1.945-1.016-1.01-.437-2.049-.776-3.075-1.153-1.994-.683-3.985-1.418-6.011-1.952-.837-.116-1.682-.044-2.522-.054-.901-.002-1.804-.022-2.703.044-2.485.173-4.913.818-7.268 1.698-3.29 1.138-6.46 2.74-9.355 4.862-1.356.988-2.627 2.116-3.841 3.322-.813.624-1.529 1.403-2.224 2.201 1.714-2.124 3.546-4.112 5.555-5.868 4.896-4.373 10.673-7.253 16.664-9.024 1.89-.613 3.797-1.165 5.73-1.575.775-.053 1.755-.173 2.234-.183l-.012.008.015-.008a1.08 1.08 0 01.228.008c2.108.16 3.56.028 5.261.173 1.927.08 3.846.396 5.774.364.74.002 1.4-.04 1.985-.058.122.042.246.084.368.128 1.364.475 2.742.914 4.08 1.481 2.069.904 4.052 2.045 6.027 3.197 1.793.99 3.324 1.912 4.858 2.974.908.6 1.805 1.224 2.634 1.964.134.13.269.256.403.385a4.021 4.021 0 00-.921 1.056c-.456.962.03 2.245.82 2.78.725.627 1.533 1.116 2.457 1.036a6.088 6.088 0 003.215-1.087c.03.05.065.09.103.127.051.078.11.148.171.21a.936.936 0 00.225.347c.728.615 2.084-.058 2.185-1.082.034-.343-.057-.722-.327-.912-.039-.032-.08-.058-.12-.086a1.556 1.556 0 00-.141-.209.877.877 0 00-.574-.34c.176-.969-.31-1.955-1.234-2.28a4.65 4.65 0 00-1.026-.266 4.216 4.216 0 00-3.448-.102l-.025.01c-.9-.75-1.948-1.373-2.664-1.842-2.323-1.619-4.769-2.964-7.203-4.332-1.917-1.087-3.874-2.093-5.913-2.816 1.107.096 2.216.158 3.326.198a62.438 62.438 0 015.784.23c.923.111 1.846.227 2.77.335.315.05.631.099.947.147.275.038.549.084.822.132.995.217 1.954.62 2.934.912.64.2 1.303.286 1.924.569.87.345 1.38.806 2.26 1.457 1.968 1.399 3.645 3.25 5.228 5.18 1.155 1.41 2.445 2.656 3.64 4.017 1.824 2.308 3.637 4.653 5.756 6.611 1.176 1.072 2.329 2.212 3.672 2.994 1.344.758 2.753 1.393 4.216 1.734 1.605.328 3.243.332 4.854.603.71.148 1.419.334 2.1.617.207.353.387.768.934.724.287-.03.589-.155.768-.425a.244.244 0 00.03-.19c-.062-.197-.108-.426-.265-.554a5.12 5.12 0 00-.499-.292c-.807-1.145-1.896-2.542-2.759-3.772-1.744-2.377-3.463-4.792-5.391-6.976-2.445-2.621-5.161-4.888-8.016-6.864-3.26-2.209-6.89-3.535-10.516-4.63-2.066-.62-4.15-1.156-6.253-1.539l.204.006c.655.066 1.31.133 1.965.197.74.09 1.48.19 2.22.276 1.8.265 3.608.427 5.417.558 1.556.228 3.122.32 4.68.525.228.022.455.048.681.076l-.103.02c-.145-.022-.29-.046-.435-.066-.701-.075-1.417-.235-2.116-.099.39-.054.777.042 1.16.12 1.175.247 2.328.612 3.487.94.97.293 1.927.467 2.883.766.826.277 1.611.7 2.411 1.064 1.196.636 2.407 1.245 3.595 1.902.203.084.612.4 1.056.65-.971.723-1.378 1.881-.597 2.968-.018.246-.02.492.022.737.137.56.584.932 1.008 1.188.972.602 2.153.566 3.157.14.244-.09.493-.236.729-.422.664.43 1.648.288 2.257-.259.361-.126.721-.326.868-.733.064-.247.072-.461.042-.648-.076-.48-.435-.747-.884-.791-.048-.058-.1-.11-.152-.159.076-.176.134-.362.168-.559.016-.444-.172-.86-.433-1.196-.248-.866-.912-1.547-1.733-1.593a7.253 7.253 0 00-1.728.108c-.423.03-.838.132-1.22.319-.053.02-.103.038-.149.058-.375-.155-.735-.359-1.1-.541-2.437-1.16-4.846-2.578-7.467-3.044-1.605-.245-3.198-.594-4.802-.846.048-.004.095-.01.142-.016 1.844.234 3.636.663 5.472.994 1.589.286 4.657.12 5.348.048 2.291.016 3.952.218 6.546-.088.823-.127 1.655-.123 2.477-.255.453-.06.875-.122 1.298-.186.02.02.046.04.078.058.289.058.574.018.86-.04.381-.002.708-.01 1.263.05.541.096.707.214 1.453.35.713.083 1.537.13 2.575.155 1.934.02 3.429-.118 4.992.499 1.718.613 3.748 1.405 4.946 2.309.732.509 1.289 1.284 1.99 1.84.994.737 2.062 1.384 3.169 1.857 1.523.51 3.112.575 4.673.806 1.617.088 3.247.379 4.858.142 3.184-.503 5.79-1.309 8.661-1.557 1.061.03 2.193-.32 2.351-1.325.058-.082.058-.216-.016-.286-.333-.239-.655-.5-1.002-.71-1.483-.89-3.074-1.499-4.635-2.168-3.435-1.377-6.922-2.608-10.498-3.351-1.585-.369-3.19-.577-4.789-.838-1.401-.228-2.806-.409-4.217-.46a29.78 29.78 0 00-2.276-.055c.212-.07.426-.142.637-.218.617-.235 1.256-.59 1.812-.826 1.198-.399 2.428-.685 3.637-1.052a15.901 15.901 0 002.291-.82c.09-.038.178-.08.266-.126a84 84 0 001.806-.633c.403-.072.781-.12 1.124-.209 1.479-.334 2.94-.773 4.429-1.048.329-.056.657-.11.986-.164 1.561-.255 3.146-.235 4.714-.439a21.125 21.125 0 004.821-1.299c1.776-.78 3.487-1.733 5.255-2.535 1.232-.605 2.497-1.142 3.671-1.892a17.677 17.677 0 005.782-6.324c1.513-2.776 3.149-5.494 5.189-7.786.789-.864 1.529-1.798 2.385-2.575.484-.461 1.078-.736 1.571-1.179.114-.092.256-.228.22-.409z" fill="#100F0D"/></svg>