<svg width="184" height="77" viewBox="0 0 184 77" fill="none" xmlns="http://www.w3.org/2000/svg">
<path d="M179.031 8.85323C177.207 10.7932 175.582 12.9596 174.161 15.3083C173.069 17.0699 172.04 19.1562 170.982 20.3987C169.91 21.7494 168.614 22.8456 167.241 23.7555C165.654 24.6914 163.968 25.3928 162.329 26.1964C160.13 27.3006 158.265 28.3087 155.834 28.7937C154.114 29.2125 152.337 29.1063 150.601 29.3789C149.611 29.5111 148.631 29.7055 147.657 29.934C150.22 28.7556 152.709 27.3728 155.148 25.8898C159.625 23.1883 163.934 20.072 167.796 16.3063C168.076 16.0358 168.359 15.7653 168.64 15.4947C168.309 15.7532 167.976 16.0097 167.646 16.2683C163.716 19.3806 159.575 22.1282 155.383 24.7475C152.385 26.5912 149.326 28.3348 146.13 29.6875C144.954 30.1865 143.767 30.6434 142.573 31.0723C142.717 30.8859 142.899 30.7276 143.05 30.5753C143.867 29.7857 144.849 29.2987 145.797 28.7556C147.128 27.978 148.503 27.2886 149.789 26.4109C151.629 25.0601 153.433 23.6132 155.064 21.9378C156.126 20.7173 157.12 19.4187 158.186 18.2022C159.166 17.1641 160.172 16.156 161.152 15.1139C162.223 14.0899 163.563 13.0337 164.864 11.7471C166.207 10.3904 167.884 9.24804 169.585 8.45042C170.327 8.11574 171.036 7.6528 171.826 7.47845C173.271 7.15379 174.754 7.13176 176.219 6.97344C177.93 6.8031 179.642 6.64677 181.361 6.63475C180.512 7.26402 179.74 8.01553 179.031 8.85323ZM136.597 36.4833C140.12 36.9863 143.647 37.5514 147.088 38.6176C149.417 39.3491 151.717 40.2168 153.99 41.1587C155.317 41.7199 157.15 42.5215 158.068 43.1267C158.295 43.2811 158.513 43.4534 158.735 43.6197C158.748 43.6298 158.762 43.6378 158.774 43.6478C158.756 43.7019 158.738 43.754 158.721 43.7981C158.633 43.8041 158.527 43.8061 158.453 43.8101C157.543 43.8262 156.645 44.0266 155.743 44.1308C153.864 44.4194 151.381 45.0386 149.835 45.2791C148.24 45.5617 146.625 45.233 145.024 45.1228C143.463 44.8743 141.851 44.7661 140.715 44.3432C139.981 44.0626 139.316 43.5997 138.623 43.2129C138.557 43.1788 137.817 42.6898 137.446 42.3391C136.859 41.768 136.318 41.1227 135.651 40.6758C134.55 39.9102 133.356 39.3531 132.144 38.8882C131.019 38.4773 129.903 37.9883 128.727 37.84C126.739 37.6476 124.999 37.844 123.382 37.6957C123.983 37.5595 124.584 37.4212 125.199 37.3971C127.939 37.2949 130.673 37.82 133.41 37.9963C135.178 38.0905 136.881 38.6777 138.603 39.1206C139.761 39.4232 140.953 39.4392 142.13 39.4252C142.755 39.4272 143.374 39.3571 143.996 39.307C143.553 39.299 143.108 39.309 142.665 39.2829C141.42 39.1928 140.158 39.0946 138.959 38.6457C137.997 38.309 137.04 37.9342 136.066 37.6456C135.266 37.4332 134.452 37.327 133.641 37.2228C131.532 37.0083 129.42 36.6977 127.306 36.6236C127.787 36.5674 128.268 36.4953 128.747 36.4111C131.358 36.1767 133.981 36.1426 136.597 36.4833ZM130.849 35.3109C131.372 35.1927 131.893 35.0724 132.416 34.9482C131.534 35.2147 130.693 35.4351 129.865 35.6075C129.731 35.6195 129.596 35.6295 129.462 35.6416C129.923 35.5334 130.386 35.4231 130.849 35.3109ZM100.033 36.6797C100.876 36.365 101.698 35.9502 102.507 35.5534C104.245 34.6455 106.015 33.8199 107.772 32.9581C108.722 32.4691 109.722 32.1104 110.654 31.5773C111.943 30.8218 113.151 29.9019 114.368 29.0061C117.103 26.9339 119.801 24.7936 122.482 22.6292C122.781 22.4047 123.079 22.1803 123.378 21.9558C122.889 22.2664 122.394 22.5651 121.917 22.9038C118.099 25.487 114.396 28.2907 110.59 30.9C109.744 31.4591 108.808 31.7978 107.914 32.2387C105.662 33.3249 103.413 34.4291 101.177 35.5614C100.337 35.9382 99.4705 36.3049 98.5633 36.3951C98.3951 36.4191 98.2352 36.375 98.0811 36.3069C98.1146 36.2949 98.1501 36.2829 98.1913 36.2748C99.495 35.872 100.812 35.4211 102.008 34.6977C102.882 34.1345 103.726 33.5133 104.608 32.9661C105.015 32.7477 105.455 32.5593 105.852 32.2467C107.031 31.3428 107.999 30.1344 109.055 29.0582C110.828 27.3007 112.353 25.2525 113.959 23.2985C115.315 21.6312 116.77 20.0419 118.464 18.8355C119.472 18.1782 120.528 17.6391 121.608 17.1861C123.282 16.5048 124.941 15.7633 126.666 15.2602C128.61 14.5708 131.059 13.7051 132.715 13.2361C133.657 13.1139 134.486 12.5888 135.346 12.178C136.863 11.4345 138.362 10.6329 139.773 9.64687C140.358 9.24806 140.889 8.75905 141.41 8.25804C141.296 8.76106 140.893 9.29012 140.495 9.88532C139.947 10.731 139.559 11.202 138.873 12.1259C137.603 13.8173 136.348 15.5408 134.881 17.0058C132.637 19.2163 130.929 20.8736 128.695 22.8416C125.161 25.9479 121.017 27.8958 117.101 30.2566C114.927 31.4631 113.353 32.3248 111.263 33.2607C109.654 33.9822 107.991 34.5333 106.331 35.0844C104.822 35.5754 103.822 35.9101 102.361 36.3069C101.796 36.4752 101.229 36.6396 100.662 36.7999C100.453 36.7578 100.243 36.7177 100.033 36.6797ZM90.7426 39.3731C92.7635 40.1627 94.7722 41.0245 96.6662 42.1768C98.2833 43.1808 100.439 44.8342 102.143 46.3292C103.548 47.5777 104.926 48.8804 106.169 50.3454C107.846 52.3855 109.411 54.5439 110.971 56.7043C111.556 57.5179 112.141 58.3316 112.734 59.1372C112.446 59.0771 112.157 59.025 111.87 58.9789C110.409 58.7985 108.933 58.7404 107.488 58.4197C106.093 58.0209 103.61 56.9748 102.251 55.7343C100.636 54.3415 99.0673 52.8705 97.6474 51.2131C96.5412 49.9325 95.5029 48.5758 94.4433 47.2431C93.9257 46.5958 93.3273 46.0467 92.7661 45.4535C91.8074 44.4013 90.8601 43.3352 89.9428 42.2329C89.3989 41.6017 88.837 40.9864 88.2522 40.4052C91.9098 42.5576 95.4588 45.4474 99.108 48.0427C100.714 49.3032 102.363 50.4857 103.946 51.7863C103.986 51.8164 104.215 52.0148 104.021 51.8264C103.033 50.7762 101.982 49.8103 100.936 48.8403C96.5807 44.8703 91.9643 41.2068 86.8988 38.5795C86.1387 38.1867 85.3721 37.804 84.5984 37.4432C84.2745 37.2148 83.9436 37.0043 83.5995 36.826C86.0034 37.5775 88.3784 38.4653 90.7426 39.3731ZM73.0872 31.0382C75.1031 30.1925 77.1204 29.0843 79.0309 27.962C80.8243 26.6794 82.6524 25.4469 84.3946 24.0721C85.4511 23.0821 86.5421 22.1442 87.6502 21.2324C88.5289 20.4648 89.4923 19.597 90.3999 18.9878C91.0108 18.5649 91.6966 18.3605 92.4196 18.0799C93.2918 17.7573 93.2399 17.7573 94.083 17.5228C94.4652 17.4387 94.8483 17.3585 95.2309 17.2763C97.4825 17.0018 99.7194 16.603 101.958 16.2262C102.471 16.15 103.371 15.9837 104.155 15.8635C103.928 16.3084 103.65 16.7132 103.363 17.108C101.898 19.0098 99.2621 21.9738 97.0566 23.7996C95.8003 24.8377 94.4457 25.7054 93.087 26.5511C91.8976 27.2947 90.6959 28.0201 89.4416 28.6093C87.5798 29.427 85.6401 29.9821 83.737 30.6574C81.8245 31.2887 79.2862 31.9421 77.0471 32.2567C74.7793 32.5393 72.4962 32.6736 70.2136 32.7557C71.6639 32.5032 73.0828 32.0703 74.4929 31.6214C76.3252 31.0663 78.1401 30.447 79.9431 29.7817C82.6111 28.7316 85.1894 27.3929 87.792 26.1503C88.2115 25.9499 89.0911 25.5391 89.6562 25.2665C89.2294 25.4288 88.8025 25.5912 88.376 25.7555C86.482 26.483 84.612 27.2886 82.7276 28.0462C79.4736 29.433 75.7771 30.5693 72.6395 31.5372C71.5104 31.892 70.3599 32.1004 69.1995 32.2286C70.5204 31.9521 71.8114 31.5072 73.0872 31.0382ZM42.8403 32.9381C42.4289 32.9561 42.0182 32.9862 41.6096 33.0403C43.9608 31.7136 46.2915 30.3328 48.5413 28.7977C50.776 27.0401 52.8412 24.9018 54.3486 22.2905C55.0001 21.1001 55.3861 19.7493 55.8663 18.4587C56.223 17.4627 56.5152 16.4326 56.9744 15.4927C56.1326 16.8414 55.524 18.3625 54.822 19.8115C53.9123 22.0019 52.6235 23.7775 51.0848 25.3928C49.8395 26.7275 48.6647 27.8538 47.2544 28.8979C47.631 28.4851 47.9845 28.0461 48.2851 27.5511C48.7114 26.8818 49.0759 26.1623 49.4629 25.4629C49.8479 24.7615 50.2998 24.1002 50.6094 23.3466C51.0295 22.1863 51.3139 20.9638 51.6716 19.7754C51.964 18.7353 52.3105 17.7192 52.5981 16.6791C53.1666 14.0357 54.1158 12.0056 55.7567 10.3102C57.0134 8.87129 58.3461 7.52456 59.6568 6.15178C60.2125 5.51448 60.7859 4.86715 61.2657 4.14368C61.258 4.66674 61.2125 5.21188 61.1382 5.82913C61.018 6.90932 60.8941 7.98949 60.7773 9.06968C60.7039 9.79315 60.7001 10.5346 60.5195 11.2361C60.4418 11.6409 60.0542 12.2621 59.773 12.9596C59.1648 14.3544 58.585 15.7672 57.8958 17.11C57.0603 18.7854 56.0078 20.2904 54.9913 21.8195C54.527 22.6252 54.0683 23.4348 53.5588 24.2044C52.6468 25.6232 51.6936 26.6914 50.3619 28.0061C49.3315 29.0943 48.1779 30.1685 47.0432 30.9C45.8706 31.6916 44.6552 32.1064 43.3884 32.6876C43.2094 32.7697 43.0263 32.8539 42.8403 32.9381ZM28.011 39.4433C28.5209 39.1366 29.0704 38.832 29.6986 38.5033C29.7734 38.4713 29.8483 38.4372 29.9237 38.4072C29.2796 38.7378 28.6413 39.0825 28.011 39.4433ZM14.4407 53.2392C14.0016 53.7142 13.5675 54.1972 13.1339 54.6802C13.295 54.4517 13.4595 54.2253 13.6226 53.9988C14.1914 53.4296 14.7656 52.8665 15.3377 52.3034C15.0385 52.618 14.7405 52.9326 14.4407 53.2392ZM17.1528 50.4797C17.4839 50.167 17.8146 49.8544 18.1428 49.5357C18.2001 49.4816 18.2587 49.4275 18.3162 49.3714C18.6711 49.0668 19.0404 48.7842 19.4469 48.5437C20.4503 47.9906 21.6355 47.2671 22.552 46.7982C23.4856 46.3914 24.5125 46.1168 25.6061 45.7961C28.5984 44.9665 31.4269 44.4013 34.4575 44.221C36.6137 44.1208 38.7745 43.9404 40.9344 44.0166C42.321 44.1428 43.6874 44.4875 45.0614 44.738C45.1089 44.746 45.1564 44.756 45.2037 44.766C45.1586 44.75 45.1137 44.734 45.0688 44.718C44.7131 44.5957 44.3574 44.4735 44.0014 44.3532C43.2407 44.1047 42.484 43.8302 41.709 43.6478C40.6232 43.3993 39.5146 43.4073 38.4153 43.3652C36.6742 43.3111 34.9293 43.283 33.1943 43.4414C31.2051 43.6378 29.2379 44.0446 27.2922 44.5336C25.6322 44.9524 23.9716 45.4214 22.3702 46.0707C22.1375 46.1789 21.9088 46.2972 21.6824 46.4194C22.4455 45.8142 23.2261 45.239 24.0253 44.6979C26.5883 42.9765 29.3618 41.7018 32.2148 40.7559C34.4749 39.9303 36.8291 39.4052 39.2131 39.3571C40.5739 39.3812 41.9437 39.287 43.3008 39.4312C43.7315 39.5174 44.9337 39.9563 45.749 40.2209C47.8416 40.9183 49.9335 41.6317 51.9904 42.4654C52.8318 42.8281 53.6001 43.3853 54.4508 43.7219C56.9327 44.8222 59.5299 45.5056 62.12 46.1308C63.583 46.3032 65.0533 46.1369 66.5157 46.0827C66.9408 46.0266 67.3785 46.0386 67.8139 46.0386C67.6065 46.1849 67.3989 46.3292 67.1919 46.4775C65.4892 47.4154 62.2549 49.7341 59.679 49.9546C58.0341 50.0247 56.3836 50.0688 54.7362 50.0247C52.6532 49.7582 50.5726 49.4355 48.4879 49.175C45.9756 48.7581 43.508 47.9886 40.9956 47.5697C39.4642 47.3132 37.9584 46.8583 36.4137 46.728C35.3319 46.5617 34.2437 46.5417 33.1567 46.4836C31.952 46.3593 30.7448 46.203 29.5365 46.2871C26.3116 46.4555 23.1684 47.3854 20.1385 48.5898C19.0108 48.9766 18.0356 49.68 17.1282 50.5057C17.1364 50.4957 17.1446 50.4877 17.1528 50.4797ZM183.221 5.94135C183.081 5.6708 182.754 5.79905 182.532 5.79304C181.967 5.81909 181.399 5.80307 180.836 5.82111C179.397 5.82511 177.971 6.02352 176.54 6.13174C175.033 6.29006 173.509 6.33816 172.024 6.67084C170.992 6.87926 170.066 7.44839 169.107 7.8993C167.157 8.82318 165.353 10.0918 163.768 11.691C162.515 12.9375 161.539 13.649 160.176 14.9576C159.19 16.0098 158.18 17.0298 157.192 18.0799C156.148 19.2804 155.172 20.557 154.14 21.7694C152.557 23.4047 150.823 24.8457 149.078 26.2405C147.833 27.1303 146.517 27.8838 145.254 28.7396C144.433 29.2566 143.609 29.7897 142.931 30.5452C142.799 30.7035 142.613 30.8939 142.483 31.1044C138.304 32.5954 134.023 33.6996 129.725 34.6576C128.017 35.1085 126.274 35.3249 124.538 35.6035C123.616 35.7558 122.903 35.864 122.197 35.9602C122.72 35.7117 123.157 35.4933 123.328 35.4031C126.228 34.0844 129.097 32.6255 131.733 30.6996C132.621 29.91 133.468 29.1063 134.308 28.2526C134.448 28.6173 134.653 28.944 134.935 29.2005C135.442 29.5131 136.152 29.5512 136.881 29.3869C136.969 29.439 137.06 29.4871 137.152 29.5292C138.015 29.8438 139.12 29.5472 139.659 28.6915C139.867 28.2706 139.885 27.7776 139.963 27.3107C140.042 26.7676 140.082 26.1984 139.977 25.6533C139.965 25.519 139.951 25.3848 139.939 25.2525C140.244 25.2565 140.673 25.1363 140.705 24.9178C140.789 24.8757 140.869 24.8276 140.945 24.7755C141.481 24.3827 141.585 23.5049 141.398 22.8396C141.282 22.4889 140.923 22.4488 140.643 22.4668C140.106 22.5069 139.627 22.8476 139.316 23.3426C139.306 23.3546 139.298 23.3647 139.29 23.3767C138.945 23.05 138.51 22.8817 138.056 22.8296C138.04 22.8236 138.024 22.8155 138.005 22.8115C137.823 22.6712 137.631 22.553 137.428 22.4649C136.745 22.2304 136.009 22.4849 135.42 22.8897C134.903 23.2184 134.611 23.8296 134.486 24.501C134.454 24.5691 134.42 24.6373 134.39 24.7074C134.26 24.9299 134.17 25.1623 134.136 25.3988C134.108 25.475 134.082 25.5571 134.063 25.6393C133.987 26.1343 133.923 26.7515 134.051 27.2606C133.851 27.501 133.607 27.7656 133.354 28.0301C132.476 28.9159 131.615 29.8378 130.667 30.6234C129.773 31.2426 128.214 32.2487 126.937 32.9321C125.424 33.7397 124.578 34.1546 122.999 34.8881C121.829 35.4712 121.207 35.7999 120.165 36.2127C119.997 36.2328 119.823 36.2528 119.638 36.2729C116.664 36.6877 113.676 36.8761 110.682 37.0364C108.916 37.1486 107.143 37.0524 105.375 37.0684C104.163 37.0584 102.95 37.0665 101.738 37.0244C101.59 36.9923 101.439 36.9602 101.289 36.9282C102.203 36.7197 103.113 36.4973 104.025 36.2869C106.768 35.5073 109.534 34.7638 112.143 33.5092C115.181 32.1445 118.081 30.421 120.991 28.7396C123.191 27.5231 125.388 26.2906 127.44 24.7635C129.612 23.1843 131.586 21.2744 133.564 19.3946C135.442 17.6491 137.264 15.8214 138.831 13.693C139.593 12.677 140.36 11.6669 141.114 10.6449C141.697 9.73503 142.428 8.92137 142.723 7.81112C142.821 7.56863 142.955 7.33016 142.931 7.0556C142.939 6.89928 142.813 6.79707 142.735 6.68685C142.589 6.5646 142.394 6.58866 142.228 6.62273C141.801 6.7069 141.513 7.08967 141.182 7.37625C140.671 7.82917 140.2 8.3382 139.689 8.78912C137.801 10.3002 135.639 11.2601 133.54 12.3102C133.26 12.4044 132.963 12.4325 132.679 12.5047C132.202 12.6329 131.735 12.8013 131.262 12.9456L131.346 12.9195C129.693 13.4265 128.057 14.0117 126.42 14.5809C125.205 14.9336 124.027 15.3985 122.851 15.8875C121.732 16.3424 120.604 16.7813 119.526 17.3525C116.093 18.9818 113.584 22.2364 111.115 25.3066C109.774 27.1082 108.203 28.6434 106.702 30.2587C106.135 30.8579 105.578 31.4831 104.92 31.9481C104.562 32.1946 104.187 32.3008 103.812 32.5613C102.796 33.2006 101.82 34.0062 100.778 34.5553C100.066 34.882 99.2827 35.1686 98.5318 35.4392C98.1308 35.5494 97.7272 35.6596 97.3558 35.87C97.1668 35.9662 96.9985 36.1085 96.8769 36.2608C94.4223 35.9783 91.9635 35.7598 89.5043 35.5494C87.599 35.365 85.6994 35.0945 83.7943 34.9101C81.9564 34.7738 81.0031 34.88 79.0393 34.6896C78.3868 34.6295 77.7348 34.5594 77.0833 34.4852C75.4318 34.2728 73.781 34.0463 72.1307 33.8118C71.1765 33.7076 70.2222 33.5994 69.2677 33.4912C69.7521 33.4912 70.2362 33.4872 70.72 33.4792C72.492 33.4351 74.2616 33.2647 76.0272 33.1104C78.6519 32.7858 81.2438 32.1765 83.7801 31.3589C85.7078 30.6835 87.6694 30.1224 89.5604 29.3187C90.9661 28.6955 92.31 27.9059 93.6343 27.0862C95.5666 25.8978 97.4907 24.6593 99.1845 23.048C101.313 21.0319 103.373 18.8796 105.107 16.4006C105.347 16.0458 105.54 15.651 105.736 15.2622C105.772 15.2101 105.786 15.152 105.776 15.0899C105.73 14.7232 105.221 14.8735 105.003 14.8895C104.455 14.9576 103.91 15.0538 103.365 15.148C101.205 15.5268 99.0415 15.8915 96.8747 16.2262C96.1037 16.2502 93.572 16.7272 92.2469 17.3144C91.3274 17.6531 90.3915 17.9717 89.5664 18.5609C88.3448 19.3625 87.2702 20.4127 86.1253 21.3446C85.0152 22.2083 84.0234 23.2524 82.9248 24.1322C81.362 25.2826 79.7808 26.4309 78.205 27.5391C76.4236 28.5512 74.6348 29.5873 72.7842 30.3488C71.2531 30.906 70.5719 31.1505 69.1118 31.4611C67.6702 31.6435 66.2197 31.7777 64.7682 31.8218C63.8777 31.8619 61.8192 31.6655 60.4522 31.8499C59.8634 31.9982 59.1646 32.0503 58.6952 32.5112C57.4297 32.4451 56.1633 32.403 54.8963 32.401C54.1035 32.2847 53.3069 32.2086 52.5071 32.1826C52.9576 32.1345 53.4049 32.0623 53.8436 31.928C55.3597 31.5172 56.7054 30.5853 58.0616 29.7456C58.8069 29.3087 59.5532 28.8738 60.2654 28.3688C60.3442 28.3247 60.4177 28.2706 60.4899 28.2165C60.966 28.475 61.5055 28.5632 62.0132 28.4029C62.5807 28.2385 63.1541 27.9199 63.4791 27.3387C63.9218 26.4028 64.0944 25.0821 63.5681 24.1342C63.5549 24.0741 63.5381 24.014 63.5194 23.9538C63.6439 23.9699 63.7757 23.9639 63.9028 23.9338C64.0768 23.9518 64.3202 23.8476 64.4014 23.7514C64.4764 23.6833 64.4852 23.5711 64.4625 23.4709C64.4619 23.4669 64.4617 23.4629 64.4611 23.4589C64.4672 23.4408 64.4766 23.4268 64.4814 23.4068C64.4804 23.1442 64.3844 22.8717 64.2503 22.6592C63.8529 22.036 63.0912 22.535 62.8673 23.1302C62.4911 22.9398 62.0761 22.9198 61.6675 23.0099C61.1091 23.034 60.5656 23.2905 60.2019 23.7715C59.8173 24.0941 59.4818 24.511 59.3329 25.0441C59.1249 25.7515 58.9774 26.8297 59.5969 27.2946C59.6233 27.3648 59.6512 27.4329 59.682 27.501C59.7107 27.5612 59.745 27.6153 59.7816 27.6674C59.7502 27.7035 59.7157 27.7416 59.6782 27.7836C58.9606 28.3107 58.7235 28.451 57.7509 29.0562C56.6116 29.7857 55.3976 30.6775 54.4901 31.1024C53.2805 31.6916 52.0213 31.7016 50.6002 31.9681C50.1828 32.0563 49.7691 32.1745 49.3615 32.3168C48.5364 32.413 47.7156 32.5493 46.8983 32.7116C46.2059 32.7537 45.5157 32.8339 44.8235 32.882C44.5243 32.894 44.2245 32.9 43.9249 32.906C45.1398 32.4551 46.3636 32.0283 47.4949 31.3409C48.8918 30.5272 50.1433 29.443 51.3099 28.2486C52.2157 27.3588 53.1338 26.477 53.923 25.4449C54.8312 24.2565 55.6348 22.9759 56.4094 21.6692C57.8151 19.6912 59.1492 17.6371 60.1608 15.3484C60.5706 14.4125 60.9801 13.4746 61.3901 12.5387C61.7875 11.7291 62.2052 10.9074 62.2609 9.94948C62.4112 7.76705 62.8214 5.6167 62.8655 3.42425C62.8807 2.36811 62.6248 1.34602 62.3507 0.343984C62.0899 -0.134987 61.1943 0.265833 60.919 0.572455C60.8045 0.682679 60.7506 0.844992 60.768 1.01734C60.7701 1.10552 60.7759 1.19572 60.7871 1.2839C60.7917 1.31195 60.7947 1.34002 60.7971 1.36206C60.8047 1.71077 60.7562 2.05546 60.7035 2.39615C60.5753 3.24588 60.4913 3.48435 60.0301 4.18177C59.6462 4.74491 59.2151 5.29002 58.572 5.99345C57.2876 7.34419 55.9657 8.64883 54.7222 10.0517C53.5791 11.2261 52.5871 12.6129 51.9718 14.2502C51.5257 15.3264 51.3215 16.5007 50.994 17.629C50.4493 19.4046 49.7623 22.0981 49.3497 23.4368C48.9723 24.3587 48.4232 25.1723 48.0114 26.0722C47.5306 27.0602 47.0617 28.0762 46.364 28.8838C45.9013 29.4109 45.4486 29.954 44.9456 30.431C44.6562 30.6915 44.3349 30.8959 44.0197 31.1124C43.0287 31.7797 42.0409 32.4411 41.0348 33.1064C41.0076 33.1205 40.9801 33.1365 40.9527 33.1505C39.6434 33.383 38.3913 33.898 37.1257 34.3269C35.4814 34.86 33.8308 35.379 32.2857 36.2267C32.3707 36.1867 32.4556 36.1466 32.5406 36.1065C31.335 36.7037 30.0758 37.1366 28.8611 37.7058C27.3721 38.5014 25.915 39.4152 24.5586 40.4794C21.9932 42.6297 19.5052 44.9143 17.1785 47.4014C16.3788 48.3052 15.6458 49.2812 14.8822 50.2251C15.9235 48.3613 17.0201 46.5357 17.8963 44.5577C18.6819 43.0286 19.7002 41.6758 20.5725 40.2128C21.6094 38.3971 22.8363 37.0344 24.3179 35.2508C25.7011 33.7377 28.1706 31.6214 29.3586 30.4911C31.5354 28.4871 33.7382 26.487 35.6571 24.1483C36.4844 23.0661 37.1916 21.8696 37.9291 20.7053C38.6247 19.4247 39.3771 18.1281 39.7063 16.643C39.9192 15.3765 39.6931 14.1139 39.6657 12.9816C39.6979 10.9815 39.6747 8.94945 39.2835 6.98346C39.3989 9.08172 39.159 11.1759 38.8873 13.2401C38.7833 14.4406 38.8402 15.6711 38.533 16.8374C38.1025 18.2262 37.0141 19.9998 36.0726 21.4488C35.3623 22.5189 34.7862 23.4969 34.2304 24.1603C31.9911 26.8056 29.4379 29.0602 26.9445 31.3709C25.9881 32.2527 24.1494 33.8259 22.8866 35.2708C21.7904 36.5715 20.7008 37.8841 19.7208 39.303C19.2448 40.0745 18.7821 40.8581 18.2947 41.6197C17.74 42.5175 17.1466 43.3853 16.6267 44.3131C16.2335 45.1809 15.8261 46.0406 15.3876 46.8803C14.5101 48.5237 13.5663 50.1249 12.7174 51.7903C13.0042 50.9947 13.2922 50.1831 13.5737 49.3373C14.6361 46.7641 15.9472 43.1788 17.2632 40.3451C17.3195 40.2269 17.3757 40.1066 17.432 39.9864C17.2656 40.2609 17.0997 40.5375 16.934 40.8121C15.9285 42.5937 14.9746 44.4134 14.1084 46.2932C13.0256 48.4616 12.0974 50.7202 11.2484 53.0248C11.8232 50.9546 12.3679 48.8724 13.0449 46.8503C13.6784 45.2009 14.9574 42.6838 15.8403 40.7519C16.3131 39.7719 16.7428 38.7619 17.234 37.7939C17.9103 36.5835 18.7041 35.4652 19.4567 34.3169C21.5854 31.2346 24.3831 28.3969 27.2024 25.5491C28.4112 24.3166 29.6642 23.1402 30.8496 21.8776C31.5346 21.064 32.1444 20.1702 32.8432 19.3726C35.7213 16.0358 37.8608 12.2522 38.7855 7.59271C38.8177 7.46244 38.8526 7.33015 38.8861 7.19788C38.7286 7.57465 38.5855 7.95743 38.4398 8.3382C37.8632 9.86129 37.166 11.3162 36.389 12.7111C35.2339 14.7712 33.8206 16.621 32.3376 18.3685C31.8576 18.9217 31.3714 19.4688 30.9101 20.0439C30.3622 20.7313 29.87 21.4829 29.2612 22.1021C25.3895 26.0742 21.279 29.8278 18.048 34.5393C17.4045 35.5474 16.7251 36.5254 16.1323 37.5755C15.4437 38.8982 14.8926 40.313 14.2441 41.6638C13.4034 43.5256 12.4613 45.3412 11.8491 47.3293C11.0803 50.2111 10.641 53.1972 10.042 56.1311C9.98928 56.2714 9.93797 56.4097 9.88727 56.5499C9.64578 56.9007 9.4077 57.2574 9.17282 57.6141C9.03454 57.8025 8.89646 57.9909 8.75818 58.1813C8.40687 58.6662 8.10506 59.1973 7.77499 59.7023C7.24091 60.5501 6.77316 61.4539 6.26934 62.3257C5.35729 63.9309 4.48472 65.5763 3.74963 67.3018C3.00672 69.2337 2.357 71.2217 1.86881 73.2639C1.49946 74.2739 1.13873 75.29 0.773193 76.304C1.04394 75.7389 1.31008 75.1737 1.57482 74.6066C1.46019 75.1797 1.35477 75.7569 1.2698 76.3401C1.68584 74.9172 2.17604 73.5284 2.71212 72.1636C3.32417 70.857 3.94663 69.5563 4.61218 68.2838C6.3958 65.1895 8.24615 62.1433 10.137 59.1372C10.2871 58.9047 10.4382 58.6743 10.5893 58.4418C10.8588 58.1913 11.0496 57.8185 11.2392 57.4558C11.7835 56.6341 12.3362 55.8205 12.8988 55.0148C14.1317 53.8865 15.3658 52.7603 16.6446 51.7021C17.4614 51.0027 18.2787 50.2873 19.1992 49.7742C20.9237 49.0307 21.703 48.9305 22.7223 48.5838C26.0176 47.5357 29.0932 47.1008 32.1093 47.5577C34.4218 47.6239 36.7255 47.8864 38.9983 48.4295C40.1296 48.66 41.2717 48.7982 42.3942 49.0948C43.9776 49.4515 45.5624 49.8003 47.1492 50.1369C48.4976 50.3153 49.8465 50.4837 51.1956 50.65C52.6654 50.8544 54.1061 51.1069 55.5899 51.0147C57.0375 50.9506 58.4974 51.0248 59.9338 50.8003C61.8296 50.4095 63.597 49.4616 65.3083 48.4856C66.5662 47.7281 67.8454 47.0126 69.0428 46.1328C69.2094 46.0126 69.3761 45.8924 69.542 45.7701C69.6114 45.7401 69.6801 45.706 69.7479 45.6659C70.2184 45.4074 70.589 44.9825 70.9729 44.5877C71.0589 44.4855 71.179 44.4093 71.2184 44.2691C71.3229 43.9825 70.998 43.9063 70.808 43.9284C70.4777 43.9344 70.2244 44.1167 69.9859 44.3332C69.9853 44.3332 69.9845 44.3332 69.9839 44.3332C70.0406 44.2811 70.019 44.3011 69.9833 44.3332C69.9823 44.3332 69.9813 44.3332 69.9805 44.3332C69.9669 44.3472 69.9593 44.3552 69.9543 44.3612C69.9264 44.3853 69.9 44.4113 69.8994 44.4113C69.8122 44.4875 69.7276 44.5737 69.6428 44.6579C69.5873 44.708 69.531 44.758 69.4731 44.8041C69.3583 44.8983 69.2408 44.9885 69.124 45.0787C68.4951 45.0707 67.764 45.0787 67.0983 45.1288C65.7946 45.1809 64.4872 45.3292 63.1811 45.227C62.3372 45.1168 61.6092 44.8342 60.5242 44.5757C58.683 44.1087 56.8673 43.4915 55.109 42.6918C54.4438 42.3972 53.832 41.9604 53.1636 41.6758C52.1532 41.2389 51.1155 40.9002 50.0888 40.5235C48.0947 39.8401 46.1043 39.1046 44.0778 38.5715C43.2407 38.4553 42.3956 38.5274 41.5559 38.5174C40.6547 38.5154 39.7522 38.4953 38.8532 38.5615C36.3684 38.7338 33.9404 39.3792 31.5853 40.2589C28.2958 41.3972 25.1248 42.9985 22.2303 45.1208C20.8738 46.1088 19.6032 47.2371 18.3889 48.4435C17.5759 49.0668 16.8602 49.8464 16.1646 50.644C17.8789 48.5197 19.7114 46.5316 21.7201 44.7761C26.6164 40.4032 32.3927 37.5234 38.3837 35.7518C40.2741 35.1386 42.1808 34.5874 44.1131 34.1766C44.8886 34.1245 45.8686 34.0042 46.3484 33.9942C46.3444 33.9962 46.34 34.0002 46.336 34.0022C46.3408 34.0002 46.3458 33.9962 46.3506 33.9942C46.45 33.9902 46.5294 33.9922 46.5789 34.0022C48.6866 34.1626 50.1393 34.0303 51.8403 34.1746C53.7671 34.2547 55.6863 34.5714 57.614 34.5393C58.3549 34.5413 59.0135 34.4992 59.5985 34.4812C59.7213 34.5233 59.8446 34.5654 59.967 34.6095C61.331 35.0844 62.7086 35.5233 64.0469 36.0905C66.1159 36.9943 68.0985 38.1346 70.0743 39.287C71.867 40.277 73.3979 41.1988 74.932 42.261C75.8402 42.8602 76.737 43.4855 77.5663 44.225C77.6996 44.3552 77.8349 44.4815 77.9689 44.6098C77.6078 44.8943 77.2928 45.2651 77.0479 45.6659C76.5925 46.6278 77.0771 47.9105 77.8685 48.4455C78.593 49.0728 79.4006 49.5618 80.3245 49.4816C81.4388 49.4335 82.5799 49.0708 83.5404 48.3954C83.5699 48.4455 83.605 48.4856 83.643 48.5217C83.6943 48.5998 83.7521 48.67 83.814 48.7321C83.8657 48.8644 83.9388 48.9846 84.0392 49.0788C84.7671 49.6941 86.1225 49.0207 86.2243 47.9966C86.2577 47.6539 86.1673 47.2752 85.8968 47.0848C85.8581 47.0527 85.8176 47.0266 85.7774 46.9986C85.7347 46.9244 85.6882 46.8543 85.6359 46.7902C85.476 46.5857 85.2753 46.4815 85.0619 46.4495C85.2379 45.4815 84.7517 44.4955 83.8282 44.1709C83.4935 44.0406 83.1496 43.9544 82.8023 43.9043C81.7269 43.3732 80.4395 43.3492 79.3541 43.8021C79.3471 43.8041 79.3383 43.8081 79.3287 43.8121C78.4282 43.0626 77.3811 42.4393 76.6653 41.9704C74.3418 40.3511 71.8964 39.0064 69.4617 37.6376C67.5448 36.5514 65.588 35.5454 63.5493 34.8219C64.6561 34.9181 65.7646 34.9802 66.8748 35.0203C68.5168 35.0083 70.5134 35.0644 72.6588 35.2508C73.5822 35.361 74.5053 35.4772 75.4288 35.5854C75.7444 35.6355 76.0601 35.6837 76.3757 35.7318C76.6507 35.7698 76.9246 35.8159 77.1976 35.864C78.1934 36.0805 79.1523 36.4833 80.1325 36.7759C80.7724 36.9763 81.4346 37.0625 82.0564 37.345C82.9252 37.6897 83.4368 38.1506 84.3168 38.802C86.284 40.2008 87.9612 42.0526 89.5444 43.9825C90.6991 45.3913 91.9893 46.6379 93.1834 47.9986C95.0081 50.3073 96.821 52.6521 98.9403 54.61C100.116 55.6822 101.269 56.8225 102.612 57.6041C103.956 58.3616 105.365 58.9969 106.828 59.3376C108.433 59.6663 110.071 59.6703 111.682 59.9408C112.392 60.0891 113.101 60.2755 113.782 60.5581C113.989 60.9108 114.169 61.3257 114.716 61.2816C115.003 61.2515 115.305 61.1272 115.484 60.8567C115.52 60.7986 115.53 60.7344 115.514 60.6663C115.452 60.4699 115.406 60.2414 115.249 60.1132C115.087 60.005 114.921 59.9088 114.75 59.8206C113.943 58.6763 112.854 57.2794 111.991 56.0489C110.247 53.6721 108.528 51.2572 106.6 49.0728C104.155 46.4515 101.439 44.1849 98.5841 42.2089C95.3237 40.0004 91.6942 38.6737 88.0682 37.5795C86.002 36.9582 83.9184 36.4232 81.8147 36.0404C81.8829 36.0424 81.9512 36.0444 82.0195 36.0464C82.6743 36.1125 83.3292 36.1787 83.9843 36.2428C84.7242 36.333 85.4635 36.4332 86.2038 36.5193C88.0037 36.7839 89.8117 36.9462 91.6206 37.0765C93.1768 37.3049 94.7427 37.3971 96.3011 37.6015C96.5292 37.6236 96.756 37.6496 96.9825 37.6777C96.948 37.6837 96.9137 37.6917 96.8793 37.6977C96.7344 37.6757 96.5895 37.6516 96.4442 37.6316C95.7426 37.5574 95.0267 37.3971 94.3277 37.5334C94.7171 37.4793 95.1053 37.5755 95.4888 37.6537C96.6626 37.9002 97.8162 38.2649 98.9751 38.5935C99.9449 38.8861 100.902 39.0605 101.858 39.3591C102.684 39.6357 103.469 40.0585 104.269 40.4233C105.465 41.0585 106.676 41.6678 107.864 42.3251C108.067 42.4093 108.476 42.7259 108.92 42.9744C107.949 43.6979 107.542 44.8563 108.323 45.9425C108.305 46.189 108.303 46.4354 108.345 46.6799C108.482 47.2391 108.929 47.6118 109.353 47.8684C110.325 48.4696 111.506 48.4335 112.51 48.0086C112.754 47.9185 113.003 47.7722 113.239 47.5858C113.903 48.0167 114.887 47.8744 115.496 47.3273C115.857 47.201 116.217 47.0006 116.364 46.5938C116.428 46.3473 116.436 46.1328 116.406 45.9464C116.33 45.4655 115.971 45.1989 115.522 45.1548C115.474 45.0967 115.422 45.0446 115.37 44.9965C115.446 44.8202 115.504 44.6338 115.538 44.4374C115.554 43.9925 115.366 43.5776 115.105 43.241C114.857 42.3752 114.193 41.6938 113.372 41.6477C112.828 41.6077 112.215 41.6558 111.644 41.756C111.221 41.786 110.806 41.8882 110.424 42.0746C110.371 42.0947 110.321 42.1127 110.275 42.1327C109.9 41.9784 109.54 41.774 109.175 41.5916C106.738 40.4313 104.329 39.0144 101.708 38.5475C100.103 38.303 98.5104 37.9542 96.9065 37.7017C96.9538 37.6977 97.0009 37.6917 97.0482 37.6857C98.8916 37.9202 100.684 38.3491 102.52 38.6797C104.109 38.9663 107.177 38.8 107.868 38.7278C110.159 38.7439 111.82 38.9463 114.414 38.6396C115.237 38.5134 116.069 38.5174 116.891 38.3851C117.344 38.325 117.766 38.2629 118.189 38.1987C118.209 38.2188 118.235 38.2388 118.267 38.2569C118.556 38.315 118.841 38.2749 119.127 38.2168C119.508 38.2148 119.835 38.2068 120.39 38.2669C120.931 38.3631 121.097 38.4813 121.843 38.6176C122.556 38.6998 123.38 38.7479 124.418 38.7719C126.352 38.7919 127.847 38.6537 129.41 39.2709C131.128 39.8842 133.158 40.6758 134.356 41.5796C135.088 42.0886 135.645 42.8642 136.346 43.4193C137.34 44.1568 138.408 44.8041 139.515 45.2771C141.038 45.7861 142.627 45.8523 144.188 46.0827C145.805 46.1709 147.435 46.4615 149.046 46.225C152.23 45.722 154.836 44.9164 157.707 44.6679C158.768 44.6979 159.9 44.3472 160.058 43.3432C160.116 43.261 160.116 43.1267 160.042 43.0566C159.709 42.8181 159.387 42.5576 159.04 42.3472C157.557 41.4574 155.966 40.8481 154.405 40.1788C150.97 38.802 147.483 37.5715 143.907 36.828C142.322 36.4592 140.717 36.2508 139.118 35.9903C137.717 35.7618 136.312 35.5815 134.901 35.5294C134.142 35.4813 133.382 35.4652 132.625 35.4752C132.837 35.4051 133.051 35.3329 133.262 35.2568C133.879 35.0223 134.518 34.6676 135.074 34.4311C136.272 34.0323 137.502 33.7457 138.711 33.379C139.49 33.1645 140.256 32.894 141.002 32.5593C141.092 32.5212 141.18 32.4792 141.268 32.4331C141.871 32.2287 142.475 32.0182 143.074 31.7998C143.477 31.7276 143.855 31.6795 144.198 31.5914C145.677 31.2567 147.138 30.8178 148.627 30.5432C148.956 30.4871 149.284 30.433 149.613 30.3789C151.174 30.1244 152.759 30.1444 154.327 29.94C155.966 29.6995 157.591 29.2686 159.148 28.6414C160.924 27.8618 162.635 26.9078 164.403 26.1062C165.635 25.501 166.9 24.9639 168.074 24.2144C170.409 22.6773 172.421 20.5249 173.856 17.8896C175.369 15.1139 177.005 12.3964 179.045 10.1038C179.834 9.24002 180.574 8.30613 181.43 7.52855C181.914 7.06762 182.508 6.79308 183.001 6.35019C183.115 6.258 183.257 6.12171 183.221 5.94135Z" fill="#100F0D"/>
</svg>
