<svg width="1454" height="794" fill="none" xmlns="http://www.w3.org/2000/svg"><path d="M542.238 167.848c-5.46-6.88-6.366-10.246-7.465-17.607-.452-3.491-.014-7.282.283-12.089.413-5.159.213-6.652 2.272-9.41 2.056-1.495 7.602-3.239 11.82-1.753 3.045 1.136 6.765 3.895 10.54 7.425 7.704 6.988 10.691 13.117 15.515 23.813 3.247 7.346 8.219 20.831 12.132 30.593 2.601 7.871 4.189 17.414 8.329 25.454-1.08-.469-2.171-.923-3.262-1.364-11.338-21.058-27.666-39.044-42.417-57.739 7.496 12.067 15.69 23.71 24.374 34.969 5.739 7.611 12.244 14.683 17.603 22.583a174.51 174.51 0 00-12.204-4.407c-12.821-13.495-26.239-26.498-37.52-40.468zm45.636 53.196c-1.527 2.933-2.615 6.147-3.943 9.163-2.832 6.658-4.959 13.59-7.621 20.321-1.991 5.222-3.999 11.064-6.332 15.818-2.235 4.245-5.139 8.09-7.913 12-2.254 3.132-4.656 6.161-7.148 9.108-3.114 3.777-4.133 5.289-8.477 6.654-13.281 3.926-21.604-4.463-24.972-11.592-2.426-3.055-.03-12.44 2.802-17.822 8.165-16.196 23.55-27.024 38.718-36.145 4.535-2.625 9.03-5.353 13.759-7.613.87-.351 1.741-.689 2.614-1.014-10.743 15.58-21.104 35.372-29.339 53.056 12.873-16.385 22.807-34.766 31.28-53.756.156-.047.296-.104.45-.164 2.068.627 4.112 1.284 6.122 1.986zm69.472 14.323c-7.43-7.694-13.185-14.47-18.822-23.827-5.993-9.205-10.842-17.21-12.931-25.293-2.883-9.474-4.095-15.813-2.145-24.362.623-2.954.45-4.115 1.717-7.083.354-.501.914-1.069 1.215-1.348 3.894-1.954 9.277.568 13.424 3.528 6.344 5.036 12.579 11.993 17.905 19.307 5.319 6.508 10.617 13.919 12.271 18.32 3.7 8.808 4.76 15.004 7.731 24.858 3.275 10.03 6.961 19.914 10.699 29.778 2.5 7.387 5.82 14.455 8.832 21.642-.002-.013-.017-.025-.017-.025-3.508-3.967-8.475-10.559-13.975-17.34-12.876-15.638-25.281-31.819-34.779-49.775-1.298-2.525-2.419-5.139-3.628-7.702 1.044 2.745 2.011 5.526 3.17 8.229 8.462 19.122 20.081 36.638 32.75 53.202 3.118 3.962 6.046 8.123 9.058 12.206-11.151-11.11-21.78-22.77-32.475-34.315zm36.216 46.666c2.629 1.564 5.28 3.099 7.919 4.636-21.894-2.922-44.052-2.586-65.864.825 22.558 2.852 44.735 2.567 66.805-.285l1.132.664a95.68 95.68 0 01-7.09 2.073c-6.37 1.714-13.12 1.997-19.298 4.385-5.03 1.895-10.073 3.791-15.084 5.724-3.03.703-6.109 1.116-9.146 1.753-20.068 2.64-40.522 7.977-56.566-4.213 2.982-8.894 17.254-12.097 28.164-15.751 11.201-3.476 20.474-3.794 31.832-3.876 11.011.042 21.995.517 32.947 1.48 1.425.856 2.836 1.714 4.249 2.585zm101.492 60.319c1.475.943 2.949 1.874 4.414 2.832 1.462.945 2.939 1.902 4.402 2.847-3.04-.989-6.118-1.852-9.259-2.466-15.804-2.678-32.024-2.469-47.963-1.194 11.697 1.542 23.364 3.383 35.146 4.322 6.491.327 12.953.954 19.368 1.855a203.087 203.087 0 0011.02 4.072c-.314-.041-.617-.097-.931-.138-12.542-2.282-25.039 1.034-37.397 3.002-9.31 1.196-18.667 2.022-27.876 4.024-10.57 1.758-27.785 1.218-36.84-3.692-.364-.116-1.008-.532-1.579-.904 1.243-4.443 2.031-6.302 6.116-9.731 21.269-16.189 53.132-10.931 81.379-4.829zm-4.366-17.647c-11.061-12.318-20.561-24.94-27.809-39.214-8.112-15.484-14.085-32.23-16.397-48.616-.781-3.436-1.12-6.565-.66-8.787.71-2.481.308-2.256 1.582-3.558.433-.189 1.51-.714 1.907-.656.13-.03.251-.031.383-.048-.069-.018.047-.06.371-.047.039-.005.077-.023.104-.026-.025.017-.038.018-.065.021a.217.217 0 01.082.004c3.575.223 3.445.36 5.974 1.669 17.735 10.996 25.626 33.495 29.787 48.977 3.773 13.031 9.555 29.009 11.426 35.883 1.203 4.552 2.386 9.16 3.687 13.741a516.933 516.933 0 00-5.315-9.264c-8.995-14.808-17.39-28.052-27.304-43.537a397.328 397.328 0 00-3.796-5.409c1.218 1.997 2.411 4.01 3.605 6.024 9.964 18.462 20.481 36.614 30.192 55.202 2.335 4.464 4.68 8.913 7.089 13.327-5.086-5.086-9.996-10.369-14.843-15.686zm19.26 27.212c.453.293.905.572 1.358.865a165.892 165.892 0 00-7.861-1.929c2.178.331 4.345.677 6.503 1.064zm23.182 13.605c12.929 7.286 26.136 14.013 39.506 20.424-10.433-2.184-21.117-2.938-31.726-1.808-3.337-3.035-6.817-5.917-10.519-8.543-6.926-5.177-14.924-8.621-22.803-12.08-3.76-1.369-7.616-3.075-11.564-4.017.961-.269 1.931-.565 2.909-.809 2.116-.588 4.274-.953 6.447-1.199 9.18 2.906 18.476 5.447 27.75 8.032zm-20.803-8.461c.95-.039 1.912-.079 2.876-.106.244.333.49.691.778 1.058a149.8 149.8 0 00-4.242-.932c.187-.01.387-.021.588-.02zm10.824 2.834c-.724-.205-1.448-.41-2.171-.601.043-.193.072-.385.087-.589l2.084 1.19zm33.533-3.176c-9.848-13.142-18.002-25.113-25.112-39.674-2.544-4.961-6.63-14.702-7.806-18.612-2.147-6.181-2.593-14.551-2.801-20.061-.077-3.928.196-7.859.66-11.76.404-1.381 1.07-3.79 4.425-4.789 4.451-1.795 7.799.579 11.29 3.339 6.072 5.231 8.493 10.168 12.58 17.14 5.317 9.599 8.941 21.44 13.143 33.719.971 2.807 2.645 15.928 4.092 23.916 1.31 10.976 4.92 21.313 8.992 31.485-2.869-3.16-5.62-6.228-7.859-9.078-10.947-13.985-19.428-28.979-27.115-45.147-.656-1.369-1.31-2.725-1.966-4.094.464 1.232.939 2.449 1.401 3.668 8.354 22.118 19.131 43.623 34.433 61.792.176.219.351.439.528.672-.2-.096-.415-.203-.615-.299-6.561-6.983-12.549-14.536-18.27-22.217zm24.607 33.301c4.053 1.883 8.102 3.739 12.175 5.566-12.775-.922-25.667.643-38.08 3.881-4.45-5.367-9.193-10.496-14.324-15.187 11.3 1.914 26.405 3.847 40.229 5.74zm16.105 7.33c3.558 1.583 7.116 3.165 10.686 4.733-.91-.289-1.814-.538-2.767-.634-14.168-.142-28.26 3.535-41.512 8.545-.776-.937-1.554-1.888-2.362-2.861a214.038 214.038 0 00-5.152-6.57c7.13-.263 14.251-.486 21.362-1.11 6.639-.739 13.198-1.482 19.745-2.103zm17.21 7.569a3583.264 3583.264 0 0020.835 8.927c15.06 6.387 30.248 12.516 45.554 18.294.271.127.526.23.776.292a1000.561 1000.561 0 0027.289 9.837c18.25 5.583 36.65 10.705 55.11 15.577a944.372 944.372 0 0031.51 6.363c-21.68-2.72-43.41-4.923-65.19-6.825-15.19-.821-30.39-1.479-45.578-2.071-.45-.266-.941-.433-1.512-.375a2.092 2.092 0 00-.797.288c-27.799-1.038-55.614-1.778-83.422-2.56-5.823-5.706-10.364-12.661-15.814-18.709-6.205-7.149-12.031-14.696-18.626-22.804 12.621-1.585 25.297-2.948 37.641-6.097 3.166-.895 6.461-.448 9.615.163.875-.096 1.748-.206 2.609-.3zm125.904 2.843c-4.79-5.243-7.82-12.159-9.77-16.632-.1-.256-.2-.513-.29-.784-.03-.144-.06-.261-.07-.354-.01-.119-.04-.223-.04-.344-.02-.132-.03-.426-.05-.625.02-.352.05-.853.07-1.043.32-4.636 7.6-14.796 17.02-16.852 12.99-3.217 23.75 7.634 30.13 17.785 2.23 2.931 6.71 14.073 10.2 22.84 4.52 11.137 8.43 22.606 14.7 32.919 3.77 6.891 9.28 12.514 13.76 18.914.21.295.42.578.61.849-13.4-9.646-29.34-32.128-41.65-48.025-.53-.712-1.08-1.423-1.63-2.134.47.747.96 1.48 1.43 2.227 11.23 17.202 22.36 35.222 34.44 48.81-.66-.187-1.3-.375-1.95-.562-22.91-18.92-49.06-37.488-66.91-56.989zm-60.133 58.629c-.66 5.552-1.921 11.031-2.28 16.626-.448 11.412.438 22.965 2.849 34.138.333 1.477.666 2.953.973 4.433-.256-2.359-.591-4.709-.849-7.082-.739-8.992-.634-18.102.43-27.078.711-5.142 2.458-10.387 3.479-15.635.429-1.935.589-3.555.794-5.019 1.541 4.457 3.114 10.132 5.077 16.456 4.16 12.903 8.362 27.533 11.26 44.759 3.67 16.673 7.92 38.648 2.85 49.981-2.11 4.257-4.03 5.21-6.65 5.028-6.244-.076-10.456-5.688-14.252-9.592-6.089-7.715-7.495-11.315-11.007-21.409-3.458-10.101-6.504-27.403-6.09-40.799.286-9.067 2.281-17.689 4.785-26.429 2.288-7.141 4.571-14.644 8.864-20.8a46.579 46.579 0 01-.233 2.422zm-72.772 20.72c2.42 7.611 5.489 19.105 6.539 25.115 1.605 9.03 1.711 18.222 2.117 27.349.925 9.935-.705 23.067-3.979 29.956-6.152 11.899-15.25 14.573-24.759 10.432-6.826-3.524-9.392-7.905-14.423-14.368-5.466-6.396-5.329-18.467-2.323-32.524 5.019-20.922 10.617-42.051 20.119-61.412a239.537 239.537 0 00-.726 6.206c-2.469 20.574-2.714 41.313-3.41 61.987 5.313-24.358 6.72-49.22 7.174-74.07.524-.967 1.046-1.946 1.598-2.902-.531.698-1.059 1.409-1.577 2.106.016-1.265.03-2.543.059-3.81 2.21.045 4.436.115 6.645.16 1.99 8.673 4.474 17.217 6.946 25.775zm-13.508-34.586c-.013-.429-.038-.842-.063-1.256-.069.412-.139.824-.206 1.249-.23-.011-.46-.023-.675-.023-19.209-15.998-40.729-28.884-62.804-40.518 19.231 15.31 40.269 28.002 61.388 40.481-2.94-.088-5.867-.177-8.793-.253-12.775-4.994-25.04-11.168-37.045-17.844-12.884-7.359-26.174-14.21-38.331-22.735-6.504-5.244-11.428-13.105-15.887-22.073-2.189-4.805-5.146-11.018-4.513-14.645.126-8.845 15.44-3.323 24.373.716 16.015 6.939 26.166 14.573 37.596 25.985 10.819 11.461 20.894 23.635 32.194 34.646 5.819 5.249 10.829 11.541 17 16.383-1.416-.037-2.831-.074-4.234-.113zm-118.664-29.917c9.502-1.059 18.742-3.347 27.874-6.066.828.81 1.653 1.606 2.527 2.357 5.093 4.064 10.861 7.088 16.705 9.969-2.191.101-4.39.243-6.56.73-9.683 2.076-19.7 2.997-29.588 2.479-2.878-.123-5.285-1.205-7.705-2.715-3.007-1.477-6.348-3.57-8.771-5.43a.806.806 0 00-.164-.127c-.377-.329-.755-.657-1.097-1.031-.002-.013 0 0-.015-.011a2.653 2.653 0 00-.179-.247l-.003-.026c-1.057-2.314 1.575-6.823 6.075-11.124 3.6-3.65 7.701-6.947 12.337-9.195 1.531-.542 3.08-1.045 4.631-1.536 3.167 5.529 6.813 10.809 11.236 15.32-9.401.468-18.648 3.027-27.303 6.653zm95.317 29.233c-20.35-.576-40.704-1.286-61.047-2.024-5.6.139-11.22.226-16.824.325.012-1.399-.435-3.036-.756-3.882-1.046-2.758-2.21-3.902-3.807-4.414-.005-.039-.01-.079-.028-.117a57.47 57.47 0 00-1.682-.34c-4.108-.29-13.141-2.126-13.796-2.742-3.095-1.533-5.67-3.952-8.439-5.996-3.696-3.003-15.748-15.72-21.81-22.471-1.815-1.936-7.679-11.184-10.917-15.561-6.095-8.521-12.13-17.089-18.361-25.512.837.352 1.671.677 2.515.975 13.341 4.372 27.99 2.989 41.371-.572 5.868-1.637 11.916-2.383 17.839-3.799 2.174-.555 4.339-1.19 6.488-1.836-.456 1.186-.723 2.483-.841 3.788-.889 8.228 2.532 16.103 5.884 23.423a146.114 146.114 0 004.566 8.86c-1.859.179-3.714.386-5.537.749-4.345 1.352-8.46 3.468-12.142 6.147-3.194 2.497-6.864 5.054-8.216 9.054-1.003 3.996.125 8.491 2.702 11.674 3.618 4.088 8.44 6.856 13.184 9.431 3.683 2.252 8.14 2.217 12.307 1.909 6.235-.541 12.4-1.638 18.352-3.568 3.165-.908 6.015-2.609 9.175-3.557 1.551-.49 3.124-.916 4.69-1.395a261.271 261.271 0 016.256 3.165c14.809 7.171 29.941 13.925 45.739 18.486-2.292-.062-4.571-.125-6.865-.2zm-84.165 32.512c2.585 20.478 5.128 44.159 5.499 62.63-.406 5.654-.773 6.05-1.778 11.632-.72 4.968-2.058 12.191-3.441 14.663-3.312 6.906-7.404 11.021-12.932 10.452-8.342-.511-11.327-4.598-17.767-9.971-4.08-4.029-5.823-6.243-8.944-9.909.033.049.758.899.268.315-1.652-2.023-2.633-3.203-3.11-4.111-.116-.281-.233-.575-.351-.87-.046-.155-.073-.259-.098-.35a27.998 27.998 0 01-.595-2.492c-.353-2.496-2.412-17.932-2.409-21.118-.168-13.108 7.293-26.246 13.379-38.46 7.119-13.082 15.057-25.742 24.226-37.483l1.851-.031c-9.022 25.859-11.015 53.657-12.708 80.84 3.682-16.481 6.688-33.104 9.158-49.822 1.586-11.017 2.847-20.878 4.742-31.047.979-.015 1.945-.029 2.922-.057a389.744 389.744 0 002.088 25.189zm-100.589-11.599c-1.812.765-3.626 1.517-5.438 2.282-.812-.691-1.962-.64-2.99-.592-2.62.114-2.201.129-4.002.234-5.907.365-11.831.383-17.747.145-10.639-.612-21.076-3.038-31.509-5.114-11.945-2.559-23.952-4.854-36.129-5.838-8.296-.894-17.142-1.463-25.482-.026 4.197-4.249 8.85-8.072 14.093-10.625 15.685.019 31.36.82 46.989 2.324 12.669.828 25.335 1.536 38.006 2.27.825.259 1.665.53 2.534.81.506.179 1.025.355 1.586.54.015.012.043.022.071.032.833.003 1.303-.433 1.547-1.055 4.763.262 9.528.538 14.281.828 15.282 1.199 30.581 1.038 45.892.863-14.211 3.262-28.234 7.374-41.702 12.922zM646.4 483.289a204.331 204.331 0 01-10.507 2.152c-13.561 2.12-27.333 1.605-40.998 1.184-1.833-.039-3.678-.076-5.511-.114l4.525.722c15.518 2.54 31.28 4.995 47.026 3.367 1.353-.143 2.704-.299 4.039-.48-2.074.932-4.136 1.85-6.192 2.807-8.295 1.794-16.611 3.416-24.985 4.79-8.521 1.271-14.893 2.111-22.757 2.198-11.52-.139-25.124-2.959-33.369-6.869-4.084-1.705-9.023-5.613-10.141-6.924-.121-.214-.217-.336-.282-.422-.235-1.233-.424-1.451 1.746-4.506 9.732-9.284 26.522-9.457 40.71-7.759 16.741 1.258 33.03 5.341 49.457 8.492 2.284.533 4.72.993 7.239 1.362zm35.815 8.363c-3.708 3.973-7.513 7.918-10.472 12.496-5.689 9.919-5.96 21.779-7.417 32.86-.536 7.189-1.454 14.319-2.439 21.458-.96 4.77-1.948 9.53-2.839 14.318-1.192 8.696-2.493 20.389-5.524 26.212-4.879 8.232-10.209 11.052-19.222 9.16-6.583-1.27-11.605-3.381-16.347-7.542-.065-.086-.141-.158-.204-.23.002.013-.057-.033-.138-.144-.019-.038-.048-.061-.08-.098-.002-.013-.002-.013-.015-.011.028.01.043.021.06.046-.018-.038-.047-.048-.067-.099-.029-.023-.047-.061-.066-.099-.076-.179-.129-.28-.149-.331-1.196-3.532-3.069-12.246-3.06-16.239.008-6.464 1.54-11.924 3.607-18.258 3.38-10.005 9.681-18.577 16.086-26.961 11.698-15.363 23.011-31.001 34.71-46.351.524-.214 1.046-.441 1.584-.656a742.36 742.36 0 0111.35-4.852c-4.321 3.902-8.537 7.885-11.96 12.628-13.642 18.067-23.461 38.651-32.648 59.236 8.712-13.242 17.321-26.552 25.625-40.038 4.343-7.049 8.467-14.232 13.188-21.047 3.034-4.304 6.544-8.239 9.742-12.417.678-.273 1.354-.56 2.03-.846-.731 3.169-3.051 5.557-5.335 7.805zM618.41 503.95a275.027 275.027 0 00-22.411 15.016c-6.1 4.502-12.006 9.261-17.741 14.214-.35-.225-.718-.366-1.133-.355-3.203.819-6.401 1.677-9.632 2.379-10.752 2.344-21.46 4.925-32.252 7.167-15.077 3.318-34.455 5.562-51.68 10.829 9.566-5.474 16.74-14.8 23.562-23.29 9.916-9.966 19.267-20.466 27.007-32.242 2.684-3.67 5.548-7.187 8.472-10.659a23.036 23.036 0 002.356 4.636c7.062 9.259 18.861 13.65 29.985 15.667 14.549 2.957 29.32.524 43.467-3.362zm-159.582 41.592c.01-.028.006-.055.015-.096.644-4.609.752-5.779 2.256-11.679 1.885-5.854 3.105-7.592 6.427-13.022 8.954-15.167 22.1-23.483 35.124-32.885 4.831-3.268 9.913-6.136 14.761-9.365a151.938 151.938 0 0122.45-13.637c7.088-3.483 14.449-6.289 21.967-8.698-3.534 2.352-7.118 4.63-10.702 6.908-6.772 3.645-13.589 7.256-19.737 11.911-11.228 8.828-19.608 20.751-30.973 29.448 13.06-6.007 23.022-16.57 34.419-25.016 2.888-2.15 5.842-4.2 8.796-6.251a12.274 12.274 0 00-2.051 4.961c-.936.897-1.886 1.782-2.805 2.704-10.263 10.95-18.806 23.391-29.507 33.953-7.584 6.811-12.92 15.679-20.38 22.622-8.428 8.221-22.099 13.969-30.06 8.142zm112.913-92.306c-2.543 1.152-4.974 2.546-7.201 4.183-3.951 2.566-7.444 5.678-10.81 8.95-.332.136-.666.258-.997.407 4.541-3.755 8.966-7.683 13.132-11.862 1.956-.581 3.9-1.148 5.876-1.678zm170.741-16.184c-22.953-8.137-46.186-19.585-63.561-34.994-11.6-10.826-20.276-20.742-28.775-33.745-4.144-7.206-8.172-15.314-4.258-26.421 1.781-6.258 1.364-8.396 7.071-10.04 4.805-.791 11.607 1.902 16.634 4.268 17.099 8.496 27.06 21.046 38.605 36.26 8.082 11.066 16.064 22.198 23.861 33.461 3.833 5.485 7.271 11.248 11.939 16.105 3.418 3.562 6.719 7.273 10.103 10.893-13.04-5.714-25.714-12.682-37.171-21.201-2.448-1.736-4.885-3.486-7.334-5.221.845.741 1.678 1.483 2.508 2.212 10.922 9.93 22.443 19.274 35.365 26.507 5.672 3.333 11.453 6.558 17.433 9.341-7.594-2.043-15.01-5.023-22.42-7.425zm224.531-29.683c-6.149-7.345-9.57-13.715-14.706-21.872-2.262-3.465-5.185-7.371-7.188-10.587-3.286-5.406-6.059-11.118-8.637-16.882-1.538-3.368-2.729-6.86-4.061-10.294.618 2.14 1.196 4.284 1.826 6.409 3.743 12.686 9.663 24.52 16.708 35.676 3.14 5.747 6.147 11.605 9.75 17.079-16.182-14.793-31.91-30.14-41.164-48.086-5.382-10.115-9.539-19.672-12.127-28.942-1.709-6.33-2.57-9.769-2.35-14.433.552-6.627 2.31-12.425 9.021-18.589 3.586-2.802 11.327-6.112 17.498-2.989 1.3.508 5.449 2.729 7.605 5.562 2.009 2.516 9.563 13.769 10.403 15.854.154-.274 1.599 5.779 2.551 9.503 1.781 5.73 3.588 11.456 5.384 17.197 4.738 14.509 6.991 25.501 8.838 39.782.971 4.205 3.435 14.512 3.455 15.315.704 4.535.746 9.152 1.675 13.658.179.892.397 1.778.654 2.646-2.113-2.49-3.988-4.794-5.135-6.007zm283.607 75.618c-.7-.101-4.38-1.883-6.83-3.121-11.9-6.22-22.36-14.743-33.65-21.939-23.57-15.8-45.36-34.524-57.36-57.717-3.12-5.924-6.55-12.064-8.07-16.039-.95-2.206-1.46-5.716-1.48-7.299 0-.283.05-.557.08-.844.09-.266.17-.545.24-.756 2.77-4.46 10.84-6.333 15.24-6.226 11.41.354 18.17 3.026 27.35 8.27 5.52 3.123 8.62 5.126 11.6 7.964 5.93 6.028 11.96 14.341 18.63 22.104 9.1 11.381 17.3 23.481 25.08 35.807 7.05 11.492 12.45 26.859 17.9 41.641-1.19-.173-2.39-.344-3.58-.517-8.27-10.115-18.59-22.271-24.48-28.829-13.28-15.801-24.75-29.399-39.34-44.807 10.93 14.833 22.08 30.688 34.39 44.825 8.72 10.085 18.33 19.374 27.97 28.605a5.24 5.24 0 01-.52-.069c-.96-.525-2.05-.845-3.17-1.053zm-69.76 49.139c15.4-8.168 30.63-16.665 46.1-24.668-10.92 7.929-22.41 15.083-32.66 23.908-7.58 5.763-13.58 13.261-21.07 19.107-12.07 10.076-31.15 21.569-45.23 16.47-.03-.023-.04-.035-.07-.045 2.01-18.623 47.32-43.582 68.12-54.685 11.32-6.38 23.56-10.847 35.46-16.024-17.59 10.904-34.21 23.364-50.65 35.937zM410.485 632.294c12.629.833 25.286 1.353 37.959.931a475.67 475.67 0 0114.484-.34c-9.733 3.076-19.765 5.478-29.602 7.506-1.552.276-3.101.564-4.651.853.695-.034 1.388-.08 2.083-.114 14.857-1.005 29.775-2.811 44.136-6.912 1.303-.432 2.685-.875 4.077-1.345.187-.01.359-.032.546-.042l-5.945 6.27c-12.039 4.615-24.121 9.102-36.509 12.646-18.217 5.499-35.581 11.267-53.724 8.788-8.286-1.029-15.335-5.263-19.994-10.793 1.47-3.92 5.246-7.243 9.268-9.562 6.16-3.596 13.116-5.557 20.135-6.6 6.899-1.135 10.742-1.671 17.737-1.286zm82.864 6.245c-1.031 4.739-1.797 9.552-1.861 14.397-.114 3.589.11 7.189.209 10.765.153 6.995-.65 13.976-.861 20.964-.312 5.226-.266 12.114-.987 16.437-3.408 18.556-16.148 35.677-36.614 37.279-1.851.246-9.204-.094-11.373-2.281l-.002-.013c.179.139.179.139-.001-.013-.485-2.788-.981-8.773-.179-12.233 2.229-10.291 7.006-19.868 11.389-29.381 6.764-13.764 14.131-27.226 21.892-40.443l7.408-7.783c-6.119 13.238-11.396 28.038-15.948 41.12 8.646-14.94 15.146-30.914 21.491-46.95 2.495-2.611 4.974-5.234 7.468-7.845-.747 1.975-1.451 3.959-2.031 5.98zm-127.456 73.558c-8.447 3.574-17.008 6.879-25.803 9.502 2.313-.304 4.618-.566 6.932-.87 16.244-2.376 32.172-6.727 47.559-12.395.784-.286 1.555-.572 2.325-.856-9.664 7.153-19.485 14.231-29.588 20.781-16.282 10.954-34.7 18.709-53.258 16.671-8.125-.498-16.103-2.493-23.852-4.92-4.693-1.735-9.723-3.267-13.431-7.008-.066-.099-.146-.196-.212-.296 1.146-8.421 14.288-13.888 25.564-16.446 15.092-3.736 28.673-2.485 44.769-3.363 7.13.059 14.05-1.765 21.023-3.057 2.026-.456 4.052-.912 6.076-1.381a472.836 472.836 0 01-8.104 3.638zm184.811-160.769a151.257 151.257 0 01-51.574 25.047c-13.705 3.548-30.757 7.624-42.009 1.915 8.96-12.87 38.141-19.128 55.646-22.374a354.281 354.281 0 0027.988-5.167c-3.971 1.87-7.706 3.588-10.967 5.019 8.514-2.077 16.841-4.789 25.142-7.605-1.414 1.051-2.829 2.089-4.226 3.165zm-117.357-71.201c-6.211 7.902-12.695 15.556-19.117 23.269-11.231 11.69-21.446 24.516-34.474 34.309-5.495 5.044-11.139 8.145-19.164 10.697-8.043 2.408-16.221 3.73-21.98.355-.339-.24-.528-.35-.645-.43-.039-13.688 22.548-35.647 35.461-46.46 19.827-16.545 46.551-27.923 71.83-39.039 1.84-.217 3.682-.422 5.523-.64-6.981 4.653-12.2 11.463-17.434 17.939zm-196.202 8.401c-10.211-.948-20.376-2.494-30.587-3.657-9.815-.891-19.236-2.934-28.674-5.753-6.047-1.714-12.258-3.017-18.066-5.499-9.673-4.268-18.493-10.189-27.59-15.537-6.446-3.921-11.876-7.889-16.018-13.376.127-.163.281-.33.53-.59.86-1.076 8.455-2.876 9.819-2.711 5.436.056 10.53 2.413 15.537 4.298 5.387 2.347 14.361 5.426 21.167 7.515 8.613 2.452 16.251 6.989 25.427 11.575 6.033 2.992 12.418 5.254 18.418 8.304 2.89 1.505 5.605 3.327 8.297 5.18-3.766-1.207-7.556-2.384-11.415-3.257-12.424-1.88-24.982-2.897-37.326-5.311 12.344 4.873 25.296 7.857 38.353 10.06 6.68 1.513 13.267 3.455 20.016 4.663l.407.03c1.203.588 2.429 1.146 3.721 1.588 3.858.981 7.871 1.041 11.812 1.608-1.282.282-2.547.589-3.828.87zm33.417 12.387c-5.938 4.831-9.336 11.694-11.878 18.746-2.411 5.839-4.433 9.641-6.916 14.481-5.406 9.924-11.693 19.354-17.711 28.898-9.205 15.306-22.814 20.899-37.16 12.917a2.714 2.714 0 00-.26-.25c-.098-.135-.181-.259-.278-.395.069.126-.024.03-.144-.183-.004-.027-.018-.038-.035-.063.017.025.018.038.033.05-.035-.063-.056-.128-.093-.204a6.117 6.117 0 00-.171-.502c-.246-1.004-.273-.571.123-2.555 4.234-11.444 6.938-20.303 14.147-29.567 3.519-4.621 7.853-8.524 11.977-12.603 5.211-5.264 10.305-10.714 16.46-14.887 6.121-4.33 12.574-8.163 18.828-12.295 6.636-4.3 13.194-8.684 19.984-12.722 4.012-.799 8.024-1.598 12.039-2.371-6.733 3.855-13.158 8.331-18.945 13.505zm-162.563 24.591c1.344-.317 2.692-.607 4.036-.924-8.019 3.238-16.002 6.551-24.284 8.975-3.73 1.114-11.299 3.341-13.237 3.423-8.874.388-17.179-1.109-23.36-5.385l-.03-.024c-.044-.034-.075-.071-.107-.107.07-.089.137-.192.233-.284 2.539-3.007 9.376-5.384 14.846-6.124 7.506-1.655 12.81-1.689 20.402-2.656 7.365-1.274 13.181-1.185 20.768-1.976 7.102-.489 14.087-1.796 21.14-2.668a522.144 522.144 0 00-20.407 7.75zm252.81-78.44c-30.161-8.186-62.48-23.815-82.75-46.009-6.101-6.854-11.023-17.376-14.197-23.172a3.72 3.72 0 00-.132-.414c-.01-.079-.032-.144-.053-.208-.29-3.377-.411-6.909-.243-8.57.498-2.992 2.992-3.036 7.311-2.987 5.618.114 9.3.324 12.876 2.696 11.391 6.808 23.151 13.031 33.505 21.434 3.15 2.399 9.371 7.531 14.207 11.372 4.785 3.538 14.045 10.397 16.289 12.104 6.697 5.502 13.241 11.171 19.335 17.327 3.944 3.791 7.49 8.063 11.81 11.431 2.501 1.728 5.29 2.964 8.012 4.302 1.675.824 3.366 1.66 5.055 2.483-9.185-2.838-18.286-5.969-27.137-9.682-12.645-5.346-24.393-12.538-37.232-17.404-1.672-.69-3.322-1.41-4.981-2.102 1.557.947 3.112 1.88 4.68 2.812 11.863 6.399 22.817 14.336 34.964 20.215 13.38 6.491 28.023 9.88 42.745 11.968 2.651.998 5.342 1.883 8.099 2.545l-.013.001c-17.658-1.827-35.114-5.145-52.15-10.142zm238.968-23.124c-7.594-4.825-13.57-9.611-20.276-15.287-6.492-5.474-13.196-10.706-19.408-16.51-7.175-6.947-12.048-12.154-17.498-19.707-2.742-3.54-8.103-14.235-9.631-16.986l-.002-.013-.079-.313c.023.078.03.131.033.157a.798.798 0 00-.063-.18 45.094 45.094 0 00-.028-.225l-.002-.013c.003-.189.035-.367.051-.558.134-.54.388-1.513.619-1.918.129-.258.212-.457.264-.571.055-.101.098-.187.154-.275 1.309-2.099 1.582-1.851 4.578-2.711 15.925-2.457 27.565 17.475 41.873 30.394 7.019 6.455 16.533 15.017 21.072 20.669 7.126 9.237 11.313 17.325 17.255 25.69a1552.165 1552.165 0 00-13.878-10.567c-5.044-3.465-10.341-6.589-14.644-10.994-2.159-2-4.284-4.045-6.431-6.06l4.691 5.257c4.819 5.845 10.749 10.476 16.667 15.121 8.05 7.066 16.228 13.981 24.066 21.288-10.16-4.503-20.062-9.629-29.383-15.688zM493.708 232.666c-2.572 8.842-5.069 17.743-9.234 25.993.699-1.069-1.802 3.196-2.505 4.023-.35.743-2.608 2.988-3.171 3.529-2.034 1.573-4.588 2.202-7.036 2.832-10.918 3.266-22.549.856-26.527-3.536.046-.274.104-.672.161-1.391 2.298-12.208 10.398-24.217 18.975-35.641 5.784-7.553 12.023-14.8 19.099-21.158 1.315-.985 2.697-1.857 4.095-2.704 3.616.433 7.241.837 10.855 1.257a249.102 249.102 0 00-22.548 44.422c9.331-13.871 16.646-28.926 22.956-44.379 1.35.153 2.701.319 4.051.472-3.053 8.756-6.821 17.278-9.171 26.281zm7.656-37.379c-15.748-16.365-33.484-30.801-52.556-43.135 16.965 15.89 33.825 29.55 51.849 43.063-4.268-.486-8.535-.971-12.8-1.443-10.466-5.123-20.47-11.164-30.144-17.676-13.243-8.51-22.429-18.738-31.336-31.461-3.253-4.819-4.26-5.674 1.039-12.695 4.479-4.997 13.893-1.946 20.182 1.269 5.011 2.34 9.676 4.496 12.974 7.965 7.463 7.744 12.212 12.819 18.001 20.289 7.945 11.258 17.506 21.265 27.138 31.088 1.234 1.377 2.609 2.589 4.065 3.696-2.81-.332-5.616-.639-8.412-.96zm8.93 1.016c-.454-.4-.907-.8-1.364-1.226-9.201-10.886-18.083-22.12-26.257-33.819-6.471-10.328-14.394-19.707-22.747-28.549-5.869-5.431-13.363-8.817-20.668-11.878-4.61-1.611-10.447-2.505-14.723.357-4.694 3.506-7.353 9.833-6.529 15.642 1.709 10.617 10.077 18.395 16.556 26.437 9.765 11.311 23.018 18.826 36.319 25.232a128.623 128.623 0 009.863 4.486c-11.09-1.201-22.239-.204-33.362.574.476-.167.954-.321 1.434-.462-1.211-.009-3.113.256-5.219.709-.841.052-1.694.105-2.549.145a1355.09 1355.09 0 00-25.362 1.787 976.367 976.367 0 00-21.738-2.323c-11.481-.789-23.02-.859-34.524-.866 12.22 2.497 24.624 4.219 37.071 4.887-3.345.326-6.691.651-10.02 1.002 12.616.835 25.236 1.709 37.87 2.475-6.888 2.934-13.783 5.816-21.075 7.565-9.055 2.158-18.455 2.209-27.676 3.259-8.586.863-17.326 2.646-24.081 2.675-14.474-.011-22.8-4.676-29.119-13.155a16.461 16.461 0 01-.622-.889l-.01-.08c-.01-.079-.019-.146-.014-.213.04-.543.135-2.033.265-2.493.74-4.164 4.164-7.08 12.927-10.707 11.405-4.63 21.852-5.552 32.849-5.939 9.231-.433 18.432.602 27.476 2.423 13.454 2.584 26.833 5.648 40.087 9.104-13.09-5.573-26.457-10.573-40.031-14.863-9.37-3.029-19.014-5.352-28.893-5.792-13.909-.753-28.614-.143-41.1 6.693-2.592 1.4-5.227 2.994-7.04 5.358-3.084 4.661-3.636 10.751-2.267 16.088 1.95 7.079 7.391 12.524 12.719 17.284 11.985 9.729 28.501 8.448 42.677 5.338 15.892-3.151 32.728-4.016 46.819-12.84 4.695-2.524 9.156-5.53 13.702-8.385 3.452.198 6.915.381 10.376.551 10.942.562 21.902.408 32.844 1.185 3.238.426 6.473.826 9.72 1.212-.764.337-1.54.69-2.284 1.079-7.504 4.88-14.279 10.85-20.486 17.287-10.016 10.879-20.745 23.245-22.348 38.524-.252 7.302 4.999 13.59 11.298 16.669 9.237 4.108 20.277 2.453 29.239-1.628 12.017-7.785 14.708-32.902 17.958-46.197 1.71-7.888 4.154-15.613 5.851-23.499 23.298 2.651 46.6 5.329 69.52 10.313 1.844.453 3.652.939 5.448 1.439a84.84 84.84 0 00-3.616.844c-7.271 2.458-14.394 5.448-21.315 8.763-15.655 7.596-31.349 18.53-37.566 35.476-4.093 9.787-1.426 20.216 4.468 28.627 6.695 10.515 17.7 16.389 29.975 11.945 4.196-1.467 6.878-5.15 9.387-8.609 2.945-3.837 5.592-7.905 8.112-12.025 4.541-6.859 7.558-14.508 9.571-22.447 3.881-13.079 6.368-26.56 10.627-39.512 12.754 4.5 24.507 10.455 37.399 17.988 13.237 7.812 25.82 16.633 38.63 25.116 6.677 4.268 13.49 8.331 20.291 12.409a298.157 298.157 0 00-28.526-4.79c-8.726-1.001-17.557-1.558-26.317-.687-6.35.69-12.536 2.367-18.664 4.077-5.793 1.601-11.793 3.47-16.362 7.537-6.67 6.173-6.848 15.991-.128 22.202 10.253 9.316 24.793 11.239 38.049 9.145a238.72 238.72 0 0028.285-5.688c6.409-1.504 11.94-5.396 17.821-8.218 3.955-2.324 8.463-3.347 12.687-5.019 4.486-1.625 8.869-3.533 12.976-5.93.253-.126.503-.278.752-.43 19.268 11.113 38.814 21.761 57.915 33.15 7.975 5.086 15.949 10.159 23.899 15.248-20.979-6.974-44.096-12.35-63.731-7.022-7.216 2.142-14.751 5.601-19.244 11.877-1.915 3.371-3.284 7.238-3.356 11.051-11.887-14.19-26.283-27.164-44.632-31.714-5.339-1.426-12.197-.067-14.422 5.547-1.71 4.783-2.827 9.802-3.676 14.813-1.848 22.203 14.836 41.529 28.869 56.967 21.077 24.458 50.901 37.659 81.885 44.586 6.883 1.407 13.869 3.218 20.898 3.76 1.071.819 2.166 1.622 3.337 2.282.685.317 1.376.579 2.081.84-26.077.372-52.142.514-78.204.574-11.316-.648-22.637-1.337-33.956-2.012-.67-.306-1.401-.563-2.19-.854-6.63-2.823-11.385-3.771-16.351-6.399-6.787-3.435-9.728-6.627-15.573-13.042-4.486-5.228-6.137-6.607-9.653-11.917-3.297-5.284-11.229-18.156-17.122-25.385-7.212-8.527-15.814-15.712-23.887-23.393-4.68-4.948-9.361-9.91-14.102-14.811-5.34-5.498-10.968-11.04-18.223-13.919-4.79-1.978-10.908-2.541-15.483.197-4.922 3.924-4.96 11.333-2.964 16.848 8.502 20.084 22.698 37.356 39.658 50.963 14.049 11.284 28.307 22.636 45.053 29.712 7.667 3.378 15.587 6.2 23.632 8.522a50.8 50.8 0 003.115 2.122c-20.094-1.213-40.138-3.52-60.279-3.612-.82-.004-1.637.017-2.458.013-1.43-2.401-3.422-4.139-4.724-1.449-.114.484-.16.974-.164 1.471-5.999.068-11.998.23-17.99.459-5.606-2.374-11.232-4.691-16.95-6.782-8.706-2.763-17.484-5.249-25.527-9.695-5.198-2.761-10.25-5.862-15.654-8.234-10.21-4.362-20.533-7.809-30.547-14.145a275.02 275.02 0 00-4.636-3.1c1.521 1.301 3.016 2.618 4.524 3.921 9.3 7.822 20.329 13.143 31.201 18.389 6.769 3.397 13.064 7.726 20.092 10.62 6.748 3.117 14.098 4.29 21.313 5.884 4.188 1.033 8.374 2.16 12.547 3.289-3.769.164-7.536.342-11.3.545-14.364-4.163-28.287-9.631-42.026-15.565-20.54-8.723-40.798-18.3-59.203-30.999-4.307-2.94-10.919-6.585-13.778-8.914-3.778-3.221-5.271-5.801-8.53-10.351-8.389-12.129-24.588-42.252-17.21-50.166 15.631-6.505 36.575 8.536 50.628 21.459 11.294 10.22 22.992 20.012 33.943 30.597 15.509 14.998 27.243 33.426 45.085 47.419 8.776 7.606 19.773 11.601 30.916 14.3-11.796-4.472-23.095-10.444-31.954-19.572-12.777-12.183-22.127-25.75-33.836-39.801-8.608-10.449-18.933-19.258-29.044-28.188-17.712-14.775-39.511-39.949-64.54-37.545-6.501.56-8.247 3.669-8.899 9.825-1.069 11.61 4.081 22.654 8.575 33.082 6.411 13.171 13.526 26.603 24.01 37.004 7.131 5.636 15.325 9.781 22.801 14.956 14.302 9.345 30.293 15.655 46.33 21.368 13.502 4.688 27.219 8.838 41.273 11.387-10.822.606-21.634 1.292-32.448 1.857-20.811 1.215-41.437 4.544-62.156 6.702-8.034.875-16.05 1.881-24.063 2.927a77.538 77.538 0 01-4.248-1.616c2.389.291 4.787.555 7.17.806a1258.243 1258.243 0 01-13.828-3.854c-3.545-1.799-6.973-3.841-10.286-6.045-4.778-2.948-9.749-5.616-14.325-8.885-7.276-7.002-13.456-15.121-20.736-22.163-8.393-7.976-17.407-15.23-26.744-22.067-6.299-5.001-19.792-16.355-29.546-22.333-5.008-3.174-10.214-6.001-15.342-8.958-2.967-1.791-5.83-3.837-9.2-4.771-3.164-.906-6.468-.787-9.71-.918-2.097-.005-4.29-.025-6.262.746-3.051 1.284-3.671 5.124-3.715 8.086-.001.954.154 4.12.144 4.148.01.079.005.147.009.173.003 3.238.293 6.508 1.417 9.578 1.334 3.555 3.479 6.726 5.105 10.15 5.481 10.909 12.835 20.991 22.363 28.704 32.88 29.091 77.551 40.239 120.796 40.144-18.659 2.518-37.282 5.313-55.936 7.87-34.64 6.661-69.356 12.928-103.829 20.387-2.34-.875-4.699-1.681-7.136-2.248-4.13-1.215-8.45-1.586-12.522-2.983-8.278-3.852-14.432-10.592-22.366-15.024-6.692-3.635-13.796-6.492-20.49-10.14-7.783-4.304-15.702-8.51-24.308-10.91-7-2.131-13.959-4.362-20.708-7.169-4.655-1.754-9.379-3.741-14.392-4.173-4.149.024-8.599.757-12.22 2.851-6.924 5.855 1.674 14.827 6.145 19.399 5.414 5.233 11.929 9.065 18.362 12.893 7.673 4.6 15.326 9.363 23.733 12.528 8.859 3.134 18.24 4.428 27.385 6.519 12.277 2.1 24.876 1.512 37.298 2.089 1.473.071 2.94.088 4.42.104-1.488.348-2.966.668-4.441 1.014-32.348 6.937-64.538 15.024-95.764 25.973-6.03-.184-12.073-.151-18.102-.119-9.818-.273-19.638-1.216-29.443-.429-5.836.182-11.671-.053-17.454.875-5.566.618-11.402 1.122-16.157 4.353-2.24 1.209-3.832 3.303-3.977 5.888-.489 5.208 2.886 10.039 7.128 12.785 7.19 4.284 16.038 5.404 24.252 4.359 3.726-.615 7.196-2.193 10.731-3.47 14.091-5.075 26.664-13.36 39.965-20.123 33.576-7.32 67.466-13.107 100.987-20.756 15.21-3.549 30.485-6.797 45.792-9.888-9.176 3.974-18.057 8.596-27.034 12.976-6.91 3.407-13.873 6.915-19.9 11.784-10.943 9.383-22.99 18.434-29.048 31.934-1.915 3.909-3.33 8.051-4.763 12.155-1.222 3.217-2.812 6.4-2.869 9.901.142 5.949 2.855 12.676 8.38 15.477 18.744 8.544 32.066-2.118 41.131-18.213 4.916-8.371 10.205-16.547 14.429-25.288 2.253-4.852 4.476-9.727 6.293-14.739 2.374-6.99 4.285-14.352 9.326-20.011 5.95-7.09 12.772-13.442 20.064-19.155 21.406-4.18 42.853-8.136 64.281-12.25 22.951-3.218 45.899-6.57 68.887-9.604 4.118-.49 8.422-.99 12.806-1.5-27.893 8.487-55.695 18.67-76.974 39.161-9.958 9.528-19.704 20.091-25.193 32.888-2.401 6.779-2.104 15.987 4.434 20.326 7.117 4.67 16.172 2.834 23.884.791 7.603-2.164 14.772-5.537 20.642-10.91 7.487-5.55 14.342-11.853 20.598-18.752 9.674-10.178 18.656-20.941 26.755-32.426 5.987-8.183 11.053-17.07 17.814-24.652 3.225-3.536 6.968-6.478 10.954-9.088a6528.8 6528.8 0 0034.34-4.016c19.686-1.075 39.344-2.374 59.04-3.369-13.399 3.094-26.33 7.875-38.088 15.264-15.493 7.818-30.331 17.113-42.883 29.197-6.772 7.287-12.275 15.906-15.952 25.143-1.783 5.707-1.895 7.495-2.595 12.084-1.128 5.356-.472 11.119 2.656 15.698 3.625 5.216 10.286 6.893 16.381 6.1-7.139 3.074-13.551 6.916-18.67 11.953-4.479 4.674-3.305 12.308 1.99 15.849 11.884 8.17 29.554 3.881 42.402.037 19.927-6.009 38.187-16.835 53.296-31.135 2.447-2.35 5.005-4.66 7.384-7.122l6.92-2.361c.051-.019.116-.041.167-.061-1.022.962-2.028 1.935-3.048 2.909-8.342 8.479-16.343 17.318-24.901 25.581-15.874 15.7-31.302 31.855-46.806 47.938-.873.218-1.693.428-2.371.594-8.656 2.444-14.681 1.978-23.896 1.683-11.291.088-22.561.763-33.848.77-10.343.035-20.685-1.421-31.029-.861-12.332 1.212-25.46 3.035-35.438 11.007-6.904 5.167-9.703 14.011-3.609 21.027 4.151 5.015 8.944 9.694 15.157 11.978 19.313 7.613 40.453-.497 58.631-7.805 12.36-4.844 24.257-10.692 35.907-17.019-4.719 4.906-9.516 9.728-14.634 14.241-11.141 10.052-20.389 17.946-32.005 25.505-10.67 6.742-21.76 12.811-33.079 18.452-3.626.549-7.266 1.1-10.894 1.636-9.398 1.032-21.052 2.509-28.811 3.107-4.963.072-9.915-.3-14.878-.336-8.513-.059-17.069-.772-25.557.226-14.346 1.976-41.894 6.792-39.533 26.129 1.909 10.497 12.261 15.352 21.468 18.254 11.435 3.63 23.517 5.89 35.524 4.449 16.223-1.687 30.14-10.933 42.523-20.94 10.267-8.345 19.976-17.385 29.398-26.684 10.759-4.106 21.306-8.83 31.138-14.862 14.402-9.226 27.099-20.912 39.289-32.884-5.316 7.427-10.424 15.016-15.227 22.781-4.08 6.573-7.925 13.304-11.283 20.27-3.008 6.224-6.054 12.573-7.028 19.481-2.089 20.823 5.657 29.216 26.683 24.144 17.889-5.001 29.371-23.361 31.181-41.165.539-11.759.668-23.574.642-35.342-.748-9.595-1.53-19.253.312-28.77.97-3.616 1.856-7.261 2.898-10.845 16.525-17.368 33.126-34.664 50.096-51.59 5.551-5.454 10.689-11.3 16.087-16.896-.688 1.471-1.377 2.941-2.038 4.422-9.416 7.955-16.108 18.336-21.961 29.082-5.008 9.135-9.346 18.684-12.07 28.768-2.657 8.706-4.979 17.826-2.501 26.854 1.258 4.774 2.676 9.756 5.9 13.598 4.834 5.534 12.713 7.716 19.862 6.966 12.112-.822 23.199-7.777 25.876-20.167 1.897-12.292-1.167-23.961-2.395-36.949-2.887-14.541-3.822-29.797-1.981-45.535.294-11.137 7.831-19.716 14.202-28.162-5.154 5.297-11.148 10.107-14.323 16.929-2.251 4.973-2.802 10.538-3.608 15.894-.775 6.453-1.167 12.966-.942 19.469.317 10.334 2.496 20.515 3.241 30.836 1.006 8.125 1.853 14.872 1.053 21.127-2.077 10.111-10.284 16.342-21.772 18.066-6.896 1.592-16.68-1.735-18.527-4.997-1.675-2.854-3.115-8.438-3.174-12.865-.061-4.655 1.225-8.647 2.189-13.283 2.946-14.103 8.27-27.565 14.605-40.468 4.287-9.098 9.502-17.654 16.293-25.105a456.706 456.706 0 01-2.907 6.385c-4.949 11.426-9.159 23.162-12.854 35.048 5.501-11.092 11.043-22.175 15.717-33.647 2.291-5.408 4.183-10.993 6.317-16.475.215-.215.403-.427.62-.629 10.117-9.965 22.617-20.538 32.217-27.562 19.738-15.002 41.921-26.159 64.766-35.572-11.936 12.598-23.387 25.647-34.809 38.705-9.95 10.87-18.814 23.325-21.554 38.102-2.404 10.823-.119 22.174 3.447 32.49 4.062 9.233 14.889 13.477 24.278 14.945 8.2 1.416 13.62-1.441 18.33-8.133 5.816-8.363 6.334-22.861 7.556-30.58 2.723-13.202 4.172-26.594 4.524-40.062 1-10.339.79-21.211 5.255-30.815 2.528-4.806 5.696-9.222 8.88-13.613 2.231-2.994 4.639-6.078 5.077-9.869 19.124-7.803 38.585-14.735 58.422-20.491 4.523-1.334 9.073-2.55 13.629-3.727 5.261-.056 10.516-.151 15.772-.247-8.744 8.704-16.533 18.377-23.473 28.601-7.497 11.893-15.718 24.442-17.049 38.772-.45 7.018.76 13.975 1.564 20.915.705 7.007 1.977 14.252 6.178 20.094 7.881 9.788 21.364 27.163 34.938 26.749 8.421.394 13.095-7.866 15.883-14.667 1.516-4.194 2.02-8.638 2.76-13.018.836-4.58 1.915-9.15 2.066-13.832.123-7.903-1.026-15.768-1.837-23.622-1.407-14.954-5.015-34.699-7.527-46.894-1.27-7.756-2.566-15.508-3.678-23.297 8.887-.175 17.771-.377 26.662-.525 11.686.387 23.362.802 35.048 1.189 15.133.546 30.275.956 45.413 1.327a351.657 351.657 0 00-1.132 7.573c-9.998 14.666-16.558 31.454-22.234 48.212-5.462 16.22-9.864 35.425-.65 51.119 7.44 11.631 17.907 26.066 33.535 23.821 4.874-.464 8.818-3.942 11.904-7.514 5.275-6.146 7.12-14.252 8.164-22.096 1.233-7.949.327-16.019-.164-23.994-.319-5.644-.798-11.281-1.674-16.869-2.046-14.041-7.373-27.254-12.219-40.487a458.373 458.373 0 01-7.025-19.557c26.202.621 52.41 1.187 78.585 2.133-4.443 4.966-7.312 11.333-10.041 17.427-5.32 12.319-8.184 25.686-7.262 39.13.553 15.854 4.023 31.719 10.597 46.186 4.633 10.034 16.088 26.67 27.702 28.195 3.46.412 6.86-.781 8.73-3.865 9.71-15.463 2.49-43.757-.83-60.89-2.1-11.925-4.65-23.766-8.33-35.318-2.465-8.17-5.433-16.182-8.038-24.307-.642-2.11-1.437-4.161-2.321-6.173 18.099.738 36.189 1.692 54.239 3.04 23.99 2.014 47.88 4.725 71.73 8.061 1.59.189 3.2.363 4.81.551 1.35.57 2.5.68 3.44.402 20.23 2.337 40.48 4.552 60.72 6.861 18.87 2.374 37.72 4.98 56.56 7.641a313.963 313.963 0 00-7.23 4.239c-10.81 2.513-21.68 4.873-32.31 8.049-11.64 4.162-23.12 8.882-34.23 14.296-15.29 7.67-45.74 25.765-45.89 44.704-.08 5.117 1.33 10.893 5.58 14.135 14.79 7.644 31.71-1.992 43.85-10.719 9.28-6.567 16.36-15.465 24.33-23.441 10.8-10.883 22.81-20.427 33.9-30.984 2.91-2.744 5.5-5.838 8.27-8.725 4.17-2.123 8.39-4.145 12.6-6.178 2.2-1.284 4.57-2.012 5.91-3.283 7.95 1.126 15.9 2.264 23.87 3.401 53.53 10.479 107.25 20.142 161.34 27.313-31.39-8.315-62.93-16.153-94.77-22.529-23.33-4.677-46.72-8.943-70.08-13.428-5.4-.786-10.82-1.557-16.24-2.328-3.48-12.491-6.79-25.07-11.99-36.967-7.04-15.928-16.98-30.335-26.81-44.635-6.45-8.046-12.97-16.03-19.63-23.915-4.62-5.493-10.65-9.601-16.94-13.004-9.02-5.277-19.2-8.984-29.77-8.732-6.49.197-14.34 2.338-17.52 8.502-2.34 7.417.64 16.18 3.59 23.093 15.72 34.417 36.39 55.526 67.72 76.117 5.49 3.812 11.15 7.388 16.72 11.109 2.15 1.545 4.33 3.072 6.54 4.541-35.56-4.834-71.15-9.301-106.84-13.138-1.93-4.139-5.07-9.523-8.97-15.014-3.24-4.511-7-8.649-9.83-13.44-2.34-3.523-6.39-11.748-8.86-18.143-9.33-21.983-16.6-49.572-40.44-59.963-13.55-5.273-29.27 4.455-32.81 18.067-1.36 6.125.54 12.336 3.3 17.795 2.41 5.314 5.05 10.586 8.68 15.184 11.36 13.771 26.09 24.392 40.69 34.492l24.57 16.146c-19.36-5.619-38.7-11.294-57.77-17.849-14.69-5.063-29.74-9.086-44.412-14.218a1471.394 1471.394 0 01-16.702-6.195c-.016-.024-.031-.036-.034-.062-1.114-3.731-2.948-7.209-4.229-10.878-.081-.326-.215-.86-.311-1.305-.405-2.69-.599-5.408-.845-8.118-.685-7.386-4.087-18.421-4.721-22.615-1.713-15.789-6.336-30.985-11.286-46.005-3.234-9.176-3.539-12.672-6.625-22.054-1.84-4.593-4.627-8.704-7.433-12.746-2.297-3.421-4.484-6.922-7.234-9.99-12.503-14.596-31.519-10.22-38.578 7.088-8.63 20.421 7.645 53.397 18.661 71.028 11.252 17.589 27.655 30.714 44.377 42.953a938.174 938.174 0 006.145 8.057 1408.383 1408.383 0 01-83.29-35.433c-1.671-4.641-3.46-9.254-5.286-13.849-3.171-7.382-4.945-11.769-6.46-17.841-3.101-12.82-3.341-19.442-6.461-34.759-7.119-21.279-14.081-44.19-30.398-60.377-3.324-2.821-7.009-5.839-11.489-6.311-4.462-.219-9.138 2.034-10.538 6.51-1.563 6.176-1.414 12.715-1.184 19.043.283 10.916 2.749 21.679 7.328 31.6 7.476 17.377 17.882 33.365 30.094 47.783 6.185 7.42 12.611 14.717 19.698 21.285-8.119-3.872-16.233-7.812-24.322-11.876l-32.304-18.184c-2.945-5.368-3.958-7.66-6.014-13.005-2.969-7.919-4.377-14.206-6.911-23.684-1.461-4.788-3.025-9.537-4.524-14.308-1.61-5.226-3.451-10.357-5.254-15.519-6.209-22.374-14.004-46.135-32.745-61.184-4.351-3.62-9.953-7.351-15.844-5.469-7.457 3.221-3.9 18.389-3.212 21.729 2.854 18.549 9.546 36.321 18.53 52.756 9.994 18.271 23.849 34.108 39.392 47.987a5839.828 5839.828 0 00-32.565-21.014c-17.907-11.189-36.418-21.416-54.763-31.919-.303-.701-.647-1.303-.932-1.644-3.352-3.476-3.602-2.679-5.966-7.488-5.574-10.897-11.773-27.199-17.506-42.564a4549.017 4549.017 0 00-4.584-12.97c-2.714-8.985-4.823-18.181-8.593-26.805-3.561-8.557-9.343-15.866-15.092-23.019-7.138-9.115-14.7-18.822-25.14-24.271-9.217-3.949-14.616-2.424-15.817 8.343-.457 2.14-1.684 8.529-1.556 12.329.015 4.298.816 8.539 1.796 12.702 1.813 7.271 3.982 14.484 7.224 21.253 2.441 5.203 5.822 9.871 8.889 14.713 6.108 10.011 13.669 18.965 22.333 26.854 9.916 9.626 19.943 19.171 30.498 28.099-8.743-5.312-17.554-10.521-26.061-16.199-15.512-10.415-30.784-21.277-47.238-30.204-5.657-2.998-11.429-5.835-17.315-8.401-3.876-8.396-4.339-18.296-6.944-27.053-7.882-22.003-12.851-47.126-31.012-63.336-4.153-3.537-8.503-7.466-14.027-8.546-4.454-.476-9.7.129-13.043 3.358-2.534 3.476-2.882 7.981-3.058 12.142-.25 5.393-.667 10.847.192 16.195 1.391 9.367 4.987 18.523 11.447 25.56 11.14 12.631 24.079 23.423 36.826 34.4-4.008-1.203-8.064-2.253-12.174-3.094-18.137-3.608-36.486-6.008-54.854-8.136z" fill="#100F0D"/></svg>