<svg width="161" height="38" fill="none" xmlns="http://www.w3.org/2000/svg"><path d="M90.594 28.658c0 2.474-1.07 3.626-3.37 3.626-.667 0-1.202-.045-1.59-.134a3.08 3.08 0 01-.99-.407l-.615-.396-1.258 5.077.316.202c1.051.674 2.62 1.001 4.799 1.001 1.16 0 2.285-.203 3.347-.602a8.56 8.56 0 002.83-1.741c.814-.756 1.472-1.705 1.954-2.82.483-1.112.728-2.394.728-3.806V7.243h14.339v29.54h6.151V1.9h-26.64v26.758zm63.101-4.146c-.549 1.573-1.37 2.948-2.44 4.087-1.071 1.14-2.39 2.048-3.919 2.701-1.53.653-3.283.984-5.21.984-1.928 0-3.681-.331-5.211-.984-1.527-.652-2.831-1.56-3.878-2.697-1.049-1.14-1.858-2.517-2.407-4.09-.553-1.587-.833-3.348-.833-5.237 0-1.889.28-3.65.833-5.237.55-1.578 1.362-2.981 2.414-4.171 1.046-1.184 2.35-2.126 3.877-2.802 1.529-.676 3.279-1.019 5.205-1.019 1.924 0 3.675.343 5.204 1.02 1.529.676 2.848 1.62 3.918 2.805a12.156 12.156 0 012.447 4.167c.553 1.589.833 3.35.833 5.237 0 1.886-.28 3.648-.833 5.236zm5.61-12.692c-.868-2.3-2.131-4.29-3.755-5.913-1.621-1.62-3.588-2.908-5.847-3.824-2.256-.915-4.806-1.379-7.577-1.379-2.724 0-5.248.464-7.504 1.379-2.26.916-4.226 2.203-5.847 3.824-1.624 1.624-2.888 3.613-3.756 5.913-.863 2.29-1.299 4.792-1.299 7.438 0 2.72.437 5.23 1.301 7.46.868 2.238 2.132 4.184 3.757 5.784 1.62 1.595 3.587 2.862 5.846 3.766 2.255.902 4.779 1.359 7.502 1.359 2.771 0 5.32-.457 7.575-1.359 2.259-.904 4.226-2.17 5.846-3.767 1.624-1.599 2.888-3.545 3.757-5.784.864-2.23 1.301-4.74 1.301-7.46 0-2.645-.437-5.147-1.3-7.437zM58.953 23.731c.582-5.319 2.744-12.06 7.228-15.397a9.283 9.283 0 013.425-1.61c1.5-.35 3.346-.123 4.06 1.434.915 1.998-.568 4.305-1.739 5.832-1.696 2.214-3.858 4.017-6.102 5.65-1.15.837-2.332 1.627-3.508 2.427-.491.334-3.401 2.081-3.401 2.081.014-.204.015-.212.037-.417zm6.423 7.316c-2.8 0-4.944-1.295-5.889-3.395l-.034-.074c4.754-3.044 9.612-6.03 13.858-9.78 3.586-3.17 8.355-8.306 6.745-13.568-1.049-2.11-3.51-2.792-6.328-2.913C62.738.85 52.563 15.266 52.563 25.883c0 1.01.133 2.185.286 3.084a2.098 2.098 0 01-.081.047c-1.834.975-3.054 1.49-3.574 1.693-.939.368-1.785.553-2.579.553-1.273 0-1.839-1.06-1.273-2.83l6.654-21.516c1.274-4.179-1.202-5.597-3.54-5.597-6.227 0-12.954 8.145-18.12 17.13h-.637l3.82-11.533c1.346-4.11-1.201-5.597-3.538-5.597-6.51 0-13.591 8.854-18.759 18.266h-.41l1.552-6.606.165-.588c-.01.003-.02.006-.028.01.302-1.286.603-2.568.902-3.83l.29-1.245c.077-.328.153-.654.227-.978l1.215-5.225L8.694 2.54a727.05 727.05 0 00-1.421 6.03L.605 37.244l.047-.01-.047.188 6.441-1.418c2.975-10.83 14.796-27.608 18.618-27.608.709 0 1.204.64.778 2.196l-7.574 26.83 6.724-1.418c2.974-10.83 14.513-27.608 18.334-27.608.71 0 1.274.64.568 2.835l-6.23 20.174c-1.557 5.026-.636 6.096 1.7 6.017 2.429-.082 5.307-1.283 7.794-2.605 2.564-1.365 4.694-2.852 5.45-3.36l.271-.17c1.48 3.837 4.64 6.135 8.71 6.135 7.15 0 13.449-5.384 16.493-9.77l-.848-2.83c-3.256 3.891-7.576 6.225-12.458 6.225z" fill="#000"/></svg>