<svg width="252" height="86" fill="none" xmlns="http://www.w3.org/2000/svg"><path d="M1.907 81.666c0 .56-.263.84-.788.84a1.59 1.59 0 01-.345-.03.727.727 0 01-.234-.097l-.201.81c.194.123.498.186.914.186.223 0 .436-.039.64-.116a1.567 1.567 0 00.908-.865 1.82 1.82 0 00.138-.728V77.15h3.113v6.053h1.032v-6.922H1.907v5.385zm13.967-1.003c0 .173-.066.366-.196.58a2.37 2.37 0 01-.553.601 3.123 3.123 0 01-.864.472c-.338.126-.72.19-1.145.19-.61 0-1.055-.123-1.339-.368-.285-.246-.427-.514-.427-.806a.99.99 0 01.23-.662c.154-.177.356-.323.608-.434.253-.11.548-.192.886-.241.34-.05.691-.075 1.057-.075.223 0 .486.003.79.008a7.2 7.2 0 01.953.081v.654zm.073-3.955c-.291-.2-.62-.35-.983-.446a4.31 4.31 0 00-1.11-.145c-.62 0-1.187.082-1.705.244a6.17 6.17 0 00-1.4.626l.46.765a5.468 5.468 0 011.219-.558c.435-.138.91-.207 1.426-.207.163 0 .36.025.594.077.233.052.456.141.668.267.213.125.392.297.54.514.145.217.218.493.218.829v.496a13.843 13.843 0 00-.835-.09 13.848 13.848 0 00-.908-.03 8.64 8.64 0 00-1.399.117 4.47 4.47 0 00-1.216.371c-.354.17-.639.403-.857.698-.218.295-.326.66-.326 1.096 0 .658.235 1.163.706 1.515.47.352 1.163.527 2.08.527.222 0 .457-.028.705-.085.247-.057.495-.139.742-.245a3.448 3.448 0 001.316-1l-.008 1.16h1.032v-4.532c0-.455-.087-.846-.261-1.173a2.203 2.203 0 00-.698-.791zm9.353 2.979c.486-.08.846-.266 1.08-.56.236-.295.353-.61.353-.947 0-.311-.08-.597-.245-.857a2.003 2.003 0 00-.686-.653 3.754 3.754 0 00-1.04-.408 5.598 5.598 0 00-1.319-.145c-.757 0-1.385.125-1.883.375s-.897.623-1.199 1.118l.757.52c.204-.346.495-.624.876-.831.382-.209.865-.313 1.45-.313.702 0 1.256.109 1.659.325.404.217.606.507.606.87 0 .252-.157.492-.472.72-.315.23-.796.343-1.445.343h-1.159v.87h1.16c.336 0 .628.033.876.1.247.067.455.153.623.26.168.106.297.228.383.363.087.137.13.272.13.406 0 .395-.226.705-.68.928-.453.223-1.043.334-1.771.334-.61 0-1.116-.094-1.522-.282a2.236 2.236 0 01-.959-.817l-.713.49a2.94 2.94 0 001.237 1.11c.512.246 1.165.369 1.957.369.495 0 .953-.05 1.374-.146a3.8 3.8 0 001.095-.42 2.23 2.23 0 00.733-.673 1.57 1.57 0 00.267-.895c0-.357-.14-.683-.42-.978-.28-.295-.648-.487-1.103-.576zm5.732-.457a2.666 2.666 0 01.81-1.63 2.25 2.25 0 01.735-.454c.278-.106.58-.16.906-.16.64 0 1.177.185 1.613.555.435.371.71.934.824 1.689h-4.888zm5.753-.743a3.373 3.373 0 00-.653-1.252 3.068 3.068 0 00-1.103-.82c-.441-.198-.956-.298-1.546-.298-.54 0-1.027.091-1.462.272-.436.18-.807.433-1.11.757a3.304 3.304 0 00-.7 1.151c-.16.443-.24.928-.24 1.453 0 .54.088 1.03.267 1.47a3.332 3.332 0 001.909 1.887c.445.178.935.267 1.47.267.703 0 1.295-.127 1.776-.382.48-.255.893-.626 1.24-1.11l-.713-.49c-.203.316-.507.581-.914.794-.406.213-.868.32-1.389.32-.737 0-1.337-.219-1.797-.654-.46-.436-.728-1.02-.803-1.753h5.98c0-.59-.07-1.127-.212-1.612zm8.789 2.345a2.478 2.478 0 01-.48.872 2.293 2.293 0 01-.783.587c-.31.143-.668.214-1.074.214a2.79 2.79 0 01-1.08-.208c-.334-.138-.65-.368-.947-.69v-3.709a2.82 2.82 0 01.947-.697 2.71 2.71 0 011.08-.215c.406 0 .764.072 1.074.215a2.3 2.3 0 01.784.586c.212.248.373.54.479.88.106.339.16.7.16 1.086 0 .386-.054.746-.16 1.08zm.215-3.7a3.095 3.095 0 00-1.103-.751 3.803 3.803 0 00-1.449-.264c-.722 0-1.398.27-2.027.81v-.646h-1.018v9.693h1.018V82.58c.297.263.618.461.962.595.344.133.7.2 1.065.2.536 0 1.018-.09 1.45-.267.43-.178.798-.427 1.102-.746.305-.32.541-.7.71-1.14.167-.441.252-.932.252-1.471a4.13 4.13 0 00-.252-1.46 3.435 3.435 0 00-.71-1.159zm9.392 2.097h-4.145V76.28H50.02v6.922h1.017v-3.104h4.145v3.104h1.033V76.28H55.18v2.949zm9.824 1.434c0 .173-.066.366-.197.58a2.369 2.369 0 01-.552.601 3.125 3.125 0 01-.864.472c-.338.126-.72.19-1.146.19-.608 0-1.054-.123-1.338-.368-.285-.246-.427-.514-.427-.806 0-.262.077-.483.23-.662a1.69 1.69 0 01.608-.434c.253-.11.547-.192.886-.241.339-.05.691-.075 1.057-.075.222 0 .486.003.79.008.304.005.622.032.953.081v.654zm.072-3.955c-.29-.2-.618-.35-.982-.446a4.31 4.31 0 00-1.11-.145c-.62 0-1.187.082-1.706.244a6.21 6.21 0 00-1.4.626l.46.765a5.47 5.47 0 011.22-.558c.435-.138.91-.207 1.426-.207.163 0 .36.025.594.077.233.052.455.141.668.267.213.125.392.297.539.514.146.217.219.493.219.829v.496a13.85 13.85 0 00-.835-.09 13.838 13.838 0 00-.908-.03c-.476.002-.941.04-1.399.117-.457.076-.862.2-1.217.371-.353.17-.638.403-.856.698-.218.295-.326.66-.326 1.096 0 .658.235 1.163.706 1.515.47.352 1.163.527 2.08.527.222 0 .457-.028.705-.085.247-.057.495-.139.742-.245a3.445 3.445 0 001.316-1l-.008 1.16h1.032v-4.532c0-.455-.087-.846-.262-1.173a2.204 2.204 0 00-.698-.791zm9.753.441v2.414h-2.64c-.578 0-1.031-.103-1.36-.31a.992.992 0 01-.494-.89c0-.385.165-.683.493-.895.33-.213.783-.319 1.361-.319h2.64zm-4.772-.368c-.492.334-.739.863-.739 1.586 0 .679.22 1.183.661 1.512.44.33 1.072.514 1.894.553l-2.659 2.77h1.44l2.52-2.77h1.655v2.77h1.033V76.28h-3.685c-.92 0-1.627.167-2.12.501zm21.762.343a3.313 3.313 0 00-1.154-.743 4.056 4.056 0 00-1.486-.264c-.698 0-1.302.135-1.809.405-.507.27-.907.633-1.2 1.088l.714.49a2.27 2.27 0 01.92-.809 3.001 3.001 0 011.375-.305c.733 0 1.322.21 1.768.63.446.42.718.957.817 1.614h-3.78v.869h3.817c-.074.703-.34 1.28-.795 1.73-.456.451-1.064.677-1.827.677-.516 0-.973-.1-1.374-.298a2.213 2.213 0 01-.92-.802l-.714.49c.292.456.692.816 1.2 1.08.507.266 1.11.399 1.808.399.54 0 1.035-.09 1.486-.268.45-.178.835-.427 1.154-.746.32-.32.569-.7.747-1.14.178-.441.267-.931.267-1.471 0-.535-.089-1.027-.267-1.475a3.37 3.37 0 00-.746-1.151zm4.282 6.079h1.017v-6.054h4.145v6.054h1.032V76.28h-6.194v6.923zm10.838-1.337V76.28h-1.017v6.923h1.26l3.902-5.838v5.838h1.032V76.28h-1.433l-3.744 5.586zm9.829-.2c0 .56-.262.84-.787.84-.143 0-.259-.01-.346-.03a.733.733 0 01-.233-.097l-.201.81c.193.123.498.186.914.186.222 0 .436-.039.639-.116.205-.076.383-.186.538-.33.155-.144.278-.322.371-.535.091-.213.138-.456.138-.728V77.15h3.112v6.053h1.033v-6.922h-5.178v5.385zm13.97-4.516v2.413H128.1c-.579 0-1.032-.103-1.361-.31a.991.991 0 01-.493-.89c0-.384.164-.683.493-.895.329-.213.782-.319 1.361-.319h2.639zm-4.772-.368c-.493.333-.739.862-.739 1.585 0 .68.22 1.183.661 1.512.441.33 1.072.514 1.894.553l-2.658 2.77h1.438l2.522-2.77h1.654v2.77h1.033V76.28h-3.684c-.921 0-1.628.167-2.121.502zm15.637-.502h-1.032v6.054h-4.152v-6.053h-1.018v6.922h6.559v2.37h.913v-3.268h-1.27V76.28zm4.642 5.586V76.28h-1.017v6.923h1.26l3.902-5.838v5.838h1.032V76.28h-1.434l-3.743 5.586zm13.967-4.717v2.414h-2.64c-.578 0-1.031-.103-1.361-.31a.993.993 0 01-.493-.89c0-.385.165-.683.493-.895.33-.213.783-.319 1.361-.319h2.64zm-4.772-.368c-.493.334-.739.863-.739 1.586 0 .679.22 1.183.661 1.512.441.33 1.072.514 1.894.553l-2.659 2.77h1.439l2.522-2.77h1.654v2.77h1.033V76.28h-3.685c-.92 0-1.628.167-2.12.501zm19.713 5.085V76.28h-1.017v6.923h1.261l3.901-5.838v5.838h1.032V76.28h-1.433l-3.744 5.586zm21.17-2.142l-1.783-3.61h-1.322v6.923h1.018v-5.49l1.72 3.588h.727l1.697-3.588v5.49h1.033v-6.923h-1.322l-1.768 3.61zm11.884.772c0 .173-.066.366-.196.58a2.364 2.364 0 01-.553.6 3.118 3.118 0 01-.864.472c-.338.127-.72.19-1.145.19-.609 0-1.055-.122-1.339-.368-.285-.245-.427-.514-.427-.805 0-.263.078-.484.23-.662a1.69 1.69 0 01.608-.434c.253-.111.548-.192.886-.242a7.31 7.31 0 011.058-.074c.222 0 .485.002.789.008.304.004.622.032.953.081v.654zm.073-3.955a3.137 3.137 0 00-.983-.446 4.314 4.314 0 00-1.11-.145 5.72 5.72 0 00-1.705.243 6.217 6.217 0 00-1.4.627l.46.764a5.472 5.472 0 011.219-.557c.435-.139.91-.207 1.426-.207.163 0 .361.025.594.077.233.052.456.14.668.266.213.126.392.298.539.514.146.218.219.494.219.83v.496a14.332 14.332 0 00-.835-.09 13.853 13.853 0 00-.908-.03 8.64 8.64 0 00-1.399.116 4.47 4.47 0 00-1.216.372c-.353.17-.639.403-.856.698-.219.295-.327.66-.327 1.096 0 .658.235 1.163.706 1.515.47.351 1.163.527 2.079.527.223 0 .458-.028.706-.085.247-.058.495-.139.742-.246a3.451 3.451 0 001.316-.999l-.008 1.16h1.032v-4.532c0-.456-.087-.846-.261-1.173a2.222 2.222 0 00-.698-.791zm9.256 5.499a3.06 3.06 0 01-1.374.298c-.406 0-.772-.071-1.096-.215a2.57 2.57 0 01-.832-.579 2.456 2.456 0 01-.527-.864 3.162 3.162 0 01-.182-1.094c0-.395.053-.76.159-1.094.107-.334.264-.624.472-.872a2.23 2.23 0 01.776-.586 2.57 2.57 0 011.088-.215c.308 0 .595.051.862.152a2 2 0 011.315 1.92h.913v-2.778h-.913v1.004a1.337 1.337 0 00-.357-.502 2.62 2.62 0 00-1.166-.59 3.014 3.014 0 00-.654-.075 3.8 3.8 0 00-1.459.271 3.187 3.187 0 00-1.111.75c-.302.32-.534.704-.697 1.152a4.217 4.217 0 00-.246 1.46c0 .54.089 1.03.267 1.47.179.44.428.82.747 1.14.319.32.704.568 1.155.747.451.178.946.267 1.486.267.698 0 1.301-.132 1.809-.397a3.096 3.096 0 001.199-1.081l-.713-.49c-.213.337-.52.604-.921.802zm9.821 0a3.06 3.06 0 01-1.374.298c-.406 0-.771-.071-1.096-.215a2.566 2.566 0 01-.831-.579 2.444 2.444 0 01-.528-.864 3.186 3.186 0 01-.182-1.094c0-.395.053-.76.16-1.094a2.53 2.53 0 01.471-.872c.208-.247.467-.442.777-.586a2.57 2.57 0 011.088-.215c.307 0 .594.051.861.152a2 2 0 011.315 1.92h.914v-2.778h-.914v1.004a1.337 1.337 0 00-.357-.502 2.62 2.62 0 00-1.166-.59 3.005 3.005 0 00-.653-.075 3.8 3.8 0 00-1.46.271 3.174 3.174 0 00-1.11.75c-.302.32-.535.704-.698 1.152a4.24 4.24 0 00-.245 1.46c0 .54.088 1.03.267 1.47.178.44.427.82.747 1.14.319.32.703.568 1.154.747.451.178.946.267 1.486.267.698 0 1.301-.132 1.809-.397a3.096 3.096 0 001.199-1.081l-.713-.49c-.213.337-.52.604-.921.802zm10.323-1.544c0 .173-.065.366-.196.58a2.383 2.383 0 01-.553.6 3.118 3.118 0 01-.864.472c-.338.127-.72.19-1.145.19-.609 0-1.055-.122-1.339-.368-.285-.245-.427-.514-.427-.805 0-.263.078-.484.23-.662a1.69 1.69 0 01.608-.434c.253-.111.548-.192.886-.242a7.39 7.39 0 011.057-.074c.223 0 .486.002.79.008.305.004.622.032.953.081v.654zm.073-3.955a3.137 3.137 0 00-.983-.446 4.314 4.314 0 00-1.11-.145 5.72 5.72 0 00-1.705.243 6.217 6.217 0 00-1.4.627l.461.764a5.444 5.444 0 011.218-.557 4.673 4.673 0 011.426-.207c.163 0 .361.025.594.077a2.3 2.3 0 01.669.266c.212.126.391.298.538.514.146.218.219.494.219.83v.496a14.332 14.332 0 00-.835-.09 10.693 10.693 0 00-.908-.029c-.475 0-.941.039-1.399.115a4.47 4.47 0 00-1.216.372c-.353.17-.639.403-.856.698-.218.295-.327.66-.327 1.096 0 .658.235 1.163.706 1.515.47.351 1.163.527 2.079.527.223 0 .458-.028.706-.085.248-.058.495-.139.743-.246a3.47 3.47 0 001.315-.999l-.008 1.16h1.032v-4.532c0-.456-.087-.846-.261-1.173a2.213 2.213 0 00-.698-.791zm10.141-.427l-1.931 2.919v-2.919h-1.033v2.919l-1.932-2.919h-1.136l2.125 3.03-2.125 3.893h1.093l1.611-3.105.364.535v2.57h1.033v-2.57l.364-.535 1.612 3.105h1.091l-2.124-3.892 2.124-3.03h-1.136zM109.494 32.262l-.002-.003-.046.035.048-.032zm32.734 12.001c0 3.854-1.668 5.649-5.25 5.649-1.041 0-1.874-.07-2.479-.208a4.798 4.798 0 01-1.542-.635l-.958-.616-1.959 7.909.492.315c1.637 1.05 4.083 1.56 7.476 1.56 1.807 0 3.561-.317 5.215-.94a13.325 13.325 0 004.407-2.711c1.269-1.179 2.295-2.657 3.046-4.392.753-1.735 1.134-3.73 1.134-5.931V10.899h22.34V56.92h9.583V2.575h-41.505v41.688zm98.305-6.459c-.856 2.45-2.134 4.592-3.801 6.366-1.669 1.776-3.723 3.191-6.105 4.209-2.384 1.017-5.115 1.533-8.118 1.533-3.004 0-5.735-.516-8.118-1.533-2.38-1.015-4.411-2.43-6.042-4.203-1.634-1.776-2.895-3.92-3.75-6.371-.861-2.472-1.298-5.217-1.298-8.159 0-2.942.437-5.687 1.298-8.159.857-2.458 2.122-4.644 3.761-6.498 1.629-1.844 3.661-3.313 6.04-4.365 2.382-1.054 5.109-1.588 8.109-1.588 2.998 0 5.725.534 8.108 1.588 2.382 1.054 4.436 2.525 6.104 4.371 1.672 1.852 2.954 4.036 3.812 6.493.862 2.474 1.298 5.22 1.298 8.158 0 2.939-.436 5.684-1.298 8.158zm8.74-19.773c-1.351-3.583-3.32-6.683-5.85-9.214-2.525-2.524-5.589-4.53-9.109-5.957-3.515-1.425-7.487-2.148-11.805-2.148-4.243 0-8.176.723-11.691 2.148-3.52 1.428-6.584 3.433-9.108 5.957-2.531 2.53-4.499 5.63-5.852 9.214-1.344 3.567-2.025 7.465-2.025 11.586 0 4.238.682 8.149 2.028 11.623 1.352 3.488 3.322 6.52 5.853 9.01 2.524 2.486 5.588 4.46 9.108 5.869 3.512 1.405 7.445 2.117 11.687 2.117 4.318 0 8.288-.712 11.801-2.117 3.52-1.408 6.584-3.383 9.108-5.868 2.531-2.492 4.5-5.523 5.853-9.012 1.346-3.473 2.028-7.384 2.028-11.622 0-4.121-.681-8.02-2.026-11.586zM125.807 6.206h-.001l.002.005-.001-.005z"/><path d="M92.93 36.588c.905-8.286 4.274-18.788 11.259-23.988 1.591-1.185 3.402-2.059 5.336-2.51 2.337-.544 5.213-.19 6.325 2.237 1.426 3.11-.885 6.705-2.708 9.085-2.643 3.45-6.011 6.258-9.506 8.802-1.792 1.305-3.634 2.536-5.467 3.782-.765.52-5.298 3.242-5.298 3.242.021-.319.023-.331.058-.65zm10.005 11.398c-4.363 0-7.702-2.017-9.174-5.29l-.054-.115c7.406-4.742 14.976-9.395 21.59-15.238 5.587-4.936 13.017-12.94 10.509-21.137-1.634-3.288-5.47-4.35-9.859-4.537-17.121-.73-32.974 21.73-32.974 38.272 0 1.575.208 3.403.446 4.804-.02.013-.068.041-.127.074-2.857 1.519-4.758 2.32-5.567 2.637-1.463.574-2.781.862-4.018.862-1.984 0-2.864-1.651-1.984-4.408L82.09 10.388c1.984-6.51-1.872-8.72-5.514-8.72-9.702 0-20.182 12.69-28.232 26.688h-.992l5.953-17.968c2.097-6.403-1.872-8.72-5.514-8.72-10.142 0-21.173 13.794-29.224 28.458h-.64l2.42-10.293.256-.916-.045.015c.471-2.002.94-4 1.407-5.965l.45-1.94c.121-.51.24-1.019.355-1.523l1.892-8.14-10.034 2.208c-.065.237-.926 3.876-2.215 9.395L2.026 57.64l.072-.016-.072.293 10.035-2.21c4.634-16.872 23.051-43.012 29.005-43.012 1.105 0 1.877.997 1.212 3.421l-11.8 41.801 10.476-2.21c4.633-16.872 22.61-43.012 28.564-43.012 1.104 0 1.985.997.884 4.418l-9.707 31.429c-2.424 7.83-.99 9.498 2.65 9.375 3.784-.128 8.268-1.999 12.142-4.06 3.995-2.126 7.313-4.443 8.49-5.232l.424-.267c2.307 5.979 7.228 9.559 13.568 9.559 11.139 0 20.954-8.388 25.696-15.22l-1.32-4.41c-5.074 6.062-11.804 9.698-19.41 9.698z"/></svg>