<svg width="252" height="86" viewBox="0 0 252 86" fill="none" xmlns="http://www.w3.org/2000/svg">
  <path d="M1.90667 81.6659C1.90667 82.2258 1.64427 82.5053 1.11946 82.5053C0.976036 82.5053 0.860367 82.4954 0.773781 82.4756C0.687195 82.4558 0.609201 82.4234 0.540461 82.3791L0.338867 83.1888C0.532529 83.3124 0.837233 83.3745 1.25298 83.3745C1.47572 83.3745 1.68922 83.3362 1.89279 83.2588C2.09703 83.1828 2.27549 83.0725 2.43015 82.929C2.58548 82.7849 2.70842 82.6071 2.80095 82.3936C2.89283 82.1808 2.9391 81.9382 2.9391 81.6659V77.1496H6.05157V83.2033H7.084V76.2811H1.90667V81.6659Z" />
  <path d="M15.8739 80.6631C15.8739 80.8363 15.8084 81.0293 15.6776 81.2428C15.546 81.4556 15.3623 81.6559 15.125 81.8443C14.8877 82.0326 14.6002 82.1899 14.2611 82.3155C13.9227 82.4424 13.5407 82.5052 13.1157 82.5052C12.5069 82.5052 12.0608 82.3829 11.7772 82.1377C11.4923 81.8925 11.3502 81.6235 11.3502 81.332C11.3502 81.0696 11.4276 80.8488 11.5802 80.6704C11.7336 80.4926 11.9358 80.3472 12.1883 80.2361C12.4408 80.1251 12.7363 80.0445 13.074 79.9949C13.4131 79.9453 13.7654 79.9202 14.1309 79.9202C14.3536 79.9202 14.6167 79.9228 14.9208 79.9281C15.2255 79.9328 15.5427 79.9599 15.8739 80.0094V80.6631ZM15.9466 76.7079C15.6557 76.5076 15.3279 76.3589 14.9637 76.2624C14.6002 76.1659 14.23 76.117 13.854 76.117C13.2346 76.117 12.6669 76.199 12.1487 76.3609C11.6311 76.5235 11.1652 76.7317 10.7488 76.9868L11.2088 77.7516C11.5855 77.5189 11.992 77.3332 12.4276 77.1944C12.8632 77.0556 13.3384 76.9868 13.854 76.9868C14.0172 76.9868 14.2148 77.012 14.4482 77.0642C14.6808 77.1157 14.9036 77.205 15.1164 77.3305C15.3292 77.4561 15.5083 77.628 15.6551 77.8448C15.8012 78.0622 15.8739 78.3385 15.8739 78.6736V79.17C15.7152 79.1502 15.5698 79.133 15.4363 79.1178C15.3028 79.1032 15.1699 79.0913 15.0391 79.0808C14.9082 79.0709 14.7694 79.0636 14.624 79.059C14.4779 79.0537 14.3133 79.0517 14.1309 79.0517C13.6557 79.0517 13.1897 79.0894 12.7323 79.1667C12.2749 79.2434 11.8697 79.367 11.5155 79.5382C11.1625 79.7087 10.877 79.9413 10.6589 80.2361C10.4414 80.5309 10.333 80.8958 10.333 81.332C10.333 81.9903 10.5676 82.4953 11.0389 82.8469C11.5089 83.1986 12.2022 83.3744 13.1183 83.3744C13.3411 83.3744 13.5764 83.346 13.8242 83.2891C14.0714 83.2316 14.3193 83.1503 14.5665 83.0439C14.8143 82.9375 15.051 82.8 15.2757 82.6315C15.5017 82.4636 15.7027 82.2679 15.8818 82.0445L15.8739 83.2032H16.9063V78.6723C16.9063 78.2169 16.819 77.8256 16.6445 77.4991C16.4701 77.1719 16.2374 76.9088 15.9466 76.7079Z" />
  <path d="M25.2998 79.6866C25.7856 79.6073 26.1458 79.4209 26.3805 79.1267C26.6158 78.832 26.7334 78.5167 26.7334 78.1802C26.7334 77.8689 26.6521 77.5827 26.4882 77.323C26.325 77.0632 26.0963 76.8458 25.8015 76.6699C25.5067 76.4948 25.1603 76.3586 24.7611 76.2621C24.3632 76.1656 23.923 76.1174 23.4432 76.1174C22.6857 76.1174 22.0578 76.2423 21.5601 76.4921C21.0624 76.742 20.6625 77.1148 20.3611 77.6105L21.1179 78.13C21.3215 77.7837 21.613 77.5061 21.9943 77.2985C22.3757 77.0903 22.8589 76.9865 23.4432 76.9865C24.1464 76.9865 24.6997 77.0949 25.1028 77.3111C25.5067 77.5279 25.7089 77.818 25.7089 78.1816C25.7089 78.4327 25.5516 78.6727 25.237 78.9014C24.9224 79.1301 24.4406 79.2444 23.7922 79.2444H22.6335V80.1136H23.7922C24.1286 80.1136 24.4207 80.1466 24.6686 80.214C24.9164 80.2808 25.124 80.3674 25.2925 80.4738C25.4604 80.5802 25.5886 80.7018 25.6752 80.8373C25.7618 80.9741 25.8048 81.109 25.8048 81.2425C25.8048 81.6384 25.5787 81.9484 25.1253 82.1711C24.6719 82.3939 24.0823 82.5049 23.3539 82.5049C22.7445 82.5049 22.2376 82.4111 21.8317 82.2234C21.4246 82.035 21.106 81.7627 20.8733 81.4057L20.1602 81.8962C20.4721 82.3912 20.8846 82.7614 21.3968 83.0066C21.9091 83.2518 22.5621 83.3748 23.3539 83.3748C23.849 83.3748 24.307 83.3258 24.7281 83.2293C25.1484 83.1328 25.514 82.9927 25.8233 82.809C26.1333 82.6259 26.3772 82.4018 26.5556 82.1361C26.7334 81.8711 26.8227 81.573 26.8227 81.2405C26.8227 80.8836 26.6825 80.5577 26.403 80.2629C26.1234 79.9682 25.7552 79.7758 25.2998 79.6866Z" />
  <path d="M31.0324 79.2295C31.072 78.899 31.1633 78.5943 31.3073 78.3154C31.4508 78.0365 31.6292 77.7985 31.8421 77.6009C32.0549 77.4032 32.2994 77.2519 32.5771 77.1455C32.8547 77.0397 33.1567 76.9868 33.4832 76.9868C34.1224 76.9868 34.6597 77.1712 35.096 77.5414C35.5309 77.9122 35.8059 78.4747 35.9202 79.2295H31.0324ZM36.7854 78.4866C36.644 78.0014 36.4265 77.5844 36.1317 77.2354C35.8369 76.8864 35.4694 76.6127 35.0286 76.4144C34.5877 76.2168 34.0728 76.117 33.4832 76.117C32.9439 76.117 32.4561 76.2082 32.0205 76.3887C31.5849 76.5691 31.2141 76.8216 30.9101 77.1461C30.6054 77.4707 30.3721 77.854 30.2115 78.2975C30.0509 78.7404 29.9702 79.2249 29.9702 79.7497C29.9702 80.2897 30.0594 80.7794 30.2379 81.2203C30.4164 81.6612 30.6669 82.0412 30.9914 82.3605C31.3159 82.6797 31.7006 82.9289 32.1468 83.1067C32.5923 83.2852 33.082 83.3744 33.6174 83.3744C34.32 83.3744 34.9122 83.2468 35.3928 82.9917C35.8726 82.7366 36.2864 82.3664 36.6334 81.8813L35.9202 81.3915C35.7166 81.7081 35.4126 81.9731 35.0061 82.186C34.6003 82.3988 34.1376 82.5052 33.6174 82.5052C32.8798 82.5052 32.2803 82.2871 31.8196 81.8515C31.3596 81.416 31.0919 80.8317 31.0172 80.0987H36.9969C36.9969 79.5091 36.9262 78.9724 36.7854 78.4866Z" />
  <path d="M45.5739 80.8325C45.4675 81.1663 45.3069 81.4571 45.0947 81.7043C44.8819 81.9515 44.6202 82.1471 44.3108 82.2906C44.0015 82.434 43.6433 82.5054 43.2374 82.5054C42.8514 82.5054 42.4912 82.436 42.1568 82.2972C41.823 82.159 41.507 81.929 41.2103 81.6078V77.8985C41.507 77.5772 41.823 77.3452 42.1568 77.2012C42.4912 77.0577 42.8514 76.9863 43.2374 76.9863C43.6433 76.9863 44.0015 77.0577 44.3108 77.2012C44.6202 77.3452 44.8819 77.5402 45.0947 77.7874C45.3069 78.0346 45.4675 78.3274 45.5739 78.6665C45.6804 79.0056 45.7339 79.3678 45.7339 79.7531C45.7339 80.1391 45.6804 80.4987 45.5739 80.8325ZM45.7888 77.1311C45.4847 76.8072 45.1172 76.5567 44.6863 76.3809C44.2553 76.2051 43.7728 76.1172 43.2374 76.1172C42.515 76.1172 41.8388 76.3868 41.2103 76.9262V76.2811H40.1924V85.9741H41.2103V82.5794C41.507 82.8418 41.8276 83.0401 42.172 83.1736C42.5163 83.3071 42.8713 83.3746 43.2374 83.3746C43.7728 83.3746 44.2553 83.2847 44.6863 83.1069C45.1172 82.9291 45.4847 82.6799 45.7888 82.3606C46.0941 82.0407 46.3301 81.6613 46.4986 81.2205C46.6665 80.7796 46.7511 80.2892 46.7511 79.7498C46.7511 79.225 46.6665 78.7379 46.4986 78.2898C46.3301 77.8423 46.0941 77.4556 45.7888 77.1311Z" />
  <path d="M55.1812 79.2287H51.0363V76.2801H50.019V83.2024H51.0363V80.0978H55.1812V83.2024H56.2136V76.2801H55.1812V79.2287Z" />
  <path d="M65.0047 80.6631C65.0047 80.8363 64.9393 81.0293 64.8084 81.2428C64.6769 81.4556 64.4931 81.6559 64.2559 81.8443C64.0186 82.0326 63.731 82.1899 63.392 82.3155C63.0536 82.4424 62.6715 82.5052 62.2465 82.5052C61.6378 82.5052 61.1916 82.3829 60.9081 82.1377C60.6232 81.8925 60.4811 81.6235 60.4811 81.332C60.4811 81.0696 60.5584 80.8488 60.7111 80.6704C60.8644 80.4926 61.0667 80.3472 61.3192 80.2361C61.5717 80.1251 61.8665 80.0445 62.2049 79.9949C62.544 79.9453 62.8962 79.9202 63.2618 79.9202C63.4845 79.9202 63.7476 79.9228 64.0516 79.9281C64.3563 79.9328 64.6736 79.9599 65.0047 80.0094V80.6631ZM65.0774 76.7079C64.7866 76.5076 64.4588 76.3589 64.0946 76.2624C63.731 76.1659 63.3609 76.117 62.9848 76.117C62.3655 76.117 61.7977 76.199 61.2795 76.3609C60.762 76.5235 60.296 76.7317 59.8796 76.9868L60.3396 77.7516C60.7164 77.5189 61.1229 77.3332 61.5585 77.1944C61.994 77.0556 62.4693 76.9868 62.9848 76.9868C63.1481 76.9868 63.3457 77.012 63.579 77.0642C63.8117 77.1157 64.0344 77.205 64.2473 77.3305C64.4601 77.4561 64.6392 77.628 64.7859 77.8448C64.932 78.0622 65.0047 78.3385 65.0047 78.6736V79.17C64.8461 79.1502 64.7007 79.133 64.5672 79.1178C64.4336 79.1032 64.3008 79.0913 64.1699 79.0808C64.0391 79.0709 63.9003 79.0636 63.7548 79.059C63.6088 79.0537 63.4442 79.0517 63.2618 79.0517C62.7865 79.0517 62.3206 79.0894 61.8632 79.1667C61.4058 79.2434 61.0006 79.367 60.6463 79.5382C60.2934 79.7087 60.0078 79.9413 59.7897 80.2361C59.5723 80.5309 59.4639 80.8958 59.4639 81.332C59.4639 81.9903 59.6985 82.4953 60.1698 82.8469C60.6397 83.1986 61.3331 83.3744 62.2492 83.3744C62.4719 83.3744 62.7072 83.346 62.9551 83.2891C63.2023 83.2316 63.4501 83.1503 63.6973 83.0439C63.9452 82.9375 64.1818 82.8 64.4065 82.6315C64.6326 82.4636 64.8335 82.2679 65.0127 82.0445L65.0047 83.2032H66.0371V78.6723C66.0371 78.2169 65.9499 77.8256 65.7754 77.4991C65.6009 77.1719 65.3683 76.9088 65.0774 76.7079Z" />
  <path d="M74.8302 77.149V79.5628H72.1903C71.612 79.5628 71.1586 79.4597 70.8294 79.2522C70.5009 79.0446 70.3363 78.7485 70.3363 78.3632C70.3363 77.9785 70.5009 77.6797 70.8294 77.4676C71.1586 77.2554 71.612 77.149 72.1903 77.149H74.8302ZM70.0581 76.7815C69.5656 77.1153 69.3191 77.6441 69.3191 78.3672C69.3191 79.046 69.5392 79.5496 69.9801 79.8788C70.4209 80.2086 71.0521 80.393 71.8737 80.432L69.2153 83.2028H70.6542L73.1758 80.432H74.8302V83.2028H75.8626V76.2798H72.1784C71.2577 76.2798 70.5505 76.4471 70.0581 76.7815Z" />
  <path d="M91.8205 77.1239C91.5012 76.8047 91.1165 76.5568 90.6658 76.381C90.215 76.2052 89.7199 76.1173 89.1799 76.1173C88.4819 76.1173 87.8785 76.2521 87.3715 76.5224C86.8639 76.7921 86.464 77.155 86.1719 77.6104L86.8851 78.1008C87.0979 77.7644 87.4046 77.494 87.8058 77.2911C88.207 77.0882 88.6644 76.9864 89.1799 76.9864C89.9129 76.9864 90.5025 77.1966 90.948 77.6157C91.3935 78.0354 91.6658 78.5734 91.7649 79.2297H87.9842V80.0989H91.802C91.7279 80.8015 91.4629 81.3785 91.0075 81.8293C90.5514 82.2801 89.9427 82.5055 89.1799 82.5055C88.6644 82.5055 88.207 82.4063 87.8058 82.208C87.4046 82.0104 87.0979 81.7427 86.8851 81.4056L86.1719 81.8961C86.464 82.3521 86.8639 82.7123 87.3715 82.9767C87.8785 83.2418 88.4819 83.3746 89.1799 83.3746C89.7199 83.3746 90.215 83.2854 90.6658 83.1069C91.1165 82.9291 91.5012 82.68 91.8205 82.3607C92.1397 82.0408 92.3889 81.6614 92.5674 81.2206C92.7452 80.7797 92.8344 80.2899 92.8344 79.7499C92.8344 79.2152 92.7452 78.7234 92.5674 78.2753C92.3889 77.8272 92.1397 77.4431 91.8205 77.1239Z" />
  <path d="M96.1016 83.2028H97.1188V77.149H101.264V83.2028H102.296V76.2798H96.1016V83.2028Z" />
  <path d="M106.94 81.8656V76.2798H105.923V83.2028H107.183L111.085 77.3645V83.2028H112.117V76.2798H110.684L106.94 81.8656Z" />
  <path d="M116.769 81.6659C116.769 82.2258 116.507 82.5053 115.982 82.5053C115.839 82.5053 115.723 82.4954 115.636 82.4756C115.55 82.4558 115.472 82.4234 115.403 82.3791L115.202 83.1888C115.395 83.3124 115.7 83.3745 116.116 83.3745C116.338 83.3745 116.552 83.3362 116.755 83.2588C116.96 83.1828 117.138 83.0725 117.293 82.929C117.448 82.7849 117.571 82.6071 117.664 82.3936C117.755 82.1808 117.802 81.9382 117.802 81.6659V77.1496H120.914V83.2033H121.947V76.2811H116.769V81.6659Z" />
  <path d="M130.739 77.1491V79.563H128.1C127.521 79.563 127.068 79.4598 126.739 79.2523C126.41 79.0448 126.246 78.7486 126.246 78.3633C126.246 77.9786 126.41 77.6799 126.739 77.4677C127.068 77.2555 127.521 77.1491 128.1 77.1491H130.739ZM125.967 76.7816C125.474 77.1154 125.228 77.6442 125.228 78.3673C125.228 79.0461 125.448 79.5497 125.889 79.8789C126.33 80.2087 126.961 80.3931 127.783 80.4321L125.125 83.2029H126.563L129.085 80.4321H130.739V83.2029H131.772V76.28H128.088C127.167 76.28 126.46 76.4472 125.967 76.7816Z" />
  <path d="M141.604 76.2806H140.572V82.3343H136.42V76.2806H135.402V83.2035H141.961V85.5724H142.874V82.3046H141.604V76.2806Z" />
  <path d="M146.246 81.8656V76.2798H145.229V83.2028H146.489L150.391 77.3645V83.2028H151.423V76.2798H149.989L146.246 81.8656Z" />
  <path d="M160.213 77.149V79.5628H157.573C156.995 79.5628 156.542 79.4597 156.212 79.2522C155.884 79.0446 155.719 78.7485 155.719 78.3632C155.719 77.9785 155.884 77.6797 156.212 77.4676C156.542 77.2554 156.995 77.149 157.573 77.149H160.213ZM155.441 76.7815C154.948 77.1153 154.702 77.6441 154.702 78.3672C154.702 79.046 154.922 79.5496 155.363 79.8788C155.804 80.2086 156.435 80.393 157.257 80.432L154.598 83.2028H156.037L158.559 80.432H160.213V83.2028H161.246V76.2798H157.561C156.641 76.2798 155.933 76.4471 155.441 76.7815Z" />
  <path d="M175.154 81.8656V76.2798H174.137V83.2028H175.398L179.299 77.3645V83.2028H180.331V76.2798H178.898L175.154 81.8656Z" />
  <path d="M196.324 79.7239L194.541 76.1143H193.219V83.0366H194.237V77.5473L195.957 81.135H196.684L198.381 77.5473V83.0366H199.414V76.1143H198.092L196.324 79.7239Z" />
  <path d="M208.208 80.4958C208.208 80.6689 208.142 80.8619 208.012 81.0754C207.881 81.2883 207.696 81.4885 207.459 81.6769C207.222 81.8653 206.934 82.0226 206.595 82.1482C206.257 82.2751 205.875 82.3379 205.45 82.3379C204.841 82.3379 204.395 82.2156 204.111 81.9704C203.826 81.7252 203.684 81.4561 203.684 81.1647C203.684 80.9023 203.762 80.6815 203.914 80.503C204.068 80.3252 204.27 80.1798 204.522 80.0688C204.775 79.9577 205.07 79.8771 205.408 79.8275C205.747 79.778 206.099 79.7528 206.466 79.7528C206.688 79.7528 206.951 79.7555 207.255 79.7608C207.559 79.7654 207.877 79.7925 208.208 79.8421V80.4958ZM208.281 76.5406C207.99 76.3403 207.662 76.1916 207.298 76.0951C206.934 75.9986 206.564 75.9503 206.188 75.9503C205.569 75.9503 205.001 76.0316 204.483 76.1935C203.965 76.3561 203.499 76.5643 203.083 76.8195L203.543 77.5842C203.92 77.3516 204.326 77.1658 204.762 77.027C205.197 76.8882 205.672 76.8195 206.188 76.8195C206.351 76.8195 206.549 76.8446 206.782 76.8968C207.015 76.949 207.238 77.0376 207.45 77.1632C207.663 77.2894 207.842 77.4606 207.989 77.6774C208.135 77.8949 208.208 78.1712 208.208 78.5063V79.0026C208.049 78.9828 207.904 78.9656 207.77 78.9504C207.637 78.9359 207.504 78.924 207.373 78.9134C207.243 78.9042 207.104 78.8962 206.958 78.8916C206.812 78.8863 206.647 78.8843 206.465 78.8843C205.99 78.8843 205.524 78.9227 205.066 78.9993C204.609 79.076 204.204 79.1996 203.85 79.3708C203.497 79.5413 203.211 79.774 202.994 80.0688C202.775 80.3636 202.667 80.7284 202.667 81.1647C202.667 81.823 202.902 82.3279 203.373 82.6796C203.843 83.0312 204.536 83.207 205.452 83.207C205.675 83.207 205.91 83.1786 206.158 83.1218C206.405 83.0643 206.653 82.983 206.9 82.8765C207.148 82.7701 207.385 82.6327 207.61 82.4641C207.836 82.2962 208.037 82.1006 208.216 81.8772L208.208 83.0365H209.24V78.5049C209.24 78.0495 209.153 77.6589 208.979 77.3317C208.804 77.0052 208.571 76.7415 208.281 76.5406Z" />
  <path d="M217.537 82.0409C217.136 82.2392 216.678 82.3384 216.163 82.3384C215.757 82.3384 215.391 82.267 215.067 82.1229C214.743 81.9794 214.465 81.7864 214.235 81.5445C214.005 81.302 213.829 81.0138 213.708 80.68C213.586 80.3462 213.526 79.982 213.526 79.5861C213.526 79.1908 213.579 78.826 213.685 78.4922C213.792 78.1584 213.949 77.8676 214.157 77.6204C214.365 77.3732 214.624 77.1776 214.933 77.0341C215.243 76.8907 215.606 76.8193 216.021 76.8193C216.329 76.8193 216.616 76.8702 216.883 76.9713C217.151 77.0731 217.381 77.2152 217.574 77.399C217.767 77.5821 217.92 77.7995 218.031 78.052C218.142 78.3052 218.198 78.5847 218.198 78.8914H219.111V76.1134H218.198V77.1167C218.119 76.9231 218 76.7559 217.841 76.6151C217.683 76.4736 217.505 76.3527 217.307 76.2509C217.109 76.1498 216.898 76.0737 216.675 76.0248C216.452 75.9753 216.234 75.9501 216.021 75.9501C215.487 75.9501 215 76.0407 214.562 76.2211C214.124 76.4022 213.754 76.6521 213.451 76.9713C213.149 77.2906 212.917 77.6746 212.754 78.1227C212.59 78.5709 212.508 79.0573 212.508 79.5828C212.508 80.1221 212.597 80.6126 212.775 81.0528C212.954 81.4936 213.203 81.8737 213.522 82.1936C213.841 82.5128 214.226 82.7614 214.677 82.9398C215.128 83.1176 215.623 83.2075 216.163 83.2075C216.861 83.2075 217.464 83.0747 217.972 82.8096C218.479 82.5446 218.879 82.1843 219.171 81.7289L218.458 81.2385C218.245 81.5756 217.938 81.8433 217.537 82.0409Z" />
  <path d="M227.358 82.0409C226.957 82.2392 226.499 82.3384 225.984 82.3384C225.578 82.3384 225.213 82.267 224.888 82.1229C224.564 81.9794 224.287 81.7864 224.057 81.5445C223.826 81.302 223.65 81.0138 223.529 80.68C223.408 80.3462 223.347 79.982 223.347 79.5861C223.347 79.1908 223.4 78.826 223.507 78.4922C223.613 78.1584 223.77 77.8676 223.978 77.6204C224.186 77.3732 224.445 77.1776 224.755 77.0341C225.064 76.8907 225.427 76.8193 225.843 76.8193C226.15 76.8193 226.437 76.8702 226.704 76.9713C226.972 77.0731 227.202 77.2152 227.395 77.399C227.588 77.5821 227.741 77.7995 227.852 78.052C227.963 78.3052 228.019 78.5847 228.019 78.8914H228.933V76.1134H228.019V77.1167C227.94 76.9231 227.821 76.7559 227.662 76.6151C227.504 76.4736 227.326 76.3527 227.128 76.2509C226.93 76.1498 226.719 76.0737 226.496 76.0248C226.274 75.9753 226.055 75.9501 225.843 75.9501C225.308 75.9501 224.821 76.0407 224.383 76.2211C223.945 76.4022 223.575 76.6521 223.273 76.9713C222.971 77.2906 222.738 77.6746 222.575 78.1227C222.412 78.5709 222.33 79.0573 222.33 79.5828C222.33 80.1221 222.418 80.6126 222.597 81.0528C222.775 81.4936 223.024 81.8737 223.344 82.1936C223.663 82.5128 224.047 82.7614 224.498 82.9398C224.949 83.1176 225.444 83.2075 225.984 83.2075C226.682 83.2075 227.285 83.0747 227.793 82.8096C228.3 82.5446 228.7 82.1843 228.992 81.7289L228.279 81.2385C228.066 81.5756 227.759 81.8433 227.358 82.0409Z" />
  <path d="M237.681 80.4958C237.681 80.6689 237.616 80.8619 237.485 81.0754C237.353 81.2883 237.169 81.4885 236.932 81.6769C236.695 81.8653 236.407 82.0226 236.068 82.1482C235.73 82.2751 235.348 82.3379 234.923 82.3379C234.314 82.3379 233.868 82.2156 233.584 81.9704C233.299 81.7252 233.157 81.4561 233.157 81.1647C233.157 80.9023 233.235 80.6815 233.387 80.503C233.541 80.3252 233.743 80.1798 233.995 80.0688C234.248 79.9577 234.543 79.8771 234.881 79.8275C235.22 79.778 235.573 79.7528 235.938 79.7528C236.161 79.7528 236.424 79.7555 236.728 79.7608C237.033 79.7654 237.35 79.7925 237.681 79.8421V80.4958ZM237.754 76.5406C237.463 76.3403 237.135 76.1916 236.771 76.0951C236.407 75.9986 236.037 75.9503 235.661 75.9503C235.042 75.9503 234.474 76.0316 233.956 76.1935C233.438 76.3561 232.972 76.5643 232.556 76.8195L233.017 77.5842C233.393 77.3516 233.799 77.1658 234.235 77.027C234.67 76.8882 235.146 76.8195 235.661 76.8195C235.824 76.8195 236.022 76.8446 236.255 76.8968C236.488 76.949 236.711 77.0376 236.924 77.1632C237.136 77.2894 237.315 77.4606 237.462 77.6774C237.608 77.8949 237.681 78.1712 237.681 78.5063V79.0026C237.522 78.9828 237.377 78.9656 237.243 78.9504C237.11 78.9359 236.977 78.924 236.846 78.9134C236.715 78.9042 236.577 78.8962 236.431 78.8916C236.285 78.8863 236.12 78.8843 235.938 78.8843C235.463 78.8843 234.997 78.9227 234.539 78.9993C234.082 79.076 233.677 79.1996 233.323 79.3708C232.97 79.5413 232.684 79.774 232.467 80.0688C232.249 80.3636 232.14 80.7284 232.14 81.1647C232.14 81.823 232.375 82.3279 232.846 82.6796C233.316 83.0312 234.009 83.207 234.925 83.207C235.148 83.207 235.383 83.1786 235.631 83.1218C235.879 83.0643 236.126 82.983 236.374 82.8765C236.621 82.7701 236.858 82.6327 237.083 82.4641C237.309 82.2962 237.51 82.1006 237.689 81.8772L237.681 83.0365H238.713V78.5049C238.713 78.0495 238.626 77.6589 238.452 77.3317C238.277 77.0052 238.045 76.7415 237.754 76.5406Z" />
  <path d="M247.895 76.1142L245.964 79.033V76.1142H244.931V79.033L242.999 76.1142H241.863L243.988 79.1447L241.863 83.0371H242.956L244.567 79.9319L244.931 80.4666V83.0371H245.964V80.4666L246.328 79.9319L247.94 83.0371H249.031L246.907 79.1447L249.031 76.1142H247.895Z" />
  <path d="M109.494 32.2623L109.492 32.2589C109.476 32.2705 109.461 32.2822 109.446 32.2938C109.475 32.2746 109.494 32.2623 109.494 32.2623Z" />
  <path d="M142.228 44.2628C142.228 48.1169 140.56 49.912 136.978 49.912C135.937 49.912 135.104 49.842 134.499 49.7038C133.929 49.5743 133.411 49.3608 132.957 49.0686L131.999 48.4526L130.04 56.3617L130.532 56.677C132.169 57.7266 134.615 58.2362 138.008 58.2362C139.815 58.2362 141.569 57.9203 143.223 57.2976C144.886 56.671 146.369 55.7589 147.63 54.5857C148.899 53.4072 149.925 51.9293 150.676 50.1936C151.429 48.4592 151.81 46.4631 151.81 44.2628V10.8987H174.15V56.9202H183.733V2.57516H142.228V44.2628Z" />
  <path d="M240.533 37.804C239.677 40.2549 238.399 42.3964 236.732 44.1704C235.063 45.9458 233.009 47.3615 230.627 48.3788C228.243 49.396 225.512 49.9122 222.509 49.9122C219.505 49.9122 216.774 49.396 214.391 48.3788C212.011 47.3635 209.98 45.9497 208.349 44.1764C206.715 42.4004 205.454 40.2562 204.599 37.8047C203.738 35.3333 203.301 32.5884 203.301 29.6464C203.301 26.7038 203.738 23.9588 204.599 21.4875C205.456 19.0294 206.721 16.8429 208.36 14.9889C209.989 13.1448 212.021 11.6761 214.4 10.6239C216.782 9.5703 219.509 9.03625 222.509 9.03625C225.507 9.03625 228.234 9.5703 230.617 10.6239C232.999 11.6781 235.053 13.1494 236.721 14.9955C238.393 16.8469 239.675 19.0313 240.533 21.4875C241.395 23.9621 241.831 26.7071 241.831 29.6464C241.831 32.585 241.395 35.33 240.533 37.804ZM249.273 18.0306C247.922 14.4476 245.953 11.3476 243.423 8.81747C240.898 6.29259 237.834 4.28788 234.314 2.8602C230.799 1.43451 226.827 0.712072 222.509 0.712072C218.266 0.712072 214.333 1.43451 210.818 2.8602C207.298 4.28788 204.234 6.29259 201.71 8.81747C199.179 11.3476 197.211 14.4476 195.858 18.0306C194.514 21.5979 193.833 25.4956 193.833 29.6173C193.833 33.8554 194.515 37.7657 195.861 41.2397C197.213 44.7276 199.183 47.7594 201.714 50.2506C204.238 52.7365 207.302 54.7108 210.822 56.1187C214.334 57.5239 218.267 58.2357 222.509 58.2357C226.827 58.2357 230.797 57.5239 234.31 56.1187C237.83 54.7108 240.894 52.7365 243.418 50.2506C245.949 47.7594 247.918 44.7276 249.271 41.239C250.617 37.7657 251.299 33.8554 251.299 29.6173C251.299 25.4956 250.618 21.5979 249.273 18.0306Z" />
  <path d="M125.807 6.20558H125.806C125.807 6.20764 125.808 6.20901 125.808 6.21106C125.808 6.20901 125.808 6.20695 125.807 6.20558Z" />
  <path d="M92.9293 36.5881C93.8355 28.3016 97.2037 17.8002 104.189 12.5997C105.78 11.4153 107.591 10.5415 109.525 10.0907C111.862 9.5461 114.738 9.90037 115.85 12.3268C117.276 15.4379 114.965 19.0322 113.142 21.4124C110.499 24.8619 107.131 27.6697 103.636 30.2144C101.844 31.5192 100.002 32.7499 98.1694 33.9958C97.404 34.5166 92.8705 37.2378 92.8705 37.2378C92.8923 36.9192 92.8943 36.9067 92.9293 36.5881ZM102.935 47.9864C98.5719 47.9864 95.2327 45.9685 93.7608 42.6967C93.7608 42.6967 93.7317 42.6319 93.7072 42.581C101.113 37.8393 108.683 33.1861 115.297 27.3432C120.884 22.4071 128.314 14.4035 125.806 6.20625C124.172 2.91796 120.336 1.85645 115.947 1.66874C98.8257 0.938371 82.9732 23.3999 82.9732 39.9405C82.9732 41.5156 83.1814 43.3445 83.4194 44.745C83.3989 44.7583 83.3513 44.786 83.2924 44.8191C80.4351 46.338 78.5342 47.139 77.7252 47.4563C76.2624 48.03 74.9438 48.3182 73.7072 48.3182C71.7229 48.3182 70.8425 46.6665 71.7229 43.9096L82.0895 10.3882C84.0744 3.87768 80.2176 1.66874 76.5764 1.66874C66.8735 1.66874 56.3939 14.3572 48.344 28.3564H47.3519L53.3052 10.3882C55.4018 3.98541 51.4327 1.66874 47.7915 1.66874C37.649 1.66874 26.6175 15.4617 18.567 30.1258H17.9265C18.7137 26.7801 19.5307 23.3054 20.3463 19.8333L20.6027 18.9172C20.5882 18.9225 20.573 18.9271 20.5585 18.9324C21.0291 16.9297 21.4983 14.9329 21.965 12.9666L22.4158 11.0267C22.5361 10.5164 22.655 10.0081 22.77 9.5038L24.6624 1.36337L14.6276 3.57231C14.5629 3.80894 13.7016 7.44754 12.4134 12.9666L2.02637 57.6411L2.09842 57.6252L2.02637 57.918L12.0611 55.7084C16.6951 38.836 35.1122 12.6962 41.0662 12.6962C42.1706 12.6962 42.9426 13.693 42.2784 16.1174L30.4788 57.918L40.9538 55.7084C45.5871 38.836 63.5647 12.6962 69.518 12.6962C70.6224 12.6962 71.5028 13.693 70.4023 17.1141L60.6954 48.5429C58.271 56.3734 59.7053 58.041 63.3446 57.918C67.1286 57.7898 71.6132 55.9193 75.4871 53.8584C79.482 51.7321 82.8 49.4154 83.9779 48.6255C84.118 48.537 84.2594 48.4484 84.4009 48.3592C86.7076 54.3376 91.6285 57.918 97.9691 57.918C109.108 57.918 118.923 49.5304 123.665 42.6974L122.345 38.2881C117.271 44.3498 110.541 47.9864 102.935 47.9864Z" />
</svg>
